<mxfile host="65bd71144e" scale="4" border="0">
    <diagram id="EUhF6AE69OG9gR_hJSGJ" name="Page-1">
        <mxGraphModel dx="1041" dy="491" grid="1" gridSize="10" guides="1" tooltips="1" connect="1" arrows="1" fold="1" page="1" pageScale="1" pageWidth="1169" pageHeight="827" math="1" shadow="0">
            <root>
                <mxCell id="0"/>
                <mxCell id="1" parent="0"/>
                <mxCell id="2" value="" style="rounded=0;whiteSpace=wrap;html=1;fontFamily=Latin Modern Roman;fontSize=12;" parent="1" vertex="1">
                    <mxGeometry x="240" y="70" width="160" height="190" as="geometry"/>
                </mxCell>
                <mxCell id="3" value="" style="rounded=0;whiteSpace=wrap;html=1;fontFamily=Latin Modern Roman;fontSize=12;" parent="1" vertex="1">
                    <mxGeometry x="40" y="70" width="120" height="190" as="geometry"/>
                </mxCell>
                <mxCell id="4" value="" style="rounded=0;whiteSpace=wrap;html=1;fontFamily=Latin Modern Roman;fontSize=12;" parent="1" vertex="1">
                    <mxGeometry x="480" y="70" width="120" height="190" as="geometry"/>
                </mxCell>
                <mxCell id="5" value="&lt;b style=&quot;font-size: 12px;&quot;&gt;Design Science Research&lt;/b&gt;" style="text;html=1;strokeColor=none;fillColor=none;align=center;verticalAlign=middle;whiteSpace=wrap;rounded=0;fontFamily=Latin Modern Roman;fontSize=12;" parent="1" vertex="1">
                    <mxGeometry x="240" y="40" width="160" height="30" as="geometry"/>
                </mxCell>
                <mxCell id="6" value="&lt;b style=&quot;font-size: 12px;&quot;&gt;Knowledge Base&lt;/b&gt;" style="text;html=1;strokeColor=none;fillColor=none;align=center;verticalAlign=middle;whiteSpace=wrap;rounded=0;fontFamily=Latin Modern Roman;fontSize=12;" parent="1" vertex="1">
                    <mxGeometry x="480" y="40" width="120" height="30" as="geometry"/>
                </mxCell>
                <mxCell id="7" value="&lt;b style=&quot;font-size: 12px;&quot;&gt;Environment&lt;/b&gt;" style="text;html=1;strokeColor=none;fillColor=none;align=center;verticalAlign=middle;whiteSpace=wrap;rounded=0;fontFamily=Latin Modern Roman;fontSize=12;" parent="1" vertex="1">
                    <mxGeometry x="40" y="40" width="120" height="30" as="geometry"/>
                </mxCell>
                <mxCell id="8" value="" style="rounded=0;whiteSpace=wrap;html=1;fontFamily=Latin Modern Roman;fontSize=12;" parent="1" vertex="1">
                    <mxGeometry x="260" y="80" width="120" height="70" as="geometry"/>
                </mxCell>
                <mxCell id="13" value="&lt;span style=&quot;font-size: 12px;&quot;&gt;People&lt;br&gt;&lt;/span&gt;" style="text;html=1;strokeColor=none;fillColor=none;align=left;verticalAlign=middle;whiteSpace=wrap;rounded=0;fontFamily=Latin Modern Roman;fontSize=12;fontStyle=0" parent="1" vertex="1">
                    <mxGeometry x="42.5" y="100" width="115" height="30" as="geometry"/>
                </mxCell>
                <mxCell id="17" value="" style="rounded=0;whiteSpace=wrap;html=1;fontFamily=Latin Modern Roman;fontSize=12;" parent="1" vertex="1">
                    <mxGeometry x="260" y="180" width="120" height="70" as="geometry"/>
                </mxCell>
                <mxCell id="20" value="&lt;span style=&quot;font-size: 12px;&quot;&gt;Develop&lt;br&gt;Artifact&lt;/span&gt;" style="text;html=1;strokeColor=none;fillColor=none;align=center;verticalAlign=middle;whiteSpace=wrap;rounded=0;fontFamily=Latin Modern Roman;fontSize=12;fontStyle=0" parent="1" vertex="1">
                    <mxGeometry x="260" y="100" width="120" height="30" as="geometry"/>
                </mxCell>
                <mxCell id="21" value="&lt;span style=&quot;font-size: 12px;&quot;&gt;Evaluate&lt;/span&gt;" style="text;html=1;strokeColor=none;fillColor=none;align=center;verticalAlign=middle;whiteSpace=wrap;rounded=0;fontFamily=Latin Modern Roman;fontSize=12;fontStyle=0" parent="1" vertex="1">
                    <mxGeometry x="260" y="200" width="120" height="30" as="geometry"/>
                </mxCell>
                <mxCell id="41" value="&lt;span style=&quot;font-size: 12px;&quot;&gt;Organizations&lt;/span&gt;" style="text;html=1;strokeColor=none;fillColor=none;align=left;verticalAlign=middle;whiteSpace=wrap;rounded=0;fontFamily=Latin Modern Roman;fontSize=12;fontStyle=0" parent="1" vertex="1">
                    <mxGeometry x="45" y="150" width="115" height="30" as="geometry"/>
                </mxCell>
                <mxCell id="43" value="&lt;span style=&quot;font-size: 12px;&quot;&gt;Methodologies&lt;/span&gt;" style="text;html=1;strokeColor=none;fillColor=none;align=left;verticalAlign=middle;whiteSpace=wrap;rounded=0;fontFamily=Latin Modern Roman;fontSize=12;fontStyle=0" parent="1" vertex="1">
                    <mxGeometry x="485" y="200" width="115" height="30" as="geometry"/>
                </mxCell>
                <mxCell id="44" value="&lt;span style=&quot;font-size: 12px;&quot;&gt;Foundations&lt;/span&gt;" style="text;html=1;strokeColor=none;fillColor=none;align=left;verticalAlign=middle;whiteSpace=wrap;rounded=0;fontFamily=Latin Modern Roman;fontSize=12;fontStyle=0" parent="1" vertex="1">
                    <mxGeometry x="485" y="100" width="115" height="30" as="geometry"/>
                </mxCell>
                <mxCell id="45" value="&lt;span style=&quot;font-size: 12px;&quot;&gt;Technology&lt;/span&gt;" style="text;html=1;strokeColor=none;fillColor=none;align=left;verticalAlign=middle;whiteSpace=wrap;rounded=0;fontFamily=Latin Modern Roman;fontSize=12;fontStyle=0" parent="1" vertex="1">
                    <mxGeometry x="45" y="200" width="115" height="30" as="geometry"/>
                </mxCell>
                <mxCell id="75" value="&lt;b style=&quot;font-size: 12px;&quot;&gt;Design&lt;br&gt;Cycle&lt;/b&gt;" style="text;html=1;strokeColor=none;fillColor=none;align=center;verticalAlign=middle;whiteSpace=wrap;rounded=0;fontFamily=Latin Modern Roman;fontSize=12;" parent="1" vertex="1">
                    <mxGeometry x="270" y="150" width="100" height="30" as="geometry"/>
                </mxCell>
                <mxCell id="76" value="&lt;b&gt;Rigor&lt;br&gt;Cycle&lt;/b&gt;" style="text;html=1;strokeColor=none;fillColor=none;align=center;verticalAlign=middle;whiteSpace=wrap;rounded=0;fontFamily=Latin Modern Roman;fontSize=12;" parent="1" vertex="1">
                    <mxGeometry x="390" y="150" width="100" height="30" as="geometry"/>
                </mxCell>
                <mxCell id="77" value="&lt;b&gt;Relevance&amp;nbsp;&lt;br&gt;Cycle&lt;/b&gt;" style="text;html=1;strokeColor=none;fillColor=none;align=center;verticalAlign=middle;whiteSpace=wrap;rounded=0;fontFamily=Latin Modern Roman;fontSize=12;" parent="1" vertex="1">
                    <mxGeometry x="150" y="150" width="100" height="30" as="geometry"/>
                </mxCell>
                <mxCell id="104" value="" style="shape=image;verticalLabelPosition=bottom;labelBackgroundColor=default;verticalAlign=top;imageAspect=0;image=data:image/png,iVBORw0KGgoAAAANSUhEUgAAAyAAAAMgCAYAAADbcAZoAAAACXBIWXMAAA7DAAAOwwHHb6hkAAAAGXRFWHRTb2Z0d2FyZQB3d3cuaW5rc2NhcGUub3Jnm+48GgAAIABJREFUeJzs3XecbWV1//HP2mcuIEVBxQqoYIVY0NjBjpGIDWvsUsQkGk3UaH6xxKhRozHGLioW7P6sKGKNDevProgFY0SUogIq9c7Z6/fHnMHhcsvMvfvZz9nnfN6vFy+5d+6stcTrZb7zrGfvyEwkSZIkqQ9N7QEkSZIkzQ8DiCRJkqTeGEAkSZIk9cYAIkmSJKk3BhBJkiRJvTGASJIkSeqNAUSSJElSbwwgkiRJknpjAJEkSZLUGwOIJEmSpN4YQCRJkiT1xgAiSZIkqTcGEEmSJEm9MYBIkiRJ6o0BRJIkSVJvDCCSJEmSemMAkSRJktQbA4gkSZKk3hhAJEmSJPXGACJJkiSpNwYQSZIkSb0xgEiSJEnqjQFEkiRJUm8MIJIkSZJ6YwCRJEmS1BsDiCRJkqTeGEAkSZIk9cYAIkmSJKk3BhBJkiRJvTGASJIkSeqNAUSSJElSbwwgkiRJknpjAJEkSZLUGwOIJEmSpN4YQCRJkiT1xgAiSZIkqTcGEEmSJEm9MYBIkiRJ6o0BRJIkSVJvDCCSJEmSemMAkSRJktQbA4gkSZKk3hhAJEmSJPXGACJJkiSpNwYQSZIkSb0xgEiSJEnqjQFEkiRJUm8MIJIkSZJ6YwCRJEmS1BsDiCRJkqTeGEAkSZIk9cYAIkmSJKk3BhBJkiRJvTGASJIkSeqNAUSSJElSbwwgkiRJknpjAJEkSZLUGwOIJEmSpN4YQCRJkiT1xgAiSZIkqTcGEEmSJEm9MYBIkiRJ6o0BRJIkSVJvDCCSJEmSemMAkSRJktQbA4gkSZKk3hhAJEmSJPXGACJJkiSpNwYQSZIkSb1ZqD2AJKkfEXEF4ArArkv/ubAT5C7A9sCOkDsC2zewM7Bu8ms3/EbV8sc2NAZ+v5GfPwdYbJc+dhHE+cB5wMUQ58LiBZNfcy5wTmZurIYkaYZEZtaeQZK0RhGxE3BN4Mow2h24KuRVG7gysHuSV4PYjT8Fjt0qjrsWLUth5GzgHMhzgjgdOKuFsyB+DZwJ47OAXwNnZeYFFeeVJK2RAUSSpkxE7ADsDQt7QV4Tcs8G9kjymhB7AnuwFCy05DfAaZC/COLUFk6DOBXGvwB+CfwiM9dXnlGSNGEAkaQKIuKKwHVhtA/kPg3sncQ+kPsA1wCi8oizZBH4BeQpQZzSwikQp8D4FOCUzDyv9oCSNE8MIJJUUETsBuwHo30bcr8k94XYG9i79my6xNkQJwX5gxZOguYHsPi9zDyj9mCSNIsMIJLUgYjYGbgJNDdt4GZJ3AzyRsAutWfTVjsd8gdBfKclvg3jbwM/zMzF2oNJ0pAZQCRpjSLiyjC6FeT+Ddw04WbAPvho83lwEcT3g/xWC9+G9tvAN70IL0mrZwCRpM2IiHUsnWwc0MAtEm4B3AjvaOhPFoEfB3yjhW9A+0XgW5nZ1h5MkqaRAUSSVoiIvWB0YEMekHBbYD98Z5LW7veQXw/iyy3NF2HxS5n5h9pDSdI0MIBImmsRsTeMDmjI2yfcDS+Hq4wx8KOAL7bEp2D82cw8q/ZQklSDAUTSXImIG0Fz1yDvCnEH4Iq1Z9JcSuCHAZ+bBJL/zsyzaw8lSX0wgEiaaRFxVRjdoSHvlnAPYK/aM0kb0UJ8K8hPtTSfgsUvZuaFtYeSpBIMIJJmSkRsDwt3aGj/MuFg4Aa1Z5K2wvmQX0ziBGg/mpk/rj2QJHXFACJp8CLiKjC6R0MeknB34Aq1Z5I69rOAT7XER2D8icy8qPZAkrS1DCCSBiciArhFQ3O/hHsCN609k9SjP0J+Mmk+CuMPe5ld0tAYQCQNQkSMgNs2NIck3B+4bu2ZpCnQQnw5yeOgfX9m/qT2QJK0JQYQSVMrIi4Ho7s35P0SDgGuVHsmaYolxDeSfD+0H8jMk2sPJEkbYwCRNFVWnHQ8IuEhwOVrzyQN1EkJ74X27Z6MSJomBhBJ1UVEA9yuoXngJHRcpfZM0ow5KeGt0B6bmb+qPYyk+WYAkVRNRNyioXlkwoOAq9WeR5oDLeTnkuYdMH5vZp5beyBJ88cAIqlXEXF1aB4U8Chg/9rzSHPsooAPt8SxMP5YZi7WHkjSfDCASCpucpn8PkH7SIi7A6PaMwmA8yZ//RG4EOKCpR+3FwO/D2IMnA9s7J0T5wItsADsspGPXx4YJTn5eLMDcDnInYF1wK7ADsCOHf930tY5LeDYlvYtXl6XVJoBRFIxEXGzhuaxCQ/FlwOWtB74DXAW5K+DOAs4q4UzWPr7cyDOhcVzlv6ec4FzM3N9xZkBiIjtWAojk78WdoXcFXI34MrN0n2g3ZO4BuTuLP34yhVHngPx1YQ3wPhdmfnH2tNImj0GEEmdioidYPSQgMdC3qr2PDPgIuDnkKcF8Uvg1BZOg/gljE8FfpWZZ9YdsV8RsQ7YHdgDRntA7tnAXsAeSewBeS2W7hR50rZtfh/w9pb26Mz8du1hJM0OA4ikTkTETSenHQ/D0461Ohvip0GeAvysJU6B8c+AU4DTMrOtPN/gTELKtWFhH2iv28B1k7wuxHWB6wDb1Z1waOJrCa+D8bsz87za00gaNgOIpK22tD4zemDA4yFvU3ueATgN8odBnNzCSdD8CBZPyszTaw82TybvmrkWjPaF3K+BfZPYF/JGwE6155ty5wa8taV9ZWb+uPYwkobJACJpzSZPsjoq4Ch8fO7GXAjxgyC/1cJ3oP0O8F0feTrdIiKAa0+CyU2D3B/i5iydmETd6aZOC/nxZPRyWPx4+sWEpDUwgEhatYi4TUPzhIQH4ArLsvMhvhnk11rimzD+DnCyjzSdHRFxBWB/aPZvYP+EmwM3AprKo02LHye8gqUnaP2h9jCSpp8BRNJmRcQCjB4Q8A+Qt6w9T2WLwA8Cvt4SX4Px14AfGDbmT0RcHhZuBe2tg7w1xK1ZekLXPPt9wDEt7csy839rDyNpehlAJG3U0tOsmsMC/p6lFZR5dB7kV5P4AjRfhMWv+FhSbUpE7A2j2zTk7RPuCOzLfK5uLQa8p6V9SWZ+q/YwkqaPAUTSpUTEVRqaxyf8DXCl2vP07GzIzyfxeWhPBL7h6Ya2VkTsDqMDG/IOk0ByE+ZubSs/mYxenLn+k7UnkTQ9DCCSAIiIfRqapyQ8Crhc7Xl6cgHkiUl8GtpPA9/MzHHtoTSbImJXGN2hIQ9KOAi4Qe2ZevTtJF48eYyv/x+T5pwBRJpzEXHDhub/JPwVsFB7nsJycmH84y3Np2HxS5l5Ye2hNJ8iYi8YHdSQd0+4C/PxhvefJPECGL8tM9fXHkZSHQYQaU5FxI0bmn9OeCCzvRZy7tIaSHM8jI/PzDNqDyRtKCIa4ObQ3DOIQyBvwWzfH/l5wougfVNmXlR7GEn9MoBIcyYibh7EMyDuy+x+gfPDgONa2o8BX/Qeh4YmIq4Bo3sG7SEQdwN2rD1TIb9MeDG0r8/MC2oPI6kfBhBpTkTEzYJ4LsQ9mb3gkRBfS/KD0H4gM39UeyCpKxGxA4zu0pD3TbgvsHvtmQo4PeHfoD3aExFp9hlApBkXETeYrFo9FBjVnqdDY4ivJPleaN+Xmb+sPZBU2mRV63YNzQMT7g9cs/ZMHTs1iefB+BhPLqXZZQCRZlREXLuheXbCI5id4DGG/FzSvAvG78vM39UeSKplEkZu29DcP+EBwJ61Z+rQT5P4Fxi/MzPb2sNI6pYBRJoxEXH1yYnHkcB2tefpQEJ8Ocl3QfvezDy99kDStJmEkQMbmodOwsgVa8/Uke8n8czMxQ/WHkRSdwwg0oyIiF0amqcm/AOwU+15OvCDhLdC+67M/EXtYaShiIjtYHSPhnxowr2Ziff6xInJ+KmZ+eXak0jadgYQaeAiYgGaIwL+Bbhq7Xm20W8D3tnSviUz/1/tYaShi4hdYHRowGGQBzLsB1Ak5AeS/KfM/HHtYSRtPQOINGAR6+4WtC8Fblx7lm0whvzvpDkaxh/KzItrDyTNoojYE5qHBhwFXKf2PNtgfcCbWtpnu5IpDZMBRBqgiLhVMHrJ5DuaQ/XThNdD++bMPLP2MNK8WLovsnBQQ/vohPsB29eeaSv9IeGF0L40My+sPYyk1TOASAMSEVdraJ6TcATDfHv5xQEfammOhsVPp38ASVVFxK4welCQTwT2rT3PVjo1iWdkLr619iCSVscAIg3A0qXS5okBzwAuX3uerXDKitOOM2oPI+nSJqcidwvGfw1xCLBQe6a1y88k+aTM/F7tSSRtngFEmnIRC38Z5H8C1689yxol5CeT5hUwPt5n+UvDEBF7NDRHTh7lffXa86zRYsDrWtpn+Z4gaXoZQKQpFRHXC+I/Ie5Ze5Y1+mPAW1vaV2TmybWHkbR1Jo/zfXDAEyFvUXueNfpdwj9De7Tf/JCmjwFEmjIRsQM0Tw94OsO6HHpKwiuhfVNmnlt7GEndiYgDgngSxH2BUe15Vi++loz/OjO/WXsSSX9iAJGmSMS6g4L2VcD1as+yevG1hJfA+P2ZOa49jaRyIuLaDc3jJ+tZQ7mPNg54dUv7TL85Ik0HA4g0BSZPt/r3hEfUnmWVEvLTSfPyzMXjag8jqV9LLzhsDgt4KnDN2vOs0ulJPA3Gx/oEPqkuA4hU0dKTZ5q/Dng+cIXa86zCxQFvb2n/IzN/UHsYSXVNVkYfHfAUYJ/a86xOfirJx2XmKbUnkeaVAUSqJCL2DUZvhLxN7VlW4cKAN7S0/56Zp9YeRtJ0iYgRjB4Q5NOA/WvPswrnJzwb2pdl5mLtYaR5YwCRehYRC9A8OeA5TP8l8/MC3jgJHqfVHkbS9ItYd7cgnw95q9qzrMJ3kvaIzPx/tQeR5okBROpRRNwkGB0zgEda/jHgmJb2hZn569rDSBqeSRB5HuSta8+yBYuTS+r/lJnn1x5GmgcGEKkHEbFDQ/OsXLqwOc1vGD4v4BUt7Yt9iZekLiy9TJVnDSCI/ChpD8/ME2sPIs06A4hUWETcJmjeBNyw9iybcdHk7cH/lpln1B5G0uxZCiL5PKb7jkgb8NLJI3svrD2MNKsMIFIhK+56PBdYV3ueTWgD3tfSPj0zf1Z7GEmzLSJicln9ecD1a8+zGT9M2kdl5tdrDyLNIgOIVEBE/FnQHAvcrPYsm5AB725pn5WZP6k9jKT5svQNmtFhQT6L6X2PyGLAC1vaf83M9bWHkWaJAUTq0NKjKJsnB/wrU/uEq/xskk/1qS+SaouIy0Hz+ICnA1esPc8mfHtyGvLd2oNIs8IAInUkIq4djN4Mecfas2zCyUk8K3PxvbUHkaSVImK3huZpCU9iOr95sz7h31g6DWlrDyMNnQFE6kDEwgODPBrYtfYsG/GbhOdB+ypfuCVpmkXEXg3N8xIeDkTteS4rP53ko3wvkrRtDCDSNoiIyzc0r0l4aO1ZNuKCgJe0tC/KzPNqDyNJqxURBwaj/4C8Ze1ZNuI3SRyRufih2oNIQ2UAkbZSRNw6aN4B7F17lsvK9yf5lMz8n9qTSNLWmDwx62FBvgi4Ru15NjR5dPk/+PJCae0MINIaRUQDzdMCnsP0PV73B0nzxMz1n649iCR1ISJ2aWiemfBEYLva82zg5KR9SGZ+p/Yg0pAYQKQ1iIhrBHEsxF1qz7KBsxOeDe1rvOchaRZFxA2CeDnE3WvPsoELknhS5uLRtQeRhsIAIq1SRNwpaN4JXK32LCsFvLelfXxmnll7FkkqLWLhXkH+F3Cd2rNcWr4/ycMy89zak0jTrqk9gDTtIqKJGD0raD7FdIWPHybtncY5fpDhQ9K8yFw8Lmn3C3g+cHHtef4kDg2ar0XETWtPIk07T0CkzYiIK09Wru5Re5YVLkj4d2hfkJkX1R5GkmqJiOsF8RqIu9aeZYULE56eOf6v2oNI08oAIm1CRNwuaN4N7FF7lj/JjyX5+Mz8We1JJGkaTJ6WdfjkaVlT8zb1gLe1tEf5lCzpsgwg0kZEjP4+4EVMz1OufpPE32UuvrP2IJI0jSLiKg3NSxMeVnuWFb6TtIf6TSPp0gwg0goRsWND8/pperFgwLta2r/LzLNqzyJJ0y5i3T2C9nXAXrVnmTg7iYdlLn6s9iDStPASujQREXsGo89OUfg4PYn7j3P8V4YPSVqdzPUnJO2NJqfYbe15gN2C/OgoRi9ceo+UJE9AJCBi3V2C9t3AlWvPAmTAMS3tUzLznNrDSNJQTf5sfz2wd+1ZluRHknyEf7Zr3pnENfeW7nu0H2c6wsdpSXPwOMdH+C8oSdo2mes/k7Q3CXg5U3EaEocEzVci4vq1J5Fq8gREcysidpjc93h47VkAAt7e0j4hM8+uPYskzZqIuEPQvAW4du1ZgHOS5sGZ6z9RexCpBk9ANJeW3u8x+sSUhI9zknjEOMcPN3xIUhmZ+fnJacjRtWcBdg3a4yNGT6s9iFSDJyCaOxFx46A5DrhW7VkgT0jy8Mz8Ve1JJGleRCwcHOQbgatXn2Xp9PuIzLyw9ixSXzwB0VyJWLhX0HyJ+uHjvCSObLM92PAhSf3KXPxY0u4PeVz1WeBhweiTEbF77VmkvhhANDciRk8O8gPAzpVH+VbS3iJz8Q2V55CkuZWZZ7TZ3juJo4DKbyvPAyaX029Ydw6pHwYQzbyIWBjF6JUBLwFGFUfJgJcn7W0z80cV55AkTWQuHp20twC+XXmUvYPmSxFxp8pzSMV5B0QzLSJ2DuK9EPeoPMpZSTwmc/GjleeQJG3E5MmIL0p4AhAVR7k4iSMyF4+tOINUlAFEMysirhE0xwM3rTtJfiLJR2Xm6XXnkCRtScTCfScX1K9YcYxMeHbm+LkVZ5CKMYBoJkXEvkHzMWCvimOME54D7fMzcwpegCVJWo2I2DMYvR3ywKpzwJta2qMyc33NOaSuGUA0cyLitkHzYeq+2fyspHm4L5mSpGGKiBE0zwx4JlXvzOank7xfZv6h3gxStwwgmikRC4cG+TbgchWn+EIyfoiP15Wk4YtYOCTItwK7VZzi68n4npl5Vr0ZpO74FCzNjIjRE4N8L/XCRwa8KBnfxfAhSbMhc/EjSfvnwDcrTnHLoPlCRNR+h5XUCQOIZsIoRs8JeBn1fk+fm8R9xjl+emYuVppBklRAZv4saW8f8PqKY9wgaE6MiBtXnEHqhCtYGrSIaBqa/0p4fMUxfpi0983MH1ecQZLUg4iFxwT5amCHSiOcnbT3ycwvVOovbTMDiAYrItY1NMckPLzeFPmhJB+Zmb+vN4MkqU8RceugeR9wzUojXJDEAzIXj6/UX9omrmBpkCJi+yDeVTF8TO575KGGD0maL5n51aTdH/KzlUa4XJAfiFh4YKX+0jYxgGhwJm83/wjEoZVG+EMS95/c9/D9HpI0hzLzrCQPCnh5pRG2C/KdEQuHVeovbTVXsDQoEbFbMPo45C0rjXBK0t4rM39Yqb8kacpEjI6aBJHtKrTPhCdkjl9Vobe0VQwgGoz64SO+lIzvl5ln1ukvSZpWEXH7oPkAsHuN/gn/kjl+To3e0lq5gqVBiIirBM1na4WPgDcl4zsbPiRJG5OZJybt7YEqT0QM+JdRjP61Rm9prQwgmnoRcdWg+RRwkwrtM+E54xwflpkXV+gvSRqIzPxJ0t4G8jNV+sMzRzH69xq9pbVwBUtTLSKuNgkf+1Vof14SD89c/GCF3pKkgYqIhck7qv6mSn94yTjHT63RW1oNA4imVkRcc2ntiutWaH960h6Smd+o0FuSNAMiRk8JeBEVNk4CXjjO8T/13VdaDQOIplJEXC4Yfa7SnY9TkvYemfnTCr0lSTMkYuHQIN9OhTenB/zHOMdP6buvtCXeAdFUamheUSd8xJeS9taGD0lSFzIX35+09wDO6b03PHkUoxf13VfaEk9ANHUi4s+C5jv0HpDzQ0n+VWZe0G9fSdKsi4h9g+ZjwF6994bnjnP8rL77SpviCYimTkPzZHr+vRnwqiTvb/iQJJWQmScl7e2A7/XeG54ZMXp6332lTfEERFMlIkZB82t6fJFTwjMyx8/vq58kaX5FxBWC+CDEnfrunfDEzPHL++4rbcgTEE2b69Nf+GgT/sbwIUnqS2aem+TBkB/uu3fAyyIWjui7r7QhA4imzMI1emq0mMRhmePX9NRPkiQAMvPCJA8NOKbn1hHk6yIWHtZzX+lSDCCaMtnHYwrPT+I+mYtv6aGXJEmXkZnjlvaIgFf03LoJ8s0RC/ftua90CQOIpsz4jMINzknav8hcPL5wH0mSNiszc5zjv0vo+4L4QpDvjlh3UM99JcBL6JoyEbFr0JwFLBQof1bS3j0zv12gtiRJWy1i9KSAlwLRY9tzk/ZO/ntRffMERFMlM8+BOLFA6TOT9q7+IStJmkaZ45clcRTQ9tj2CkHziYi4QY89JQOIpk/CWzsu+evJd3h6f/a6JEmrlbn4+iSOpN8QsnvQfDQirtZjT805V7A0dSbvAvkusG8H5U6fnHyc1EEtSZKKi1h4SJDHUmYdeVO+l7R3zMyze+ypOeUJiKZOZo6T9nDgom0s9b9Je4DhQ5I0JJmL70ri4cBij21vHMT7I2L7HntqThlANJUy8yuTY+jxVpb46WTt6pQu55IkqQ+Zi+9O4sHA+v66xp0amjdGRJ8X4TWHDCCaWpmLxybNIcA5a/vM+HzS3i4zf15iLkmS+pC5+P4kHkKPJyEJD2tonttXP80nA4imWub6E5L2pgFvZsunIb9M4shkfJfMPKuH8SRJKmoSQh7B1m8ErL0n/HPEwpF99dP88RK6BiMirgnNIQ0ckMSewI7QnhHET1ua42Hxc5l5ce05JUnqWsTCI4J8M/1983gxae6Vuf6EnvppjhhAJEmSBiBi4dFBvpH+QsgfJk/G+lZP/TQnDCCSJEkDETF6XMCr6e+N6acl7a0y81c99dMc8A6IJEnSQGSOX5vwxB5bXjNojouIHXvsqRlnAJEkSRqQzPErAp7fY8ubB/EWH8+rrhhAJEmSBmac42cEvKy/jvEAaJ7RXz/NMu+ASJIkDVBEREPzxoTH9NQyk3ho5uK7euqnGWUAkSRJGqiIGAXxHohDe2p5weTJWF/vqZ9mkAFEkiRpwCLicsHo45AH9tTyF0n75770V1vLOyCSJEkDlpkXJON7Ad/tqeVeQbw7IhZ66qcZYwCRJEkauMw8N2n/Eji1n45x54bmRf300qxxBUuSJGlGRMSfBc0XgF376JfEozMX39JHL80OA4gkSdIMiYg7Bc0JwPY9tLsgaQ/IzG/20EszwhUsSZKkGZKZn03iMKCP7zJfLmjeExG79dBLM8IAIkmSNGMyF9+R8Kye2u0TxFt9U7pWywAiSZI0k9rnBxzbT684BJqn9tNLQ+cdEEmSpBkVEeuC+DjEnXtot5i0d8nML/TQSwNmAJEkSZphEXGloPkycL0e2p2etPtn5uk99NJAuYIlSZI0wzLzt0l7b+DsHtpdLYi3R8Soh14aKAOIJEnSjMvMk5PmQcBi+W5xF2j+qXwfDZUrWJIkSXMiYvSkgP/sodV4ch/k8z300sAYQCRJkubIKEZvSDi8h1a/TNqbZeZve+ilAXEFS5IkaY60tI+H+FoPrfYI4uge+mhgDCCSJElzJDMvTMb3BX5VvlscGrFwRPk+GhJXsCRJkuZQRNw2aP4b2L5wq/OS9s8z8+TCfTQQnoBIkiTNocz8csLf99Bqp6B5R0SUDjoaCAOIJEnSnMocvybg7T202r+heX4PfTQArmBJkiTNsYjYKWi+CuxXuFWbtHfNzM8W7qMpZwCRJEmacxFx/aD5OnD5wq1+nrQ3zczfF+6jKeYKliRJ0pzLzB8ncWQPra7d0PxHD300xQwgkiRJInPxPQEvL94HjohYuGfpPppermBJkiQJgIjYLhh9EfKWhVv9Omlv7FvS55MnIJIkSQIgMy9Oxn8FlL6jcfUgXl+4h6aUAUSSJEmXyMxT+rkPEveLWHhA+T6aNq5gSZIk6TJGMXpzwqMKtzkraffLzLMK99EU8QREkiRJl9HS/i1wcuE2uzc0Ly7cQ1PGExBJkiRtVETcOGi+BuxQsk/SHJy5/oSSPTQ9PAGRJEnSRmXm9xL+uXSfoH1tROxSuo+mgwFEkiRJm9G+DPIzhZtcq6F5QeEemhKuYEmSJGmzImKvoPkOsGvBNm3S3jEzv1iwh6aAJyCSJEnarMz8RRJPKNymCZrXRsS6wn1UmQFEkiRJW5S5+LaAdxdusx80/1C4hypzBUuSJEmrEhG7Bs13gT0Ltjk/af8sM/+nYA9V5AmIJEmSViUzz0nicYXb7BjEfxXuoYoMIJIkSVq1zMXjA95StkvcK2LhfmV7qBZXsCRJkrQmEXGFoPk+sEfBNqcm7b6Z+ceCPVSBJyCSJElak8w8N4m/Ldxmz4bmmYV7qAJPQCRJkrRVRjF6e8JDC7a4OGlvkpk/KthDPTOASJIkaatExJWC5gfAVct1yU+22d69XH31zRUsSZIkbZXM/G35FxTGQRELh5TtoT55AiJJkqRt0kTzYYh7FWxxStLul5kXFeyhnngCIkmSpG2S5OOBkk+r2geavy9YXz0ygEiSJGmbZOYvEp5TskfA/4mIa5TsoX4YQCRJktSB9mXAtwo22KWheW7B+uqJd0AkSZLUiYi4ZdB8GRgVatEm7S0z85uF6qsHnoBIkiSpE5n59YDXFmzRBPGCgvXVA09AJEmS1JmIuHzQ/Ai4WqkeSXNw5voTStVXWZ6ASJIkqTOZ+fsknlGyR9C+NCIWSvZQOQYQSZIkdWz8JoivFmxwIxg9umB9FeQKliRJkjo3uZD+Fcp9w/tXSXv9zDyvUH0V4gmIJEmSOje5kH5MwRbXgOYJBeurEE9AJEmSVEREXGlyIf1KhVqck7R7Z+bZheqrAE9AJEmSVERm/jah5MsDd21onlywvgrwBESSJEnFRMS6oPk+cP1CLc5L2n0y84xC9dXTgI8VAAAgAElEQVQxT0AkSZJUTGauT+JpBVvs1NA8vWB9dcwTEEmSJBXXRPMpiLsWKn/R5IlYvyhUXx3yBESSJEnFJfk0oC1UfvuG5pmFaqtjBhBJkiQVl5nfCHhbsfrwqIi4Tqn66o4BRJIkSb1oaf8ZuKBQ+XXeBRkGA4gkSZJ6kZm/DHhFsfrwmIi4Vqn66oYBRJIkSb1paV8AlHpx4LqG5h8L1VZHDCCSJEnqTWaek/AfxerD4RGxR6n62nYGEEmSJPWsfRlweqHi2zc0Ty1UWx0wgEiSJKlXmXlewvOK1YfHRsTVS9XXtjGASJIkqYL2aOCUQsV3aGieWKi2tpEBRJIkSb3LzPVJPLdYfXhcRFyhVH1tPQOIJEmSKhm/DfhxoeJXgOaoQrW1DQwgkiRJqiIzx0m8oFT9gH+IiB1K1dfWMYBIkiSpovGxlDsFuSqMHl6otraSAUSSJEnVTE5BXliqfpBPjQi/5p0i/o8hSZKkysbHUu6JWNeH0X0L1dZWMIBIkiSpqsxcTKLYe0EC/r5Uba1dZGbtGSRJkjTnImJd0PwEuFaJ+kl7q8z8eonaWhtPQCRJklTd0ntB+M9S9RuaJ5SqrbXxBESSJElTISJ2DJqfA7sXKH9x0l4rM08vUFtr4AmIJEmSpkJmnp/wykLlt4PmcYVqaw08AZEkSdLUiIgrTk5BdilQ/szJKciFBWprlTwBkSRJ0tTIzN8FvL5Q+avA6MGFamuVPAGRJEnSVImIPYLmZ8C6AtW/3ubirbqvq9XyBESSJElTJTN/GfCeQtVvGRG3KFNbq2EAkSRJ0tRpaV9aqnZD89hStbVlrmBJkiRpKjWx8AXIAwqU/mPS7pGZ5xaorS3wBESSJElTKeFlhUrvDM3DC9XWFngCIkmSpKkUEaOg+TGwd4HyJ7U53q9AXW2BJyCSJEmaSpk5TnhVofL7RsTtC9XWZhhAJEmSNMXaNwJ/LFHZy+h1GEAkSZI0tTLz3IB3FKkN94+IEm9c12YYQCRJkjTVWtpXFyq9E4weWKi2NsEAIkmSpKmWmd+B+EqJ2gGPKVFXm2YAkSRJ0tRLeE2hygdExA3L1NbGGEAkSZI0AON3A2eVqNzQPKJEXW2cAUSSJElTLzMvCnhrkdrwqIgYlaityzKASJIkaRBa2tcBJd6ifU1YOKhAXW2EAUSSJEmDkJk/gfhiidoN7UNL1NVlGUAkSZI0GAlvKlT30IjYqURtXZoBRJIkSQMyfg/whwKFd4LRIQXqagMGEEmSJA1GZp4X8J4StcM1rF5EZol7PJIkSVIZEXH7oClxF2R90l49M39boLYmPAGRJEnSoGTmicDJBUqvg9H9C9TVCgYQSZIkDU7CW0rUDXANqzBXsCRJkjQ4EXGtoPkfIDou3SbtHpn5647rasITEEmSJA1OZv4vxIkFSjfQ3K9AXU0YQCRJkjRISb6jRN0gvQdSkCtYkiRJGqSIuGLQ/BrYruPS46S9Rmae2XFd4QmIJEmSBiozfwf5iQKlRzC6d4G6wgAiSZKkAUuaQmtYrWtYhbiCJUmSpMGKiJ2C5gxgp45LX5y0V83MczquO/c8AZEkSdJgZeZ5AccXKL0djA4pUHfuGUAkSZI0aC3xvhJ1G9J7IAW4giVJkqRBi4gdg+YsYMeOS/8+aXfPzIs7rjvXPAGRJEnSoGXm+YWehnV5WDiwQN25ZgCRJEnS4CVNoTWs1nsgHXMFS5IkSYMXEbsEzZnADh2X/lmb4306rjnXPAGRJEnS4GXmHyA/XaD03hFxwwJ155YBRJIkSTMhaT5cpnJzrzJ155MBRJIkSTNi/BGg8/sFQR7cdc15ZgCRJEnSTMjMX0F8s/vKcfuI2Ln7uvPJACJJkqSZkeRHCpTdDkZ3KFB3LhlAJEmSNEPaEgGEhjyoRN15ZACRJEnSLPkGcFrXRRPu3nXNeWUAkSRJ0szIzAz4WIHS+0bEHgXqzh0DiCRJkmZKS5xQpvLINawOGEAkSZI0Y8afBha7ruo9kG4YQCRJkjRTMvMciK93XhfuHBHRdd15YwCRJEnSzAnykwXKXg24foG6c8UAIkmSpJnT0pYIIMDojmXqzg8DiCRJkmbRV4Bzuy7akAaQbWQAkSRJ0szJzEXIz3ZeF+7cdc15YwCRJEnSTEriUwXKXj0irlug7twwgEiSJGlGtZ8rU3d0hzJ154MBRJIkSbPq+8Bvui7qPZBtYwCRJEnSTMrMhPxi53Xhdl3XnCcGEEmSJM2sJEqsYe0TEbsXqDsXDCCSJEmaYUXugQSMbl2g7lwwgEiSJGmWfQc4p+uiDXmbrmvOCwOIJEmSZlZmtpBf6LyuAWSrGUAkSZI005L4cvdV41YRMeq+7uwzgEiSJGnGNV8pUHQXYN8CdWeeAUSSJEkzbvHrwLj7uiPXsLbCQu0BJEmS1L2IWICFuzS0hySxP+RVJh85I8hvtTQfhcXPZOZi3UnLy8w/NjH6PnDTLus25M27rDckEXFdaO4T5J0g9gJ2hvhtkD9viY/D+MOZedZGPzcz+51WkiRJRUUsPDjIfwWuv4Vf+qMknpm5+N4+5qppFKPXJhzVbdX4apuLc3UKEhH7NDTPTXgwm9+mOj/glS3tCzLzUk8hM4BIkiTNiIjYvqF5TcJj1vR58PaW9sjMvKDUbLVFLDw6yDd1XPbCpL18Zq7vuO5Uilg4OMh3AldYw6edkrT3zsyTln/COyCSJEkzICIWgjhureEDIOFhQRwfETuVmG06jEtcRN8BuGGBulMnYnRUkB9hbeEDYJ+gOTEi9lv+CQOIJEnSDGhoXgxx0NZXiDsFo4/OcAj5EXBu92VH+3dfc7oshQ9ew9Znh12D5kMRsRvbUESSJElTIiJukfDEba+UdwxGJ0TELttea7pkZkJ8u+u6DTnTASRi4YiAVwOxjaX2aWieDQYQSZKkwQviOWz7F4gTeUAwOm4WT0KC/FbXNZOY2SdhTdaujqajzJDwuIjY0wAiSZI0YBFxRYh7dFs17ziL61gt0XkAgbxZRHQU/qbHirWrLv+7bQ/NAwwgkiRJgzY6CBh1X3cWQ8j4mwWKXh7Ys0DdagqFj6Xa5MEGEEmSpEHL6xWsvXwnZOdyPXr1Q+D87suO9tvyrxmGiIXDO7rzsakO1zOASJIkDVgDVy7bIQ8IYibuhGTmGOL7BSrPRACJWHhskK+n7D3xqxlAJEmShu288i3iTkF8ZBZCSImL6A38Wdc1+zYJH6+l2MnHJf5oAJEkSRqwFn7VT6fZCCEtdH4CksSgT0B6DB8ApxlAJEmSBq39Qn+94k7DvxPS/KD7mrlvRAzy6+qlOx9Z5ML5RvvB5wf5D0qSJElLMvO7wM977DjwOyGLBQIIOwLXLlC3qIiFI3u483EpLc1xBhBJkqSBS/j3fjsOdx0rM88EftN95dG+3dcsZxI+XkdPJx+Trt+AxU8ZQCRJkgavfQNwUr89hxtCIEqsYRV8HHK3JuGjrzsfy9ok/jEz0wAiSZI0cJm5PmnvB5zTb+dh3gkJsvOw1sB1u65ZQsTCYZPw0WsOSHhm5vrP0HdjSZIklZGZP06aQynyor3Ndh7cnZAyT8LK63dds2sRC0f0fecDIOCN0L5g+ccGEEmSpBmRuf6/k+Ze9B5ChraO1Zzcfc2Y6hOQSfh4HRXCR0v72MzM5Z8zgEiSJM2QzPWfSdp7AH/st/OQ1rEWf1qg6F4RsUOButtssnZVI3wcMwkf7cqfN4BIkiTNmMz8QtL+Jb2HkDwgGH1sACHkl8AFHddsgOt0XHObTcJHjbWrY1raIzcMH/Q9iCRJkvphCNm0yRfF/9N95dFUPQlrGsMHfQ8jSZKk/iyFkOY+1LuYvmO/fdciC6xh5dTcA5m84bzKhfPNhQ/6HkiSJEn9qnwn5OPTehISROcBpIG9uq65NSYnH0czJXc+NmQAkSRJmnGuY11WC6d0XTPJa3Vdc62mde1qJQOIJEnSHHAda0PNT7qvGVVPQKZ57WolA4gkSdKccB1rpcWfFyhaLYBM+9rVpT5nxTtBJEmSNAci4sCgOR7oORDEF5PxwZnZcwDayCQR2wfNBUB0WTdpd87M87qsuSVDWLtayRMQSZKkOeOdEMjMi4AzC5Tes0DNTYpYeMyQwgcYQCRJkuZS5RBy/DSEEIhTu6+50NtF9En4eAMDCh9gAJEkSZpbFS+mHxjEh+tfTG9/0X3N7OUeyGTtanDhAwwgRUTEKCL+vPYckiRJW1LxYvqdg9EJNU9CgigRQK7Wfc1LG+La1UoGkI5FxKihOSZoToxYuG/teSRJkrak4jrWgTXXsVrofAWrgaIBZKhrVysZQDq0HD4SHglsF+S7DSGSJGkI5nMdq/sTkCx4AjIL4QMMIJ3ZIHwsM4RIkqTBmL91rPHp3ddsigSQWQkfYADpxCbCx7LlEHKf3geTJElaozlbxzqj+5Ldn4BUDB9v6jp8gAFkm20hfCzbLsj3GEIkSdIQzFEIKRBAuHqXxSIWHl0xfBzRdfgAA8g2WWX4WGYIkSRJgzEPISQzfw9c0HHZy0XE5bsoNAkfb2SGwgcYQLbaGsPHMkOIJEkajDm5mF7iFGSb17Aqho9jSoYPMIBsla0MH8sMIZIkaTBm/2J6nFmg6JW25ZMrn3x0fudjQwaQNYqIZhvCxzJDiCRJGozZXsdqC5yAjK64tZ85q2tXKxlA1qCj8LHMECJJkgaj8jrWh0qtY0WZE5DdtuaTIhYeNatrVysZQFZpRfh4VIdlDSGSJGkwKq5j3aXgOtbvui+Zaz4BiVh4yCyvXa1kAFmFQuFjmSFEkiQNxqytY7VwTpf1JtYUQCbh423AqMAsm+7b49rVSgaQLSgcPpYZQiRJ0mDMWAg5u8NaADRrWMGat/ABBpDN6il8LDOESJKkwZidEBKdBxBWGUDmMXyAAWSTeg4fywwhkiRpMGbjYnp0voKVq7gDErHwyCDfzpyFDzCAbFSl8LHMECJJkgZj+BfTFwucgDS7bO6jk5OPY5jhR+1ujgFkA5XDxzJDiCRJGoyBr2OVWMHaaVMfmNe1q5UMICtMSfhYZgiRJEmDMeB1rHM7HQeA3GggmqxdzXX4AAPIJaYsfCwzhEiSpMEY6DrWBZ2Ps5ETkBXv+Zjr8AEGEGBqw8cyQ4gkSRqMAa5jlTixuVQAmYSPY4GFAr02aRrDBxhApj18LFsOIfeuPYgkSdKWDCmEZOYicHHHg1zS3/BxWXMdQAYSPpZtF+R7DSGSJGkIhhRC6P4UZF1EbBex8GDDx2XNbQAZWPhYZgiRJEmDMaAQUmANqzl8cuHc8LGByMzaM/RuoOFjpYuTeGDm4odrDyJJkrQlEevuErTHAR28OHAt8tNJ3jszNxswmhj9GLheT0MVM4TwAXN4AjID4QM8CZEkSQNS8elYd13l07FKPAmrV0MJHzBnASQioqF59cDDxzJDiCRJGozK7wn54ObfExIX9jdP9wLePJTwAXMUQCbh4zUJR9WepUOGEEmSNBhTfBKy2Os4HZqEj8OHEj5gTgLIjIaPZYYQSZI0GFN6MX3c7yzdGGL4gDkIIDMePpYZQiRJ0mBUDiEfvWwIaQd3AjLU8AEzHkDmJHwsM4RIkqTBqBhC7rCREDKoADLk8AEzHEDmLHwsM4RIkqTBmKIQMpgAMvTwATMaQOY0fCwzhEiSpMGYkhAyiAAyC+EDZvBFhHMePlbyZYWSJGkwIuLAoDkeWO3by7vq/HloL4I4qN++azMr4QNmLICseM/H42rPMiUMIZIkaTDqvTF9us1S+IAZCiCTN5y/PuGw2rNMmYuSuH/m4kdrDyJJkrQl9U5CptOshQ+YkTsgk5OPV01/+IgTA97Zc9Ptg3y/d0IkSdIQ1LsTMn1mMXzADASQoa1dtbSPCHhXz229mC5JkgbDEDK74QMGHkCGFj6AUWaOW9qHG0IkSZI2bZ5DyCyHDxhwABlg+ABYADCESJIkbdk8hpBZDx8w0AAy0PAB5OiSvzOESJIkbdE8hZB5CB8wwAAy3PABwGjlDwwhkiRJWzYPIWRewgcMLIAMPHzABgEELgkhj4T8QM+zGEIkSdJgzHIICXhXS3vEPIQPGFAAWfGej6GGD5jcAdlQZq5P8sGVQsh7Ihb+sue+kiRJazaLIWQSPh6emePas/RlEAFkxXs+Dq89yzbaflMfqBhCtg/yA56ESJKkIZilEDKP4QMGEEAqnnyUeEX8jptt+KcQ8sECvTfHkxBJkjQYsxBC5jV8wJQHkMnJxysrnHyMEx5foO5mAwhcEkIeVCGELJ+E3KvnvpIkSWs25BAyz+EDIDJLfKN/261Yu/rrnluPk3gMjN8eNItAdFi7TdqFXMU/9IhYF8R7IO7bYf/VuDiJB2QuHtdzX0mSpDWLiAOD5nhg59qzrMa8hw+Y0hOQ2uEjc/HYyVMILuy4fsNm7oGsVPEkZLsg/68nIZIkaQiGdBJi+FgydQFkGsLHip8r8Rt5i2tYywwhkiRJWzaEEGL4+JOpCiCVw8dhG4QPgPMK9Fp1AAFDiCRJ0mpMcwgxfFza1ASQydOujq4UPh6dufjWjXysRADZaa2fsOLpWB8uMM/mLL+s8OCe+0qSJK3ZNIYQw8dlTUUAWfG0qyN6br188vG2jX84SgSQy2/NJ2XmxUk+oNLTsT7oSYgkSRqCaQohho+Nqx5ApmDtamMnHxNtgQCysNvWfqbrWJIkSVs2DSHE8LFpVQPIlK5drfT77lvnrtv02XXXsd7jOpYkSRqCmiHE8LF51QLI9K5d/UkQZxfov00BBC5Zx3pghZOQHVzHkiRJQ1EjhBg+tqxKAJnutatL+V33I+RWr2BdqspSCHkw5Ie6qLcGrmNJkqTB6DOEGD5Wp/cAMqDwQQudn4A0cIWuak1CyIMMIZIkSZvWRwgxfKxerwFkxdrV1IePiRIrWJ2cgCwzhEiSJG1ZyRBi+Fib3gLIJHy8LuFv+uo5sfyG87WGDyAKrGB1G0DgUiHkuK5rb8HkYvq6e/TcV5Ikac1KhBDDx9r1EkBWnHwc2Ue/FTb1hvNV6v4SepJX6bomXOo9IX2fhOwQtB/yJESSJA1BlyHE8LF1igeQFeGjxsnH1qxdrbBY4AQkrtp9zSWuY0mSJG1ZFyHE8LH1igaQYa5dXcpvO5nm0ooFELjU07E+UrLPRriOJUmSBmNbQojhY9sUCyDDXbu6lNM7qLGhK0bEdgXqXiIzL0ry/hVeVug6liRJGoytCSGGj21XJIBUXLtqt33t6k8y8zy6f1JCALt3XPMyVryssMYb013HkiRJg7CWEDIJH48wfGybzgPIrISPFc7ouB4UXsNaZgiRJEnastWEkBXhY7HH0WZSpwFkCsLHW7ovHQXWsEa9BBAwhEiSJK3G5kKI4aNbnQWQSfh4bcUL5wXCB0Bb4h7I1QvU3KQVT8f6aJ998WK6JEkakI2FEMNH9zoJICtOPh7bRb01aJM4vMDa1SWiyAlI7tl9zS10XLqYfqgX0yVJkjZtZQgxfJSxzQFkNteuVjQpcAekgd4DCLiOJUmStBqTEHK7ydOuDB8d26YAMgkfr6kUPgquXa0Uv+66YpJ7dV1z1b3/tI51fM+tl9ex/qLnvpIkSWuWmd/zaVdlbHUAWXHycVSXA61CqaddbUKcWqBmlROQZZN1rPtVWsf6cMTCIT33lSRJ0pTYqgAy62tXl7b4iwJFq52ALFuxjnVcz623C/J9hhBJkqT5tOYAMl/hA4D/LVBzx4i4UoG6azIJIQ8whEiSJKkvawogcxg+yMzzgd8WKF39FAQMIZIkSerXqgNI5QvnVcLHCgVOQUbX7r7m1llxMf1jPbfeLsj3ejFdkiRpfqwqgEzCxysqXjivGT6ALHAPJK/bfc2tl5kXJnnfCichXkyXJEmaI1sMICvCx9/2MdAKUxI+IIjOT0Aa2KfrmtvKdSxJkiSVttkAMgkfr57n8AHQFljBSvJ6Xdfswop1rBN6bu06liRJ0hzYZABZcfLxuD4HYsrCx5I4pUDNqTsBWTZZx7oP5Ed6bu06liRJ0ozbaABx7WpD458WKLpnROxQoG4nJich968QQrYL8v8aQiRJkmbTZQKI4WOjTgHGHddsgOt0XLNTFUPI9oYQSZKk2XSpADIJH6+qFD4On9LwQWZeBJzafeXRVN4DWWnFG9M/3nPr7Sd3Qu7ec19JkiQV1Fz6B82rEv665xmWw8ebe+67RllgDStv1H3N7q14RG/fIWSHoP1QxLqDeu4rSZKkQi4JIBGjf6oUPg6b/vABQXQeQBoYRACBS0LIvStdTH9fROzXc19JkiQV0ABErLtLwPN67j3Va1cbauEnXddMhvVF9Yp1rE/03HqXoHlfRGzfc19JkiR1rImICNoXs8q3ondkIGtXK0XnAQTyRhHR5z/3bbbiEb19h5AbQHNkzz0lSZLUsQYW/gK4eY89Bxg+AMYnFSi6E3CtAnWLWnEnpNcQEvCPERF99pQkSVK3mob2Pj32y4S/GV74AOB/gPO6Lzvat/ua5WXmBZM7IR/tse2ewM167CdJkqSONQkH9tRrcvIxfl1P/TqVmS3EyQUqD+oeyEqZedHkTsgn++va9PX7VZIkSQU0wNV76NMmcUTm4pt66FVMkD/oumYDN+66Zp8mJyH36SuENHCNPvpIkiSpjAbYuXCPmQgfAC10HkAS9u+6Zt96DiGlf79KkiSpoAY4s2D95Tsfgw8fS6LzAALcMCJ2LFC3V5MQcq/Sd0JaOL1kfUmSJJXVQBZ4vCww8DsfGzf+foGiI+AmBer2rp87Id2/EFKSJEn9aZI4vkDdmVm72sAvgD90X7YZ/BrWshXrWJ8qUH4M4x4vvEuSJKlrDbTvBS7usOashg8yMyG+3XXdZgbugay04hG9HYeQPCEzf9ttTUmSJPWpyf/f3p2HXVfX9R5/f9a+4QGUQVBwAkxCFE1wyAHJTElTwhnnnFLUcigTNdPSPB6HMmdFFDXQEjjmAIipiHEc0IxJEVPBA6ggMorIdO/1PX/cmyJkeIa91tp73+/XdT1XKPD9fryifD7377fWqjozcOCU5lXBny5i+bhGqBOmPbNInx+C7EUHJaSK+tspzZIkSdJAGoCW9m+A0zdw1uTkY3zAhseaXS05cfpT625JNp7+3GFNs4QE3lFV35xGLkmSJA2nAaiqC2vli+iXrOec8eTa1YemF21Wjad+AgKsYUEeRL+ua5WQDXh2o45pafefXipJkiQNpbnmD6rq1KL9bWBdv/b9iyKPWeRrV9dxGnD59Mc295v+zNkwKSGPCLx5Xf/ewMeK2qeqlrvIJkmSpH411/4XVfWDor1/4C3Ar27i720DBxft3auWj+gu4mxZ+Y1wvj3tuQ3cd9ozZ0lVLY9r/MoijwLW5nXG3yuy77jGT6uqDgqfJEmShpCquv4/kdwSRvs01EOL7Ai1LeQiaH9c5Fhoj6iqH/WcdyaMMjqg4HlTHvvDtsY7T3nmTErSwNLvNrR7F3UvyHZAID8LdUJLcxQsf7mqxkNnlSRJ0nTdYAHRDUuWnhtqWm8Ou0YV7bZVdf6U50qSJEkzo7npv0S/bvyNDoYGRgt9DUuSJEmygKyf7wC/mPbQhrKASJIkaaFZQNZDVbVQ35r6XGqPac+UJEmSZokFZD2FfL2DqfdfxA8SSpIkSdewgKynlhzfwdjNgHt3MFeSJEmaCRaQ9Tb+OtDBK8Sa353+TEmSJGk2WEDWU1VdAJw+7bmhLCCSJElaWBaQDRD4WgdT90iyNP25kiRJ0vAsIBugJf+3g7GbA/fsYK4kSZI0OAvIBhn/WzdzfQ5EkiRJi8kCsgGq6gfAT6c9N9Re054pSZIkzQILyAYKHNfB1Acm2XT6cyVJkqRhWUA2UAtdXMPaBJb27GCuJEmSNCgLyAZrOzgBgYb297uYK0mSJA3JArLhTgPOm/bQAguIJEmSFo4FZANVVQWO7WD0bkm262CuJEmSNBgLyBS05IsdjA2MfBuWJEmSFooFZCrGn+tiakM9vIu5kiRJ0lBSVUNnWAhNRt8Ddpny2AuLdruqWp7yXEmSJGkQnoBMSeDzHYzdGtijg7mSJEnSICwgU9KSL3Qxt6H5wy7mSpIkSUPwCtaUJLlZaC4A1kx59GltjXed8kxJkiRpEJ6ATElVXQY5voPRd0myUwdzJUmSpN5ZQKaoqKO7mdzs081cSZIkqV8WkKlqj+hiaqhHdjFXkiRJ6pvPgExZk9EPgN+c8thx0d62qs6b8lxJkiSpV56ATFngsx2MHcHoUR3MlSRJknplAZmyluaoLuaG9nFdzJUkSZL65BWsKUuycWjOBzaf8uiri/bWVXXhlOdKkiRJvfEEZMqq6iqoLr6KvhGMfBhdkiRJc80C0oGi6ehtWF7DkiRJ0nzzClYHkmwdmnOBjaY8+sqi3a6qLpnyXEmSJKkXnoB0YOU5jTq2g9FrYPTYDuZKkiRJvbCAdKRoPtHF3NA+pYu5kiRJUh+8gtWRJLcMzTnA0pRHt0W7Q1X9ZMpzJUmSpM55AtKRqjof6isdjG6g2beDuZIkSVLnLCAdKtLRNax4DUuSJElzyStYHUpyu9CcRQdFr2h3qarvT3uuJEmS1CVPQDq08pxGuriGRUPz1C7mSpIkSV2ygHSsqI93M5dnJPF/f5IkSZor/ga2c+2hwFUdDN4Rln6vg7mSJElSZywgHZt8lPALXcxuaJ/VxVxJkiSpKxaQHhTNP3czl8cluUUXsyVJkqQuWEB6Mf4U8MsOBm8CzRM7mCtJkiR1wgLSg6q6LHBEF7NDvIYlSZKkuWEB6UlLPtrN5LpPkt/qZrYkSZI0XRaQ3ow/D/y0i8kNzfO6mCtJkiRNmwWkJ1W1HOjkFKTg6Uk272K2JEmSNE0WkB61tAcB1cHozWH05A7mSpIkSVNlAelRVX0f8o0uZsfQldMAACAASURBVIf6ky7mSpIkSdNkAelZwYc7Gr1bkvt1NFuSJEmaCgtI78YfB37VxeSG5gVdzJUkSZKmxQLSs6r6ReBfOpkNT0hyyy5mS5IkSdNgARlAS/uBjkZvgq/klSRJ0gxLVRcvZdJNaTL6NnC3Dkb/tGh/o6qu6mC2JEmStEE8ARlIwYEdjb4tjPbtaLYkSZK0QTwBGUiSLUPzE+BmHUz/j7aW7z39uZIkSdKG8QRkIFV1SeDjHU2/V5I9u5ktSZIkrT8LyIBa2vd3NTvkJV3NliRJktaXV7AG1mTp36G6uC41Ltqdq+pHHcyWJEmS1osnIAMreE9Ho0cNzV90NFuSJElaL56ADCzJmtCcCWzXwfgrJq/kPbeD2ZIkSdI68wRkYFV1ZaCrZ0E2aWhe2NFsSZIkaZ15AjIDkmwbmrOANR2Mv6Rod6yqSzqYLUmSJK0TT0BmQFWdFziso/FbQrNfR7MlSZKkdeIJyIxIcs/Q/EdH48+dPAtyRUfzJUmSpLXiCciMqKoTIF/paPytoXlmR7MlSZKktWYBmSEFb+tqduAvk2zc1XxJkiRpbVhAZsr4U8BpHQ3fAUbP7Gi2JEmStFYsIDOkqtoiHZ6C1F95CiJJkqQhWUBmzvhg4KcdDd8BRs/oaLYkSZJ0kywgM6aqrix4V1fzQ73aUxBJkiQNxQIyk9r3Ab/oaLinIJIkSRqMBWQGVdUlgfd3NT/U3yTZtKv5kiRJ0g2xgMyolvbtQFcfDrwdNC/oaLYkSZJ0gywgM6qqfho4qKv5k++CbNHVfEmSJOn6WEBmWEv7ZuDKjsbfEpqXdjRbkiRJul4WkBlWVWcHPtLV/MBfJNmuq/mSJEnSdVlAZlxL+7+Bqzoaf/OG5pUdzZYkSZJ+jQVkxlXVWYGDO5sPL0hyh67mS5IkSddmAZkDLe0bgeWOxq9paN7Y0WxJkiTpf7CAzIGqOqPjU5AnJrlfV/MlSZKka6Sqhs6gtZBkx9D8J7Cmow3HF+M9yn8gJEmS1CFPQOZEVZ0ZOLDDDfeD0b7dzZckSZI8AZkrSW4VmjOAm3e04kdFu2tVdfUFdkmSJK1ynoDMkar6eeDdHa74DWhe1OF8SZIkrXKegMyZJFtNTkFu0dGKS4v2zlX1047mS5IkaRXzBGTOVNXFBf/Q4YrNfS2vJEmSuuIJyBxKcvPQ/AC4dUcrqmh/p6q+2tF8SZIkrVKegMyhqvplkb/pcEVC864kow53SJIkaRWygMyt8UHAdzpccA9o9utwviRJklYhr2DNsWTpEaGO6nDFRUV7p6o6v8MdkiRJWkU8AZljVcufhTqmwxW3aGj+d4fzJUmStMp4AjLnkuwWmhPorkxW0T6wqr7S0XxJkiStIp6AzLmqOjlwSIcrEpoPJlnT4Q5JkiStEhaQBdDS/hXwyw5X7ALNyzqcL0mSpFXCArIAquonBZ1+PDDwmiS7dLlDkiRJi89nQBZEko1D823gTt1tqS8X9eDyHxpJkiStJ09AFkRVXVVk/2635EEwemq3OyRJkrTIPAFZME2az0Ie3uGKC4r2rlX1sw53SJIkaUF5ArJginoJcGWHK7YJObDD+ZIkSVpgFpAFU1U/CLy72y15ZLK0b7c7JEmStIi8grWAkmwemtOA23W45vzJVazzOtwhSZKkBeMJyAKqqkuL/HnHa27Z0Lyj4x2SJElaMJ6ALLAeHkinyGOqlj/V5Q5JkiQtDgvIAkuyY2hOBW7W4ZqfF+3dq+rcDndIkiRpQXgFa4FV1ZldfyEduFXI+zveIUmSpAXhCciCm3wh/URg1y73FHlO1fJBXe6QJEnS/LOArAJJHhiaLwPpcM2lRbt7VZ3R4Q5JkiTNOa9grQJVdVyg62tSm4fRIUlGHe+RJEnSHLOArBIt7SuAs7vdUntAs3+3OyRJkjTPvIK1iiRLDw/12Y7XXF20v1tVX+94jyRJkuaQJyCrSNXy0YGPdbxmo9B8NMmWHe+RJEnSHPIEZJVJss3k2yDbdboHDh/X+Ald7pAkSdL88QRklamqC4q8pPM9sG+y9Kyu90iSJGm+eAKySo0yOqxg347XXFa0v11Vp3W8R5IkSXPCArJKJbllaL5Dx1exgJOL9n5VdUXHeyRJkjQHvIK1SlXV+UWe28Oq3Rqad/SwR5IkSXPAArKKVS0fEfhw53tgv2TpmV3vkSRJ0uzzCtYql2SL0JwC7NjxqiuKdo+qOrHjPZIkSZphnoCsclX1i6J9GtB2vGqT0Bzq90EkSZJWNwuIqKqvBPp4TmPnhuYDPeyRJEnSjPIKlgBIsiY0xwO7d72r4M+rxm/veo8kSZJmjwVE/yXJXULzLWCzjlctF81Dq64+tuM9kiRJmjFewdJ/qarTCl7aw6ql0P6fJHfsYZckSZJmiCcg+jWjjA4teEIPq04u2gdU1WU97JIkSdIMsIDo1yS5RWhOAnboflv9S1GPL/9BlCRJWhW8gqVfU1UXFc0zgXH32/JYaF7e/R5JkiTNAguIrlfV1ccWvL6PXYE3JEuP6GOXJEmShuUVLN2gJE3I0ZCH9rDu0qLds6pO6WGXJEmSBmIB0Y1Ksm1oTgBu18O6M4v2vlX1sx52SZIkaQBewdKNqqrzivYpwHIP63YMoyOTdP0dEkmSJA3EAqKbVFXHFfx1T9vuHfKPSdLPPkmSJPXJAqK11L4Z6rP97MrjG5rX9bNLkiRJffIZEK21JFuH5t+BPr5gXkWeXbX8kR52SZIkqScWEK2TJHcPzdeAm/Ww7uqieWTV1Z/rYZckSZJ64BUsrZOqOqXIc3tat1FoP5Hkfj3tkyRJUscsIFpnVcv/HHh7T+s2C81nkuzc0z5JkiR1yCtYWi9JlkI+D/m9nlaeXrR7VNV5Pe2TJElSBywgWm+TjxR+C9i+p43HF+O9quqyfvZJkiRp2ryCpfU2+Ujho4CeCkHdL+TTSdb0s0+SJEnTZgHRBqmqE4s8HejpKC0PCfl4kqV+9kmSJGmaLCDaYFXL/1LQ44cD8+iG5oN+LV2SJGn++AyIpiJJGpqPFTy5t53wznGNX9LXPkmSJG04C4imJsmmYfRlqPv0tbPgVVXjN/a1T5IkSRvGAqKpSnK70HwTuG1fOwteUjV+Z1/7JEmStP58BkRTVVU/Kdp9gF/2tTPw9mT0J33tkyRJ0vrzBESdSJYeEerTQF9vq6oiz61aPqinfZIk9SbJxrD0oIZ276J+E5ptgctDndPCcdAeUVVnDZ1TWhsWEHUmGT0vcECPK9siz6paPrjHnZIkdWbltfOjZ4X6a+D2N/KXtoGPtbSvqaoz+8onrQ8LiDo1yuhNBa/oceW4yDOqlj/W405JkqYuydYhh0L2Woe/7dIiT6laPrKzYNIGsoCoU5PX8/5TwZN6XLtc5GlVy4f2uFOSpKlJsmNovgDsvB5/+7jIk6uWD592LmkaLCDqXJI1YfR5qAf2uHY8uY51SI87JUnaYEnuGJovATtuwJhfFe2eVXXitHJJ02IBUS+SbBGaLwP36HFtFbywavzeHndKkrTektwpNMdw4897rK2Ti/aeVdVOYZY0Nb6GV72oql8U7d7Aj3pcm8C7k9Hze9wpSdJ6SbLr5Id10ygfALvB6LFTmiVNjQVEvamqc4r294Fze1ybwHuT0Z/1uFOSpHWS5C6h+SJwm6nOpX36NOdJ0+AVLPUuyT1DcyywRZ97C15RNX5LnzslSbopSe4Vmn8Ftulg/K+KduuqurKD2dJ68QREvauqE4r2UcAVfe4NvHmU0ZuSpM+9kiTdkCQPnDzz0UX5ANgM2L6j2dJ6sYBoEFX15SJPAZZ73QuvaGgOSDLqc68kSdeVLO0Tms8BW3a8aqrXuqQNZQHRYKqWP1nkWUCvb+co2C/k/yRZ0+deSZKukSw9JdQngE17WPfLHnZIa80CokFVLX+0yPOBnh9GyqNDPpVks373SpJWu2T0olCHABv1tLLPl79IN8kCosFVLX+g4KX9b84fhNHnk2zd/25J0mqUjP4m8E76+z3Y6VV1Tk+7pLViAdFMqBq/veCvBtj8gNB8JcmGfG1WkqQblWQ0yuiAwGt73QtH9LlPWhu+hlczZZTRGwpeNcDqc4t276o6YYDdkqQFlmSzkI9D9ul59dVFe+eqOqPnvdKN8gREM2Vc478K/P0Aq28dmmOTjfYaYLckaUEl2TaMjh2gfBB4t+VDs8gTEM2kUUb/a5grWSwXeUHV8gcH2C1JWiBJ7hiao4E7DbD968X49/wAoWaRJyCaSeMavzowxFfLl0IdmIyGKD+SpAWR5L6hOZ5BygenFePHWD40qzwB0UwbZfT6glcPsTtwaEv7zKrq9YvtkqT5liw9LtTBrHyFvG+nFe1DfPOVZpknIJpp4xq/JvC/hthd8MQwOibJtkPslyTNn2T0klCHMUz5OKloH2j50KzzBERzYcBnQgBOL9p9quq0gfZLkmZckjUNzUEFTx0owb8X44dV1UXD7JfWngVEcyMZvSLwpoHWX1rkyVXLRw20X5I0o5JsE0b/AvXAgRJ8a1I+Lhxmv7RuvIKluVE1fnPBi4AhWvPmoT6VjF48wG5J0oxKcrfQfGvA8nFcMX6w5UPzxBMQzZ1k6amhPgIsDbIfPtbSPreqLh9ivyRpNiRL+4Q6BNhymAR1TFGPrqpfDrNfWj+egGjuVC1/rMjjgUFeL1jw1NB8NcmOQ+yXJA0rSVauBdenGK58fKqovS0fmkeegGhuJUt7hzoc2HSgCOcW7eOr6qsD7Zck9SzJViEfgzxisAzw/pb2T6qqHSqDtCE8AdHcqlo+qmgfBlw8UIRbh+ZLyeh5A+2XJPUoyV1D882By8cbW9oXWD40zzwB0dxL8luh+Rxw28EywD9Ofhr1q6EySJK6kyw9PtSHgZsPFKEKXl41/vuB9ktTYwHRQkhyh0kJ2WXAGKcU7b5V9f0BM0iSpijJxg3NWwpeMmCM5SLPq1r+0IAZpKmxgGhhJNk6jI6A2mPAGJcWeU7V8mEDZpAkTUGS24fRoQP/98plRZ5UtXzkgBmkqfIZEC2MqrqwGD8U6ugBY2we6tBRRu9PsvGAOSRJGyDZ6MGT73sMWT4uKNqHWj60aCwgWihVdVlRjwp8ZNAcsF8YfTnJHYbMIUlaN0lGo4xeH9ovANsNGOX7RXufqvragBmkTngFSwsrGb0m8DogA8a4uMh+VcuHD5hBkrQWktwu5KOQBw2c5PhivE9VnT9sDqkbFhAttGRp31AHA5sMmgMOmbw28bIhc0iSrl+y9KhQBwHbDJukPl3UU3yrohaZV7C00KqWDy/ahwCD/hSp4I9C860kuw+ZQ5L0PyXZZJTRO0J9koHLR+DAoh5v+dCi8wREq0KSO4fmKOCOA0e5ouBl0L63/D8+SRrU5DtS/wzcdeAoVxd5YdXygQPnkHphAdGqkWTbMPoE1J5DZ4H6XFF/XFU/HTqJJK02SQLNnwb+joGv6AIXFc2+VVcfM3AOqTdewdKqUVXnFeOHBGbgQ075g9Ccmiw9begkkrSaJLl1yGcC72L48nF60T7A8qHVxhMQrUrJ0n6h3gMsDZ4FDm9pn19VFw6dRZIW2eTFJO9j8AfNAfLVYvyYqvr50EmkvnkColWpavnAovlD4OLBs8C+oTkp2eghQ2eRpEWUZJtRRoeFOowZKB+B9xfjB1s+tFp5AqJVLckuofkMcKehswAVOKClfUVVXTp0GElaBMnSI0J9ELjN0FmAK4u8qGr5A0MHkYZkAdGql2SrkEMgfzh0lokzi+Z5VVf/69BBJGleJdm6ofmHgmcMnWXip0X7+Kr6+tBBpKF5BUurXlVdXNQjC14JtEPnAXYM7edGGR2WZOuhw0jSvEmW9gnNKbNTPvK1or235UNa4QmIdC2To/qPArcYOsvET4o8v2r5yKGDSNKsS3KbkPdAHjN0lmsE3t/Svriqrho6izQrLCDSdSTZKTSfAHYbOss1Aoe1tH9WVecMnUWSZs3Kdz1Gzwz1VmbnB0hXTD4ueNDQQaRZYwGRrkeSzRqa9xfM0nc6Lil4FbQHVNUsXBWTpMGtvEwk74P83tBZruWHRbtvVZ00dBBpFllApBuRLD198s74zYbOci0nFO3zqupbQweRpKEk2QSaV2bl+b01Q+f5b/Xpop5ZVYO/5l2aVRYQ6SYk2S00hzEbr+q9xnLgbS3t66rqsqHDSFKfko0eFtr3ADsNneVari54ObTvKH9zJd0oC4i0FpJs3tAcUPCUobNcx9lFXla1fNjQQSSpa0lu09C8reCJQ2e5jrOL9om+5UpaO76GV1oLVXXpuMZPLbIfcPnQea5l+1CHNmm+lORuQ4eRpC4k2TgZvTw0/zl75aOOKNp7Wj6ktecJiLSOktw9NB8H7jJ0lutYDrynpX2td48lLYpkae9QbwN2HjrLdVxRsD+07/HKlbRuLCDSepi8JeutBc8fOsv1OK/Iq2D8Yd+WJWleJblTyNsgjxg6y/X4btE+uapOGTqINI8sINIGSJYeGeqDwK2GznI9Tiqal1VdfczQQSRpbSXZsqF5dcGLgY2HznNdkw8L/nlVzdJ1XGmuWECkDZRk25APQfYeOsv1qy8W9dKq+vbQSSTphiTZCEbPCvW3wHZD57kelxR5XtXyoUMHkeadBUSagslXeJ87uac8S98MucZy4EMt7V9X1c+GDiNJ15Ys7TP5ivmsPecxUV8o6tlV9eOhk0iLwAIiTVGS3wrNPwL3GDrLDbik4C2T99T7/RBJg0py/zD6e6g9hs5yAy6bfNvjfT5oLk2PBUSasiQbNTSvKfhLYGnoPDfg3II3QHtgVV01dBhJq0uSu4S8HvJYIEPnuX45vhg/vap+MHQSadFYQKSOTF7XezCw29BZbsRZRd4A44Oqajx0GEmLLcmODc2rCp7N7P6AZjnw1pb2NVV19dBhpEVkAZE6lGSThub1BS9ltj/8eWqRV8P4014zkDRtSW4/ebPVs4GNhs5zI04p2mdW1YlDB5EWmQVE6kGSB4TmIGCXobPchBOL/K1FRNI0JNmuoXnl5JtJmwyd50ZcObmW+iZPPaTuWUCknqy8YrJ5aeBvmcF321/Hd4r8HYw/6scMJa2rJNs2NC8teBGz+WbAa8nxxfg5VXXq0Emk1cICIvVs5U1Zow9C3WfoLGvBIiJprSXZoaH5i4LnApsOnecmXF7wOmj/3mfgpH5ZQKQBJBlB8+eB1zHzPx0EVorIW2D8ca8nSLquJHecXLV6BrN/wgvUMUXtV1VnDJ1EWo0sINKAkuwUcgBkr6GzrKUzC94K7UFV9auhw0gaVpLdG5qXFTyR2X2r1bWdV2R/GB/ic27ScCwg0gyYfAX4PcD2Q2dZS+cXvAfad1XVBUOHkdSvJHuGvAKyNzP7HY//oQIfbWlfWlXnDx1GWu0sINKMSLLF5JW9fwqMhs6zln4Z+HBL+86q+uHQYSR1J8kSjJ4Qan9g96HzrINTivb5VfX1oYNIWmEBkWZMknuE0fug7jt0lnXQQh1ZjN5edfWxQ4eRND1JtobmjwMvBHYYOs86+GXBa6F9R1UtDx1G0n+zgEgzKEkDzXMDbwC2GTrPOjq5yDtg/E9VdeXQYSStnyR3a2heVPA05uNlGdeowGEt7f5VdfbQYST9OguINMOSbN3QvG7yEa95eMDz2s4LfLClPbCqzhw6jKSbtvLDj9E+oX0x5MFD51kPJxXtS6rquKGDSLphFhBpDiS5W8jbIQ8ZOst6aKE+WzQHwPhovycizZ4kt4HmWYHnAL8xdJ71cEHBq6H9gN/0kGafBUSaI5O3Zb0N2GnoLOvpJ5M30by7qn48dBhpNVs57Vh6cEO7X8GjgY2GzrQelgMfamn/yrdbSfPDAiLNmSSbTD5i+Epgi6HzrKerVh5abz4M48/5gKjUnyS3hebZgT8G7jB0nvVXRxe1f1WdOnQSSevGAiLNqSTbNDT7F/wZsGboPBvgnMDh7crHDU8ZOoy0iJKsgdFDG+qP5vi04xqnFnlF1fJRQweRtH4sINKcS7JzyBshj2U+Pgh2I/K1go/A+PCqunjoNNK8S7JHQ/OMgicAWw2dZwOdXeTVMP6oz5JJ880CIi2IJPcPo7+DesDQWabgysmD6x+D8VFVdcXQgaR5keQ3oXlS4OnAzkPnmYJLCt40+Z7H5UOHkbThLCDSgkmWHh3q9cDdhs4yJZcEPtnS/BMsf8k33Ei/Lsn20Dwh5ElQ9x46z5T8KvDelvbNPmAuLRYLiLSAJu/yf1Ko17IYPwG9xrmBT7Q0n4Dl4ywjWs2SbAfN4yelYw+gGTrTlFwV+EBL+4aqOmfoMJKmzwIiLbBJEXlcqDcyv6/uvSEXBo5qyeEw/tequmroQFLXkuwAoz8I7T6QhzHfD5NfV7vyA4b2L6vq9KHDSOqOBURaBZJsDM1zA68Cbjt0ng5cGPhMSz4F4y9W1WVDB5KmJcldoXlM4DHAPYfO04E2cGhL+9qq+v7QYSR1zwIirSKTb4g8J/ByYPuh83TkCqhjixwJ7ZFVddbQgaR1sfLK3KXfaWgfXrAPi3WN8tqWAx+fXLX63tBhJPXHAiKtQisnIqNnhnol8BtD5+nYKYEjW9qjgG/60UPNopWHyEcPD+3DIXsBNx86U4euDhzS0r6xqn44dBhJ/bOASKtYko1g9NRQfwncaeg8PbgE6ktFvgDtF/zNj4aS5GaTU46HFDwM+K2hM/XgysCHJ2+1+n9Dh5E0HAuIJJKMYPSEUPsD9xg6T49+FPhCS74A43+rqp8PHUiLKckScB9o9gp5CNT9gI2HztWTSydvtXpbVf146DCShmcBkfQ/JBvtFcb7Qx46dJaeFfDdwHEtOW5SSHwFqNbLynMc/DY0e4baE/JAYPOhc/XsnIJ3QntAVV08dBhJs8MCIul6Jdm9oXlZwRNYrFd9rosfTArJ/4XxN4D/LP+fpq5Hki1h9ICG2rPI70w+BrjJ0LkGclqRt8L4o1V15dBhJM0eC4ikG5Vkh4bmzwqeDWw5dJ6BXQx1fJFvQL4B4+Or6qKhQ6lfK89OsRs092ngPgX3AXZhcT4EuJ7ybwX/AOMjq6odOo2k2WUBkbRWkmwOzTMCL2TlN1taubb1/cAJLZwEzQmwfFJVnT90ME3HpGzsCqPdGuqeRe4DdQ9W7+nGdV0e+KeW9l1VdfLQYSTNBwuIpHWSJLD0sDB+8eRLzKv8p77X62yoE4ucCPk2jL8DnO4rgGdbklvC0m7Q7tbAbgV3B3Zl9Twsvi7OLngvtB+0cEtaVxYQSestyZ0amhcWPB2vZ92Uq4DvBU5r4VTId2H8XVaKyVVDh1stVgo0O8DSLtDu2sBditwZalfglkPnm305ruDdMP6khVrS+rKASNpgK980GD0xsB/UfYfOM2fGwFlQp4f8sIUfQk6H8Q+BH1bVFUMHnDeTa1M7wNJO0N6xgZ2KuiNkJ2AnFvsjf124MHBwS3tgVZ02dBhJ888CImmqJm/P2q/gqcAWQ+dZAOcBP4Y6O+TMFs6GnA3js4GzgZ+vppKSpAG2A7aH0e2gtm/g9sDtiuwAdXtW/vXSoEEXQo4rOBDGn1hN/4xJ6p4FRFInJqciTw788eSja+rOL4BzID+H9ryQc1r4OXAB5CLgYhhfvPI/uQi4uKp+NWRggCSbAluxcn1vK1jaCmpLqK2BWzUrV6K2LWo7yK2Aa35luNQL7+eBQ1raD1TV94YOI2kxWUAkdS7JnRuaZxQ8jZWfTmt4VwGXTX5dBVwCWYb2EuCqkMsmf12xUlyu7Zp/bwtgdJ0/txmwZuUvqskfN5sDS1BbTf76LYGb4cPds+IqqKOK5h9h/NmqunroQJIWmwVEUm8m12f2aGj+aHJF62ZDZ5JWse8WHAzth6vqvKHDSFo9LCCSBjH5cvS+oX0y5Hf59Z+kS5q+swIfb2kPrqpThw4jaXWygEgaXJJtYPS4wNOh9sA7/tI0XRD4REt7CPDV8r/4JQ3MAiJppiTZHprHhuwL9YCh80hz6qLAkS05HMZH+80OSbPEAiJpZiXZeVJGHgv123gyIt2YcwOfbmk+Cctf8mFySbPKAiJpLiS5FYweHtp9IQ8DNho6kzQD/l/gMy3NEbD8ZU86JM0DC4ikuZPkljB6ZGj3hvw+sPnQmaSetJBvFXUktJ+qqm8PHUiS1pUFRNJcSzIC7t/Q/GGRvaDuNXQmacouDBzTki/C+Miq+unQgSRpQ1hAJC2UJL8Jzd6hHgZ5IH5rRPOnBU4OHN3SHg18varGQ4eSpGmxgEhaWEmWgN2g2SvUXpPvjfjsiGbRGYGvtuQrnnJIWnQWEEmrRpKtYPSghtqr4EHArvhmLQ3j3MCXW3IMjI+pqh8NHUiS+mIBkbRqJdkclu7b0O5VZE+oewNrhs6lhXRO4CuT5zi+CnzXDwJKWq0sIJI0keTmsHS/hvZ3irov5L7AVkPn0ty5CnJSqK9PrlR9parOHTqUJM0KC4gk3Ygkt4XRAxpqzyL38pRE12NyusFXof0P4D+q6vKhQ0nSrLKASNI6SLIpcA9odm9g9yK7Q90N2HTobOrcMvD9wMktnAzNibD8zaq6eOhgkjRPLCCStIEmb9vaBUa7NdTuRe0OuTOw/dDZtN4ugJwa6uSWnALjk4DvVNUVQweTpHlnAZGkjiTZAtgZRneEumsDuxbcFdgFGA0cTysugnw31KktfBeaU2H5jKo6Y+hgkrSoLCCS1LMkmwB3hNFOUDs1sFNRO0F2Au4AbDxswoWyDJwNdXrIGS2cDjkDxmcAP6yqXwwdUJJWGwuIJM2QJCPg9sD2MNoB6vYN3L6oHSG3n/y5bYdNOVPOB34CdXbI2S38BHL2yq/ls4CzqurqoUNKkv6bBUSS5szkBOVWwHYw2m7lj2vbBm4N3KqoW0GzDdRWwJasvEp4Hr4AvwxcAlwMOYT6CAAAAnlJREFUuRjaC0LOA85v4TzIucD5MP458DPgXN82JUnzxwIiSatAkpuxUkQmv5Y2nRSUJWALqDXAZg3cjJUrYFsCzXXGbMb1v4L4cuC6D2dfBVzW/vefuwxyFfALYAy5CJYvBy6e/Lqkqn45jf+skqTZZgGRJEmS1Jvr/nRLkiRJkjpjAZEkSZLUGwuIJEmSpN5YQCRJkiT1xgIiSZIkqTcWEEmSJEm9sYBIkiRJ6o0FRJIkSVJvLCCSJEmSemMBkSRJktQbC4gkSZKk3lhAJEmSJPXGAiJJkiSpNxYQSZIkSb2xgEiSJEnqjQVEkiRJUm8sIJIkSZJ6YwGRJEmS1BsLiCRJkqTeWEAkSZIk9cYCIkmSJKk3FhBJkiRJvbGASJIkSeqNBUSSJElSbywgkiRJknpjAZEkSZLUGwuIJEmSpN5YQCRJkiT1xgIiSZIkqTcWEEmSJEm9sYBIkiRJ6o0FRJIkSVJvLCCSJEmSemMBkSRJktQbC4gkSZKk3lhAJEmSJPXGAiJJkiSpNxYQSZIkSb2xgEiSJEnqjQVEkiRJUm8sIJIkSZJ6YwGRJEmS1BsLiCRJkqTeWEAkSZIk9cYCIkmSJKk3FhBJkiRJvbGASJIkSeqNBUSSJElSbywgkiRJknpjAZEkSZLUGwuIJEmSpN5YQCRJkiT1xgIiSZIkqTcWEEmSJEm9sYBIkiRJ6o0FRJIkSVJvLCCSJEmSemMBkSRJktQbC4gkSZKk3lhAJEmSJPXGAiJJkiSpNxYQSZIkSb2xgEiSJEnqjQVEkiRJUm8sIJIkSZJ6YwGRJEmS1BsLiCRJkqTeWEAkSZIk9cYCIkmSJKk3/x+o37mtqZmNWgAAAABJRU5ErkJggg==;" parent="1" vertex="1">
                    <mxGeometry x="150" y="130" width="100" height="70" as="geometry"/>
                </mxCell>
                <mxCell id="105" value="" style="shape=image;verticalLabelPosition=bottom;labelBackgroundColor=default;verticalAlign=top;imageAspect=0;image=data:image/png,iVBORw0KGgoAAAANSUhEUgAAAyAAAAMgCAYAAADbcAZoAAAACXBIWXMAAA7DAAAOwwHHb6hkAAAAGXRFWHRTb2Z0d2FyZQB3d3cuaW5rc2NhcGUub3Jnm+48GgAAIABJREFUeJzs3XecbWV1//HP2mcuIEVBxQqoYIVY0NjBjpGIDWvsUsQkGk3UaH6xxKhRozHGLioW7P6sKGKNDevProgFY0SUogIq9c7Z6/fHnMHhcsvMvfvZz9nnfN6vFy+5d+6stcTrZb7zrGfvyEwkSZIkqQ9N7QEkSZIkzQ8DiCRJkqTeGEAkSZIk9cYAIkmSJKk3BhBJkiRJvTGASJIkSeqNAUSSJElSbwwgkiRJknpjAJEkSZLUGwOIJEmSpN4YQCRJkiT1xgAiSZIkqTcGEEmSJEm9MYBIkiRJ6o0BRJIkSVJvDCCSJEmSemMAkSRJktQbA4gkSZKk3hhAJEmSJPXGACJJkiSpNwYQSZIkSb0xgEiSJEnqjQFEkiRJUm8MIJIkSZJ6YwCRJEmS1BsDiCRJkqTeGEAkSZIk9cYAIkmSJKk3BhBJkiRJvTGASJIkSeqNAUSSJElSbwwgkiRJknpjAJEkSZLUGwOIJEmSpN4YQCRJkiT1xgAiSZIkqTcGEEmSJEm9MYBIkiRJ6o0BRJIkSVJvDCCSJEmSemMAkSRJktQbA4gkSZKk3hhAJEmSJPXGACJJkiSpNwYQSZIkSb0xgEiSJEnqjQFEkiRJUm8MIJIkSZJ6YwCRJEmS1BsDiCRJkqTeGEAkSZIk9cYAIkmSJKk3BhBJkiRJvTGASJIkSeqNAUSSJElSbwwgkiRJknpjAJEkSZLUGwOIJEmSpN4YQCRJkiT1xgAiSZIkqTcGEEmSJEm9MYBIkiRJ6o0BRJIkSVJvDCCSJEmSemMAkSRJktQbA4gkSZKk3hhAJEmSJPXGACJJkiSpNwYQSZIkSb1ZqD2AJKkfEXEF4ArArkv/ubAT5C7A9sCOkDsC2zewM7Bu8ms3/EbV8sc2NAZ+v5GfPwdYbJc+dhHE+cB5wMUQ58LiBZNfcy5wTmZurIYkaYZEZtaeQZK0RhGxE3BN4Mow2h24KuRVG7gysHuSV4PYjT8Fjt0qjrsWLUth5GzgHMhzgjgdOKuFsyB+DZwJ47OAXwNnZeYFFeeVJK2RAUSSpkxE7ADsDQt7QV4Tcs8G9kjymhB7AnuwFCy05DfAaZC/COLUFk6DOBXGvwB+CfwiM9dXnlGSNGEAkaQKIuKKwHVhtA/kPg3sncQ+kPsA1wCi8oizZBH4BeQpQZzSwikQp8D4FOCUzDyv9oCSNE8MIJJUUETsBuwHo30bcr8k94XYG9i79my6xNkQJwX5gxZOguYHsPi9zDyj9mCSNIsMIJLUgYjYGbgJNDdt4GZJ3AzyRsAutWfTVjsd8gdBfKclvg3jbwM/zMzF2oNJ0pAZQCRpjSLiyjC6FeT+Ddw04WbAPvho83lwEcT3g/xWC9+G9tvAN70IL0mrZwCRpM2IiHUsnWwc0MAtEm4B3AjvaOhPFoEfB3yjhW9A+0XgW5nZ1h5MkqaRAUSSVoiIvWB0YEMekHBbYD98Z5LW7veQXw/iyy3NF2HxS5n5h9pDSdI0MIBImmsRsTeMDmjI2yfcDS+Hq4wx8KOAL7bEp2D82cw8q/ZQklSDAUTSXImIG0Fz1yDvCnEH4Iq1Z9JcSuCHAZ+bBJL/zsyzaw8lSX0wgEiaaRFxVRjdoSHvlnAPYK/aM0kb0UJ8K8hPtTSfgsUvZuaFtYeSpBIMIJJmSkRsDwt3aGj/MuFg4Aa1Z5K2wvmQX0ziBGg/mpk/rj2QJHXFACJp8CLiKjC6R0MeknB34Aq1Z5I69rOAT7XER2D8icy8qPZAkrS1DCCSBiciArhFQ3O/hHsCN609k9SjP0J+Mmk+CuMPe5ld0tAYQCQNQkSMgNs2NIck3B+4bu2ZpCnQQnw5yeOgfX9m/qT2QJK0JQYQSVMrIi4Ho7s35P0SDgGuVHsmaYolxDeSfD+0H8jMk2sPJEkbYwCRNFVWnHQ8IuEhwOVrzyQN1EkJ74X27Z6MSJomBhBJ1UVEA9yuoXngJHRcpfZM0ow5KeGt0B6bmb+qPYyk+WYAkVRNRNyioXlkwoOAq9WeR5oDLeTnkuYdMH5vZp5beyBJ88cAIqlXEXF1aB4U8Chg/9rzSHPsooAPt8SxMP5YZi7WHkjSfDCASCpucpn8PkH7SIi7A6PaMwmA8yZ//RG4EOKCpR+3FwO/D2IMnA9s7J0T5wItsADsspGPXx4YJTn5eLMDcDnInYF1wK7ADsCOHf930tY5LeDYlvYtXl6XVJoBRFIxEXGzhuaxCQ/FlwOWtB74DXAW5K+DOAs4q4UzWPr7cyDOhcVzlv6ec4FzM3N9xZkBiIjtWAojk78WdoXcFXI34MrN0n2g3ZO4BuTuLP34yhVHngPx1YQ3wPhdmfnH2tNImj0GEEmdioidYPSQgMdC3qr2PDPgIuDnkKcF8Uvg1BZOg/gljE8FfpWZZ9YdsV8RsQ7YHdgDRntA7tnAXsAeSewBeS2W7hR50rZtfh/w9pb26Mz8du1hJM0OA4ikTkTETSenHQ/D0461Ohvip0GeAvysJU6B8c+AU4DTMrOtPN/gTELKtWFhH2iv28B1k7wuxHWB6wDb1Z1waOJrCa+D8bsz87za00gaNgOIpK22tD4zemDA4yFvU3ueATgN8odBnNzCSdD8CBZPyszTaw82TybvmrkWjPaF3K+BfZPYF/JGwE6155ty5wa8taV9ZWb+uPYwkobJACJpzSZPsjoq4Ch8fO7GXAjxgyC/1cJ3oP0O8F0feTrdIiKAa0+CyU2D3B/i5iydmETd6aZOC/nxZPRyWPx4+sWEpDUwgEhatYi4TUPzhIQH4ArLsvMhvhnk11rimzD+DnCyjzSdHRFxBWB/aPZvYP+EmwM3AprKo02LHye8gqUnaP2h9jCSpp8BRNJmRcQCjB4Q8A+Qt6w9T2WLwA8Cvt4SX4Px14AfGDbmT0RcHhZuBe2tg7w1xK1ZekLXPPt9wDEt7csy839rDyNpehlAJG3U0tOsmsMC/p6lFZR5dB7kV5P4AjRfhMWv+FhSbUpE7A2j2zTk7RPuCOzLfK5uLQa8p6V9SWZ+q/YwkqaPAUTSpUTEVRqaxyf8DXCl2vP07GzIzyfxeWhPBL7h6Ya2VkTsDqMDG/IOk0ByE+ZubSs/mYxenLn+k7UnkTQ9DCCSAIiIfRqapyQ8Crhc7Xl6cgHkiUl8GtpPA9/MzHHtoTSbImJXGN2hIQ9KOAi4Qe2ZevTtJF48eYyv/x+T5pwBRJpzEXHDhub/JPwVsFB7nsJycmH84y3Np2HxS5l5Ye2hNJ8iYi8YHdSQd0+4C/PxhvefJPECGL8tM9fXHkZSHQYQaU5FxI0bmn9OeCCzvRZy7tIaSHM8jI/PzDNqDyRtKCIa4ObQ3DOIQyBvwWzfH/l5wougfVNmXlR7GEn9MoBIcyYibh7EMyDuy+x+gfPDgONa2o8BX/Qeh4YmIq4Bo3sG7SEQdwN2rD1TIb9MeDG0r8/MC2oPI6kfBhBpTkTEzYJ4LsQ9mb3gkRBfS/KD0H4gM39UeyCpKxGxA4zu0pD3TbgvsHvtmQo4PeHfoD3aExFp9hlApBkXETeYrFo9FBjVnqdDY4ivJPleaN+Xmb+sPZBU2mRV63YNzQMT7g9cs/ZMHTs1iefB+BhPLqXZZQCRZlREXLuheXbCI5id4DGG/FzSvAvG78vM39UeSKplEkZu29DcP+EBwJ61Z+rQT5P4Fxi/MzPb2sNI6pYBRJoxEXH1yYnHkcB2tefpQEJ8Ocl3QfvezDy99kDStJmEkQMbmodOwsgVa8/Uke8n8czMxQ/WHkRSdwwg0oyIiF0amqcm/AOwU+15OvCDhLdC+67M/EXtYaShiIjtYHSPhnxowr2Ziff6xInJ+KmZ+eXak0jadgYQaeAiYgGaIwL+Bbhq7Xm20W8D3tnSviUz/1/tYaShi4hdYHRowGGQBzLsB1Ak5AeS/KfM/HHtYSRtPQOINGAR6+4WtC8Fblx7lm0whvzvpDkaxh/KzItrDyTNoojYE5qHBhwFXKf2PNtgfcCbWtpnu5IpDZMBRBqgiLhVMHrJ5DuaQ/XThNdD++bMPLP2MNK8WLovsnBQQ/vohPsB29eeaSv9IeGF0L40My+sPYyk1TOASAMSEVdraJ6TcATDfHv5xQEfammOhsVPp38ASVVFxK4welCQTwT2rT3PVjo1iWdkLr619iCSVscAIg3A0qXS5okBzwAuX3uerXDKitOOM2oPI+nSJqcidwvGfw1xCLBQe6a1y88k+aTM/F7tSSRtngFEmnIRC38Z5H8C1689yxol5CeT5hUwPt5n+UvDEBF7NDRHTh7lffXa86zRYsDrWtpn+Z4gaXoZQKQpFRHXC+I/Ie5Ze5Y1+mPAW1vaV2TmybWHkbR1Jo/zfXDAEyFvUXueNfpdwj9De7Tf/JCmjwFEmjIRsQM0Tw94OsO6HHpKwiuhfVNmnlt7GEndiYgDgngSxH2BUe15Vi++loz/OjO/WXsSSX9iAJGmSMS6g4L2VcD1as+yevG1hJfA+P2ZOa49jaRyIuLaDc3jJ+tZQ7mPNg54dUv7TL85Ik0HA4g0BSZPt/r3hEfUnmWVEvLTSfPyzMXjag8jqV9LLzhsDgt4KnDN2vOs0ulJPA3Gx/oEPqkuA4hU0dKTZ5q/Dng+cIXa86zCxQFvb2n/IzN/UHsYSXVNVkYfHfAUYJ/a86xOfirJx2XmKbUnkeaVAUSqJCL2DUZvhLxN7VlW4cKAN7S0/56Zp9YeRtJ0iYgRjB4Q5NOA/WvPswrnJzwb2pdl5mLtYaR5YwCRehYRC9A8OeA5TP8l8/MC3jgJHqfVHkbS9ItYd7cgnw95q9qzrMJ3kvaIzPx/tQeR5okBROpRRNwkGB0zgEda/jHgmJb2hZn569rDSBqeSRB5HuSta8+yBYuTS+r/lJnn1x5GmgcGEKkHEbFDQ/OsXLqwOc1vGD4v4BUt7Yt9iZekLiy9TJVnDSCI/ChpD8/ME2sPIs06A4hUWETcJmjeBNyw9iybcdHk7cH/lpln1B5G0uxZCiL5PKb7jkgb8NLJI3svrD2MNKsMIFIhK+56PBdYV3ueTWgD3tfSPj0zf1Z7GEmzLSJicln9ecD1a8+zGT9M2kdl5tdrDyLNIgOIVEBE/FnQHAvcrPYsm5AB725pn5WZP6k9jKT5svQNmtFhQT6L6X2PyGLAC1vaf83M9bWHkWaJAUTq0NKjKJsnB/wrU/uEq/xskk/1qS+SaouIy0Hz+ICnA1esPc8mfHtyGvLd2oNIs8IAInUkIq4djN4Mecfas2zCyUk8K3PxvbUHkaSVImK3huZpCU9iOr95sz7h31g6DWlrDyMNnQFE6kDEwgODPBrYtfYsG/GbhOdB+ypfuCVpmkXEXg3N8xIeDkTteS4rP53ko3wvkrRtDCDSNoiIyzc0r0l4aO1ZNuKCgJe0tC/KzPNqDyNJqxURBwaj/4C8Ze1ZNuI3SRyRufih2oNIQ2UAkbZSRNw6aN4B7F17lsvK9yf5lMz8n9qTSNLWmDwx62FBvgi4Ru15NjR5dPk/+PJCae0MINIaRUQDzdMCnsP0PV73B0nzxMz1n649iCR1ISJ2aWiemfBEYLva82zg5KR9SGZ+p/Yg0pAYQKQ1iIhrBHEsxF1qz7KBsxOeDe1rvOchaRZFxA2CeDnE3WvPsoELknhS5uLRtQeRhsIAIq1SRNwpaN4JXK32LCsFvLelfXxmnll7FkkqLWLhXkH+F3Cd2rNcWr4/ycMy89zak0jTrqk9gDTtIqKJGD0raD7FdIWPHybtncY5fpDhQ9K8yFw8Lmn3C3g+cHHtef4kDg2ar0XETWtPIk07T0CkzYiIK09Wru5Re5YVLkj4d2hfkJkX1R5GkmqJiOsF8RqIu9aeZYULE56eOf6v2oNI08oAIm1CRNwuaN4N7FF7lj/JjyX5+Mz8We1JJGkaTJ6WdfjkaVlT8zb1gLe1tEf5lCzpsgwg0kZEjP4+4EVMz1OufpPE32UuvrP2IJI0jSLiKg3NSxMeVnuWFb6TtIf6TSPp0gwg0goRsWND8/pperFgwLta2r/LzLNqzyJJ0y5i3T2C9nXAXrVnmTg7iYdlLn6s9iDStPASujQREXsGo89OUfg4PYn7j3P8V4YPSVqdzPUnJO2NJqfYbe15gN2C/OgoRi9ceo+UJE9AJCBi3V2C9t3AlWvPAmTAMS3tUzLznNrDSNJQTf5sfz2wd+1ZluRHknyEf7Zr3pnENfeW7nu0H2c6wsdpSXPwOMdH+C8oSdo2mes/k7Q3CXg5U3EaEocEzVci4vq1J5Fq8gREcysidpjc93h47VkAAt7e0j4hM8+uPYskzZqIuEPQvAW4du1ZgHOS5sGZ6z9RexCpBk9ANJeW3u8x+sSUhI9zknjEOMcPN3xIUhmZ+fnJacjRtWcBdg3a4yNGT6s9iFSDJyCaOxFx46A5DrhW7VkgT0jy8Mz8Ve1JJGleRCwcHOQbgatXn2Xp9PuIzLyw9ixSXzwB0VyJWLhX0HyJ+uHjvCSObLM92PAhSf3KXPxY0u4PeVz1WeBhweiTEbF77VmkvhhANDciRk8O8gPAzpVH+VbS3iJz8Q2V55CkuZWZZ7TZ3juJo4DKbyvPAyaX029Ydw6pHwYQzbyIWBjF6JUBLwFGFUfJgJcn7W0z80cV55AkTWQuHp20twC+XXmUvYPmSxFxp8pzSMV5B0QzLSJ2DuK9EPeoPMpZSTwmc/GjleeQJG3E5MmIL0p4AhAVR7k4iSMyF4+tOINUlAFEMysirhE0xwM3rTtJfiLJR2Xm6XXnkCRtScTCfScX1K9YcYxMeHbm+LkVZ5CKMYBoJkXEvkHzMWCvimOME54D7fMzcwpegCVJWo2I2DMYvR3ywKpzwJta2qMyc33NOaSuGUA0cyLitkHzYeq+2fyspHm4L5mSpGGKiBE0zwx4JlXvzOank7xfZv6h3gxStwwgmikRC4cG+TbgchWn+EIyfoiP15Wk4YtYOCTItwK7VZzi68n4npl5Vr0ZpO74FCzNjIjRE4N8L/XCRwa8KBnfxfAhSbMhc/EjSfvnwDcrTnHLoPlCRNR+h5XUCQOIZsIoRs8JeBn1fk+fm8R9xjl+emYuVppBklRAZv4saW8f8PqKY9wgaE6MiBtXnEHqhCtYGrSIaBqa/0p4fMUxfpi0983MH1ecQZLUg4iFxwT5amCHSiOcnbT3ycwvVOovbTMDiAYrItY1NMckPLzeFPmhJB+Zmb+vN4MkqU8RceugeR9wzUojXJDEAzIXj6/UX9omrmBpkCJi+yDeVTF8TO575KGGD0maL5n51aTdH/KzlUa4XJAfiFh4YKX+0jYxgGhwJm83/wjEoZVG+EMS95/c9/D9HpI0hzLzrCQPCnh5pRG2C/KdEQuHVeovbTVXsDQoEbFbMPo45C0rjXBK0t4rM39Yqb8kacpEjI6aBJHtKrTPhCdkjl9Vobe0VQwgGoz64SO+lIzvl5ln1ukvSZpWEXH7oPkAsHuN/gn/kjl+To3e0lq5gqVBiIirBM1na4WPgDcl4zsbPiRJG5OZJybt7YEqT0QM+JdRjP61Rm9prQwgmnoRcdWg+RRwkwrtM+E54xwflpkXV+gvSRqIzPxJ0t4G8jNV+sMzRzH69xq9pbVwBUtTLSKuNgkf+1Vof14SD89c/GCF3pKkgYqIhck7qv6mSn94yTjHT63RW1oNA4imVkRcc2ntiutWaH960h6Smd+o0FuSNAMiRk8JeBEVNk4CXjjO8T/13VdaDQOIplJEXC4Yfa7SnY9TkvYemfnTCr0lSTMkYuHQIN9OhTenB/zHOMdP6buvtCXeAdFUamheUSd8xJeS9taGD0lSFzIX35+09wDO6b03PHkUoxf13VfaEk9ANHUi4s+C5jv0HpDzQ0n+VWZe0G9fSdKsi4h9g+ZjwF6994bnjnP8rL77SpviCYimTkPzZHr+vRnwqiTvb/iQJJWQmScl7e2A7/XeG54ZMXp6332lTfEERFMlIkZB82t6fJFTwjMyx8/vq58kaX5FxBWC+CDEnfrunfDEzPHL++4rbcgTEE2b69Nf+GgT/sbwIUnqS2aem+TBkB/uu3fAyyIWjui7r7QhA4imzMI1emq0mMRhmePX9NRPkiQAMvPCJA8NOKbn1hHk6yIWHtZzX+lSDCCaMtnHYwrPT+I+mYtv6aGXJEmXkZnjlvaIgFf03LoJ8s0RC/ftua90CQOIpsz4jMINzknav8hcPL5wH0mSNiszc5zjv0vo+4L4QpDvjlh3UM99JcBL6JoyEbFr0JwFLBQof1bS3j0zv12gtiRJWy1i9KSAlwLRY9tzk/ZO/ntRffMERFMlM8+BOLFA6TOT9q7+IStJmkaZ45clcRTQ9tj2CkHziYi4QY89JQOIpk/CWzsu+evJd3h6f/a6JEmrlbn4+iSOpN8QsnvQfDQirtZjT805V7A0dSbvAvkusG8H5U6fnHyc1EEtSZKKi1h4SJDHUmYdeVO+l7R3zMyze+ypOeUJiKZOZo6T9nDgom0s9b9Je4DhQ5I0JJmL70ri4cBij21vHMT7I2L7HntqThlANJUy8yuTY+jxVpb46WTt6pQu55IkqQ+Zi+9O4sHA+v66xp0amjdGRJ8X4TWHDCCaWpmLxybNIcA5a/vM+HzS3i4zf15iLkmS+pC5+P4kHkKPJyEJD2tonttXP80nA4imWub6E5L2pgFvZsunIb9M4shkfJfMPKuH8SRJKmoSQh7B1m8ErL0n/HPEwpF99dP88RK6BiMirgnNIQ0ckMSewI7QnhHET1ua42Hxc5l5ce05JUnqWsTCI4J8M/1983gxae6Vuf6EnvppjhhAJEmSBiBi4dFBvpH+QsgfJk/G+lZP/TQnDCCSJEkDETF6XMCr6e+N6acl7a0y81c99dMc8A6IJEnSQGSOX5vwxB5bXjNojouIHXvsqRlnAJEkSRqQzPErAp7fY8ubB/EWH8+rrhhAJEmSBmac42cEvKy/jvEAaJ7RXz/NMu+ASJIkDVBEREPzxoTH9NQyk3ho5uK7euqnGWUAkSRJGqiIGAXxHohDe2p5weTJWF/vqZ9mkAFEkiRpwCLicsHo45AH9tTyF0n75770V1vLOyCSJEkDlpkXJON7Ad/tqeVeQbw7IhZ66qcZYwCRJEkauMw8N2n/Eji1n45x54bmRf300qxxBUuSJGlGRMSfBc0XgF376JfEozMX39JHL80OA4gkSdIMiYg7Bc0JwPY9tLsgaQ/IzG/20EszwhUsSZKkGZKZn03iMKCP7zJfLmjeExG79dBLM8IAIkmSNGMyF9+R8Kye2u0TxFt9U7pWywAiSZI0k9rnBxzbT684BJqn9tNLQ+cdEEmSpBkVEeuC+DjEnXtot5i0d8nML/TQSwNmAJEkSZphEXGloPkycL0e2p2etPtn5uk99NJAuYIlSZI0wzLzt0l7b+DsHtpdLYi3R8Soh14aKAOIJEnSjMvMk5PmQcBi+W5xF2j+qXwfDZUrWJIkSXMiYvSkgP/sodV4ch/k8z300sAYQCRJkubIKEZvSDi8h1a/TNqbZeZve+ilAXEFS5IkaY60tI+H+FoPrfYI4uge+mhgDCCSJElzJDMvTMb3BX5VvlscGrFwRPk+GhJXsCRJkuZQRNw2aP4b2L5wq/OS9s8z8+TCfTQQnoBIkiTNocz8csLf99Bqp6B5R0SUDjoaCAOIJEnSnMocvybg7T202r+heX4PfTQArmBJkiTNsYjYKWi+CuxXuFWbtHfNzM8W7qMpZwCRJEmacxFx/aD5OnD5wq1+nrQ3zczfF+6jKeYKliRJ0pzLzB8ncWQPra7d0PxHD300xQwgkiRJInPxPQEvL94HjohYuGfpPppermBJkiQJgIjYLhh9EfKWhVv9Omlv7FvS55MnIJIkSQIgMy9Oxn8FlL6jcfUgXl+4h6aUAUSSJEmXyMxT+rkPEveLWHhA+T6aNq5gSZIk6TJGMXpzwqMKtzkraffLzLMK99EU8QREkiRJl9HS/i1wcuE2uzc0Ly7cQ1PGExBJkiRtVETcOGi+BuxQsk/SHJy5/oSSPTQ9PAGRJEnSRmXm9xL+uXSfoH1tROxSuo+mgwFEkiRJm9G+DPIzhZtcq6F5QeEemhKuYEmSJGmzImKvoPkOsGvBNm3S3jEzv1iwh6aAJyCSJEnarMz8RRJPKNymCZrXRsS6wn1UmQFEkiRJW5S5+LaAdxdusx80/1C4hypzBUuSJEmrEhG7Bs13gT0Ltjk/af8sM/+nYA9V5AmIJEmSViUzz0nicYXb7BjEfxXuoYoMIJIkSVq1zMXjA95StkvcK2LhfmV7qBZXsCRJkrQmEXGFoPk+sEfBNqcm7b6Z+ceCPVSBJyCSJElak8w8N4m/Ldxmz4bmmYV7qAJPQCRJkrRVRjF6e8JDC7a4OGlvkpk/KthDPTOASJIkaatExJWC5gfAVct1yU+22d69XH31zRUsSZIkbZXM/G35FxTGQRELh5TtoT55AiJJkqRt0kTzYYh7FWxxStLul5kXFeyhnngCIkmSpG2S5OOBkk+r2geavy9YXz0ygEiSJGmbZOYvEp5TskfA/4mIa5TsoX4YQCRJktSB9mXAtwo22KWheW7B+uqJd0AkSZLUiYi4ZdB8GRgVatEm7S0z85uF6qsHnoBIkiSpE5n59YDXFmzRBPGCgvXVA09AJEmS1JmIuHzQ/Ai4WqkeSXNw5voTStVXWZ6ASJIkqTOZ+fsknlGyR9C+NCIWSvZQOQYQSZIkdWz8JoivFmxwIxg9umB9FeQKliRJkjo3uZD+Fcp9w/tXSXv9zDyvUH0V4gmIJEmSOje5kH5MwRbXgOYJBeurEE9AJEmSVEREXGlyIf1KhVqck7R7Z+bZheqrAE9AJEmSVERm/jah5MsDd21onlywvgrwBESSJEnFRMS6oPk+cP1CLc5L2n0y84xC9dXTgI8VAAAgAElEQVQxT0AkSZJUTGauT+JpBVvs1NA8vWB9dcwTEEmSJBXXRPMpiLsWKn/R5IlYvyhUXx3yBESSJEnFJfk0oC1UfvuG5pmFaqtjBhBJkiQVl5nfCHhbsfrwqIi4Tqn66o4BRJIkSb1oaf8ZuKBQ+XXeBRkGA4gkSZJ6kZm/DHhFsfrwmIi4Vqn66oYBRJIkSb1paV8AlHpx4LqG5h8L1VZHDCCSJEnqTWaek/AfxerD4RGxR6n62nYGEEmSJPWsfRlweqHi2zc0Ty1UWx0wgEiSJKlXmXlewvOK1YfHRsTVS9XXtjGASJIkqYL2aOCUQsV3aGieWKi2tpEBRJIkSb3LzPVJPLdYfXhcRFyhVH1tPQOIJEmSKhm/DfhxoeJXgOaoQrW1DQwgkiRJqiIzx0m8oFT9gH+IiB1K1dfWMYBIkiSpovGxlDsFuSqMHl6otraSAUSSJEnVTE5BXliqfpBPjQi/5p0i/o8hSZKkysbHUu6JWNeH0X0L1dZWMIBIkiSpqsxcTKLYe0EC/r5Uba1dZGbtGSRJkjTnImJd0PwEuFaJ+kl7q8z8eonaWhtPQCRJklTd0ntB+M9S9RuaJ5SqrbXxBESSJElTISJ2DJqfA7sXKH9x0l4rM08vUFtr4AmIJEmSpkJmnp/wykLlt4PmcYVqaw08AZEkSdLUiIgrTk5BdilQ/szJKciFBWprlTwBkSRJ0tTIzN8FvL5Q+avA6MGFamuVPAGRJEnSVImIPYLmZ8C6AtW/3ubirbqvq9XyBESSJElTJTN/GfCeQtVvGRG3KFNbq2EAkSRJ0tRpaV9aqnZD89hStbVlrmBJkiRpKjWx8AXIAwqU/mPS7pGZ5xaorS3wBESSJElTKeFlhUrvDM3DC9XWFngCIkmSpKkUEaOg+TGwd4HyJ7U53q9AXW2BJyCSJEmaSpk5TnhVofL7RsTtC9XWZhhAJEmSNMXaNwJ/LFHZy+h1GEAkSZI0tTLz3IB3FKkN94+IEm9c12YYQCRJkjTVWtpXFyq9E4weWKi2NsEAIkmSpKmWmd+B+EqJ2gGPKVFXm2YAkSRJ0tRLeE2hygdExA3L1NbGGEAkSZI0AON3A2eVqNzQPKJEXW2cAUSSJElTLzMvCnhrkdrwqIgYlaityzKASJIkaRBa2tcBJd6ifU1YOKhAXW2EAUSSJEmDkJk/gfhiidoN7UNL1NVlGUAkSZI0GAlvKlT30IjYqURtXZoBRJIkSQMyfg/whwKFd4LRIQXqagMGEEmSJA1GZp4X8J4StcM1rF5EZol7PJIkSVIZEXH7oClxF2R90l49M39boLYmPAGRJEnSoGTmicDJBUqvg9H9C9TVCgYQSZIkDU7CW0rUDXANqzBXsCRJkjQ4EXGtoPkfIDou3SbtHpn5647rasITEEmSJA1OZv4vxIkFSjfQ3K9AXU0YQCRJkjRISb6jRN0gvQdSkCtYkiRJGqSIuGLQ/BrYruPS46S9Rmae2XFd4QmIJEmSBiozfwf5iQKlRzC6d4G6wgAiSZKkAUuaQmtYrWtYhbiCJUmSpMGKiJ2C5gxgp45LX5y0V83MczquO/c8AZEkSdJgZeZ5AccXKL0djA4pUHfuGUAkSZI0aC3xvhJ1G9J7IAW4giVJkqRBi4gdg+YsYMeOS/8+aXfPzIs7rjvXPAGRJEnSoGXm+YWehnV5WDiwQN25ZgCRJEnS4CVNoTWs1nsgHXMFS5IkSYMXEbsEzZnADh2X/lmb4306rjnXPAGRJEnS4GXmHyA/XaD03hFxwwJ155YBRJIkSTMhaT5cpnJzrzJ155MBRJIkSTNi/BGg8/sFQR7cdc15ZgCRJEnSTMjMX0F8s/vKcfuI2Ln7uvPJACJJkqSZkeRHCpTdDkZ3KFB3LhlAJEmSNEPaEgGEhjyoRN15ZACRJEnSLPkGcFrXRRPu3nXNeWUAkSRJ0szIzAz4WIHS+0bEHgXqzh0DiCRJkmZKS5xQpvLINawOGEAkSZI0Y8afBha7ruo9kG4YQCRJkjRTMvMciK93XhfuHBHRdd15YwCRJEnSzAnykwXKXg24foG6c8UAIkmSpJnT0pYIIMDojmXqzg8DiCRJkmbRV4Bzuy7akAaQbWQAkSRJ0szJzEXIz3ZeF+7cdc15YwCRJEnSTEriUwXKXj0irlug7twwgEiSJGlGtZ8rU3d0hzJ154MBRJIkSbPq+8Bvui7qPZBtYwCRJEnSTMrMhPxi53Xhdl3XnCcGEEmSJM2sJEqsYe0TEbsXqDsXDCCSJEmaYUXugQSMbl2g7lwwgEiSJGmWfQc4p+uiDXmbrmvOCwOIJEmSZlZmtpBf6LyuAWSrGUAkSZI005L4cvdV41YRMeq+7uwzgEiSJGnGNV8pUHQXYN8CdWeeAUSSJEkzbvHrwLj7uiPXsLbCQu0BJEmS1L2IWICFuzS0hySxP+RVJh85I8hvtTQfhcXPZOZi3UnLy8w/NjH6PnDTLus25M27rDckEXFdaO4T5J0g9gJ2hvhtkD9viY/D+MOZedZGPzcz+51WkiRJRUUsPDjIfwWuv4Vf+qMknpm5+N4+5qppFKPXJhzVbdX4apuLc3UKEhH7NDTPTXgwm9+mOj/glS3tCzLzUk8hM4BIkiTNiIjYvqF5TcJj1vR58PaW9sjMvKDUbLVFLDw6yDd1XPbCpL18Zq7vuO5Uilg4OMh3AldYw6edkrT3zsyTln/COyCSJEkzICIWgjhureEDIOFhQRwfETuVmG06jEtcRN8BuGGBulMnYnRUkB9hbeEDYJ+gOTEi9lv+CQOIJEnSDGhoXgxx0NZXiDsFo4/OcAj5EXBu92VH+3dfc7oshQ9ew9Znh12D5kMRsRvbUESSJElTIiJukfDEba+UdwxGJ0TELttea7pkZkJ8u+u6DTnTASRi4YiAVwOxjaX2aWieDQYQSZKkwQviOWz7F4gTeUAwOm4WT0KC/FbXNZOY2SdhTdaujqajzJDwuIjY0wAiSZI0YBFxRYh7dFs17ziL61gt0XkAgbxZRHQU/qbHirWrLv+7bQ/NAwwgkiRJgzY6CBh1X3cWQ8j4mwWKXh7Ys0DdagqFj6Xa5MEGEEmSpEHL6xWsvXwnZOdyPXr1Q+D87suO9tvyrxmGiIXDO7rzsakO1zOASJIkDVgDVy7bIQ8IYibuhGTmGOL7BSrPRACJWHhskK+n7D3xqxlAJEmShu288i3iTkF8ZBZCSImL6A38Wdc1+zYJH6+l2MnHJf5oAJEkSRqwFn7VT6fZCCEtdH4CksSgT0B6DB8ApxlAJEmSBq39Qn+94k7DvxPS/KD7mrlvRAzy6+qlOx9Z5ML5RvvB5wf5D0qSJElLMvO7wM977DjwOyGLBQIIOwLXLlC3qIiFI3u483EpLc1xBhBJkqSBS/j3fjsOdx0rM88EftN95dG+3dcsZxI+XkdPJx+Trt+AxU8ZQCRJkgavfQNwUr89hxtCIEqsYRV8HHK3JuGjrzsfy9ok/jEz0wAiSZI0cJm5PmnvB5zTb+dh3gkJsvOw1sB1u65ZQsTCYZPw0WsOSHhm5vrP0HdjSZIklZGZP06aQynyor3Ndh7cnZAyT8LK63dds2sRC0f0fecDIOCN0L5g+ccGEEmSpBmRuf6/k+Ze9B5ChraO1Zzcfc2Y6hOQSfh4HRXCR0v72MzM5Z8zgEiSJM2QzPWfSdp7AH/st/OQ1rEWf1qg6F4RsUOButtssnZVI3wcMwkf7cqfN4BIkiTNmMz8QtL+Jb2HkDwgGH1sACHkl8AFHddsgOt0XHObTcJHjbWrY1raIzcMH/Q9iCRJkvphCNm0yRfF/9N95dFUPQlrGsMHfQ8jSZKk/iyFkOY+1LuYvmO/fdciC6xh5dTcA5m84bzKhfPNhQ/6HkiSJEn9qnwn5OPTehISROcBpIG9uq65NSYnH0czJXc+NmQAkSRJmnGuY11WC6d0XTPJa3Vdc62mde1qJQOIJEnSHHAda0PNT7qvGVVPQKZ57WolA4gkSdKccB1rpcWfFyhaLYBM+9rVpT5nxTtBJEmSNAci4sCgOR7oORDEF5PxwZnZcwDayCQR2wfNBUB0WTdpd87M87qsuSVDWLtayRMQSZKkOeOdEMjMi4AzC5Tes0DNTYpYeMyQwgcYQCRJkuZS5RBy/DSEEIhTu6+50NtF9En4eAMDCh9gAJEkSZpbFS+mHxjEh+tfTG9/0X3N7OUeyGTtanDhAwwgRUTEKCL+vPYckiRJW1LxYvqdg9EJNU9CgigRQK7Wfc1LG+La1UoGkI5FxKihOSZoToxYuG/teSRJkrak4jrWgTXXsVrofAWrgaIBZKhrVysZQDq0HD4SHglsF+S7DSGSJGkI5nMdq/sTkCx4AjIL4QMMIJ3ZIHwsM4RIkqTBmL91rPHp3ddsigSQWQkfYADpxCbCx7LlEHKf3geTJElaozlbxzqj+5Ldn4BUDB9v6jp8gAFkm20hfCzbLsj3GEIkSdIQzFEIKRBAuHqXxSIWHl0xfBzRdfgAA8g2WWX4WGYIkSRJgzEPISQzfw9c0HHZy0XE5bsoNAkfb2SGwgcYQLbaGsPHMkOIJEkajDm5mF7iFGSb17Aqho9jSoYPMIBsla0MH8sMIZIkaTBm/2J6nFmg6JW25ZMrn3x0fudjQwaQNYqIZhvCxzJDiCRJGozZXsdqC5yAjK64tZ85q2tXKxlA1qCj8LHMECJJkgaj8jrWh0qtY0WZE5DdtuaTIhYeNatrVysZQFZpRfh4VIdlDSGSJGkwKq5j3aXgOtbvui+Zaz4BiVh4yCyvXa1kAFmFQuFjmSFEkiQNxqytY7VwTpf1JtYUQCbh423AqMAsm+7b49rVSgaQLSgcPpYZQiRJ0mDMWAg5u8NaADRrWMGat/ABBpDN6il8LDOESJKkwZidEBKdBxBWGUDmMXyAAWSTeg4fywwhkiRpMGbjYnp0voKVq7gDErHwyCDfzpyFDzCAbFSl8LHMECJJkgZj+BfTFwucgDS7bO6jk5OPY5jhR+1ujgFkA5XDxzJDiCRJGoyBr2OVWMHaaVMfmNe1q5UMICtMSfhYZgiRJEmDMeB1rHM7HQeA3GggmqxdzXX4AAPIJaYsfCwzhEiSpMEY6DrWBZ2Ps5ETkBXv+Zjr8AEGEGBqw8cyQ4gkSRqMAa5jlTixuVQAmYSPY4GFAr02aRrDBxhApj18LFsOIfeuPYgkSdKWDCmEZOYicHHHg1zS3/BxWXMdQAYSPpZtF+R7DSGSJGkIhhRC6P4UZF1EbBex8GDDx2XNbQAZWPhYZgiRJEmDMaAQUmANqzl8cuHc8LGByMzaM/RuoOFjpYuTeGDm4odrDyJJkrQlEevuErTHAR28OHAt8tNJ3jszNxswmhj9GLheT0MVM4TwAXN4AjID4QM8CZEkSQNS8elYd13l07FKPAmrV0MJHzBnASQioqF59cDDxzJDiCRJGozK7wn54ObfExIX9jdP9wLePJTwAXMUQCbh4zUJR9WepUOGEEmSNBhTfBKy2Os4HZqEj8OHEj5gTgLIjIaPZYYQSZI0GFN6MX3c7yzdGGL4gDkIIDMePpYZQiRJ0mBUDiEfvWwIaQd3AjLU8AEzHkDmJHwsM4RIkqTBqBhC7rCREDKoADLk8AEzHEDmLHwsM4RIkqTBmKIQMpgAMvTwATMaQOY0fCwzhEiSpMGYkhAyiAAyC+EDZvBFhHMePlbyZYWSJGkwIuLAoDkeWO3by7vq/HloL4I4qN++azMr4QNmLICseM/H42rPMiUMIZIkaTDqvTF9us1S+IAZCiCTN5y/PuGw2rNMmYuSuH/m4kdrDyJJkrQl9U5CptOshQ+YkTsgk5OPV01/+IgTA97Zc9Ptg3y/d0IkSdIQ1LsTMn1mMXzADASQoa1dtbSPCHhXz229mC5JkgbDEDK74QMGHkCGFj6AUWaOW9qHG0IkSZI2bZ5DyCyHDxhwABlg+ABYADCESJIkbdk8hpBZDx8w0AAy0PAB5OiSvzOESJIkbdE8hZB5CB8wwAAy3PABwGjlDwwhkiRJWzYPIWRewgcMLIAMPHzABgEELgkhj4T8QM+zGEIkSdJgzHIICXhXS3vEPIQPGFAAWfGej6GGD5jcAdlQZq5P8sGVQsh7Ihb+sue+kiRJazaLIWQSPh6emePas/RlEAFkxXs+Dq89yzbaflMfqBhCtg/yA56ESJKkIZilEDKP4QMGEEAqnnyUeEX8jptt+KcQ8sECvTfHkxBJkjQYsxBC5jV8wJQHkMnJxysrnHyMEx5foO5mAwhcEkIeVCGELJ+E3KvnvpIkSWs25BAyz+EDIDJLfKN/261Yu/rrnluPk3gMjN8eNItAdFi7TdqFXMU/9IhYF8R7IO7bYf/VuDiJB2QuHtdzX0mSpDWLiAOD5nhg59qzrMa8hw+Y0hOQ2uEjc/HYyVMILuy4fsNm7oGsVPEkZLsg/68nIZIkaQiGdBJi+FgydQFkGsLHip8r8Rt5i2tYywwhkiRJWzaEEGL4+JOpCiCVw8dhG4QPgPMK9Fp1AAFDiCRJ0mpMcwgxfFza1ASQydOujq4UPh6dufjWjXysRADZaa2fsOLpWB8uMM/mLL+s8OCe+0qSJK3ZNIYQw8dlTUUAWfG0qyN6br188vG2jX84SgSQy2/NJ2XmxUk+oNLTsT7oSYgkSRqCaQohho+Nqx5ApmDtamMnHxNtgQCysNvWfqbrWJIkSVs2DSHE8LFpVQPIlK5drfT77lvnrtv02XXXsd7jOpYkSRqCmiHE8LF51QLI9K5d/UkQZxfov00BBC5Zx3pghZOQHVzHkiRJQ1EjhBg+tqxKAJnutatL+V33I+RWr2BdqspSCHkw5Ie6qLcGrmNJkqTB6DOEGD5Wp/cAMqDwQQudn4A0cIWuak1CyIMMIZIkSZvWRwgxfKxerwFkxdrV1IePiRIrWJ2cgCwzhEiSJG1ZyRBi+Fib3gLIJHy8LuFv+uo5sfyG87WGDyAKrGB1G0DgUiHkuK5rb8HkYvq6e/TcV5Ikac1KhBDDx9r1EkBWnHwc2Ue/FTb1hvNV6v4SepJX6bomXOo9IX2fhOwQtB/yJESSJA1BlyHE8LF1igeQFeGjxsnH1qxdrbBY4AQkrtp9zSWuY0mSJG1ZFyHE8LH1igaQYa5dXcpvO5nm0ooFELjU07E+UrLPRriOJUmSBmNbQojhY9sUCyDDXbu6lNM7qLGhK0bEdgXqXiIzL0ry/hVeVug6liRJGoytCSGGj21XJIBUXLtqt33t6k8y8zy6f1JCALt3XPMyVryssMYb013HkiRJg7CWEDIJH48wfGybzgPIrISPFc7ouB4UXsNaZgiRJEnastWEkBXhY7HH0WZSpwFkCsLHW7ovHQXWsEa9BBAwhEiSJK3G5kKI4aNbnQWQSfh4bcUL5wXCB0Bb4h7I1QvU3KQVT8f6aJ998WK6JEkakI2FEMNH9zoJICtOPh7bRb01aJM4vMDa1SWiyAlI7tl9zS10XLqYfqgX0yVJkjZtZQgxfJSxzQFkNteuVjQpcAekgd4DCLiOJUmStBqTEHK7ydOuDB8d26YAMgkfr6kUPgquXa0Uv+66YpJ7dV1z1b3/tI51fM+tl9ex/qLnvpIkSWuWmd/zaVdlbHUAWXHycVSXA61CqaddbUKcWqBmlROQZZN1rPtVWsf6cMTCIT33lSRJ0pTYqgAy62tXl7b4iwJFq52ALFuxjnVcz623C/J9hhBJkqT5tOYAMl/hA4D/LVBzx4i4UoG6azIJIQ8whEiSJKkvawogcxg+yMzzgd8WKF39FAQMIZIkSerXqgNI5QvnVcLHCgVOQUbX7r7m1llxMf1jPbfeLsj3ejFdkiRpfqwqgEzCxysqXjivGT6ALHAPJK/bfc2tl5kXJnnfCichXkyXJEmaI1sMICvCx9/2MdAKUxI+IIjOT0Aa2KfrmtvKdSxJkiSVttkAMgkfr57n8AHQFljBSvJ6Xdfswop1rBN6bu06liRJ0hzYZABZcfLxuD4HYsrCx5I4pUDNqTsBWTZZx7oP5Ed6bu06liRJ0ozbaABx7WpD458WKLpnROxQoG4nJich968QQrYL8v8aQiRJkmbTZQKI4WOjTgHGHddsgOt0XLNTFUPI9oYQSZKk2XSpADIJH6+qFD4On9LwQWZeBJzafeXRVN4DWWnFG9M/3nPr7Sd3Qu7ec19JkiQV1Fz6B82rEv665xmWw8ebe+67RllgDStv1H3N7q14RG/fIWSHoP1QxLqDeu4rSZKkQi4JIBGjf6oUPg6b/vABQXQeQBoYRACBS0LIvStdTH9fROzXc19JkiQV0ABErLtLwPN67j3Va1cbauEnXddMhvVF9Yp1rE/03HqXoHlfRGzfc19JkiR1rImICNoXs8q3ondkIGtXK0XnAQTyRhHR5z/3bbbiEb19h5AbQHNkzz0lSZLUsQYW/gK4eY89Bxg+AMYnFSi6E3CtAnWLWnEnpNcQEvCPERF99pQkSVK3mob2Pj32y4S/GV74AOB/gPO6Lzvat/ua5WXmBZM7IR/tse2ewM167CdJkqSONQkH9tRrcvIxfl1P/TqVmS3EyQUqD+oeyEqZedHkTsgn++va9PX7VZIkSQU0wNV76NMmcUTm4pt66FVMkD/oumYDN+66Zp8mJyH36SuENHCNPvpIkiSpjAbYuXCPmQgfAC10HkAS9u+6Zt96DiGlf79KkiSpoAY4s2D95Tsfgw8fS6LzAALcMCJ2LFC3V5MQcq/Sd0JaOL1kfUmSJJXVQBZ4vCww8DsfGzf+foGiI+AmBer2rp87Id2/EFKSJEn9aZI4vkDdmVm72sAvgD90X7YZ/BrWshXrWJ8qUH4M4x4vvEuSJKlrDbTvBS7usOashg8yMyG+3XXdZgbugay04hG9HYeQPCEzf9ttTUmSJPWpyf/f3p2HXVfX9R5/f9a+4QGUQVBwAkxCFE1wyAHJTElTwhnnnFLUcigTNdPSPB6HMmdFFDXQEjjmAIipiHEc0IxJEVPBA6ggMorIdO/1PX/cmyJkeIa91tp73+/XdT1XKPD9fryifD7377fWqjozcOCU5lXBny5i+bhGqBOmPbNInx+C7EUHJaSK+tspzZIkSdJAGoCW9m+A0zdw1uTkY3zAhseaXS05cfpT625JNp7+3GFNs4QE3lFV35xGLkmSJA2nAaiqC2vli+iXrOec8eTa1YemF21Wjad+AgKsYUEeRL+ua5WQDXh2o45pafefXipJkiQNpbnmD6rq1KL9bWBdv/b9iyKPWeRrV9dxGnD59Mc295v+zNkwKSGPCLx5Xf/ewMeK2qeqlrvIJkmSpH411/4XVfWDor1/4C3Ar27i720DBxft3auWj+gu4mxZ+Y1wvj3tuQ3cd9ozZ0lVLY9r/MoijwLW5nXG3yuy77jGT6uqDgqfJEmShpCquv4/kdwSRvs01EOL7Ai1LeQiaH9c5Fhoj6iqH/WcdyaMMjqg4HlTHvvDtsY7T3nmTErSwNLvNrR7F3UvyHZAID8LdUJLcxQsf7mqxkNnlSRJ0nTdYAHRDUuWnhtqWm8Ou0YV7bZVdf6U50qSJEkzo7npv0S/bvyNDoYGRgt9DUuSJEmygKyf7wC/mPbQhrKASJIkaaFZQNZDVbVQ35r6XGqPac+UJEmSZokFZD2FfL2DqfdfxA8SSpIkSdewgKynlhzfwdjNgHt3MFeSJEmaCRaQ9Tb+OtDBK8Sa353+TEmSJGk2WEDWU1VdAJw+7bmhLCCSJElaWBaQDRD4WgdT90iyNP25kiRJ0vAsIBugJf+3g7GbA/fsYK4kSZI0OAvIBhn/WzdzfQ5EkiRJi8kCsgGq6gfAT6c9N9Re054pSZIkzQILyAYKHNfB1Acm2XT6cyVJkqRhWUA2UAtdXMPaBJb27GCuJEmSNCgLyAZrOzgBgYb297uYK0mSJA3JArLhTgPOm/bQAguIJEmSFo4FZANVVQWO7WD0bkm262CuJEmSNBgLyBS05IsdjA2MfBuWJEmSFooFZCrGn+tiakM9vIu5kiRJ0lBSVUNnWAhNRt8Ddpny2AuLdruqWp7yXEmSJGkQnoBMSeDzHYzdGtijg7mSJEnSICwgU9KSL3Qxt6H5wy7mSpIkSUPwCtaUJLlZaC4A1kx59GltjXed8kxJkiRpEJ6ATElVXQY5voPRd0myUwdzJUmSpN5ZQKaoqKO7mdzs081cSZIkqV8WkKlqj+hiaqhHdjFXkiRJ6pvPgExZk9EPgN+c8thx0d62qs6b8lxJkiSpV56ATFngsx2MHcHoUR3MlSRJknplAZmyluaoLuaG9nFdzJUkSZL65BWsKUuycWjOBzaf8uiri/bWVXXhlOdKkiRJvfEEZMqq6iqoLr6KvhGMfBhdkiRJc80C0oGi6ehtWF7DkiRJ0nzzClYHkmwdmnOBjaY8+sqi3a6qLpnyXEmSJKkXnoB0YOU5jTq2g9FrYPTYDuZKkiRJvbCAdKRoPtHF3NA+pYu5kiRJUh+8gtWRJLcMzTnA0pRHt0W7Q1X9ZMpzJUmSpM55AtKRqjof6isdjG6g2beDuZIkSVLnLCAdKtLRNax4DUuSJElzyStYHUpyu9CcRQdFr2h3qarvT3uuJEmS1CVPQDq08pxGuriGRUPz1C7mSpIkSV2ygHSsqI93M5dnJPF/f5IkSZor/ga2c+2hwFUdDN4Rln6vg7mSJElSZywgHZt8lPALXcxuaJ/VxVxJkiSpKxaQHhTNP3czl8cluUUXsyVJkqQuWEB6Mf4U8MsOBm8CzRM7mCtJkiR1wgLSg6q6LHBEF7NDvIYlSZKkuWEB6UlLPtrN5LpPkt/qZrYkSZI0XRaQ3ow/D/y0i8kNzfO6mCtJkiRNmwWkJ1W1HOjkFKTg6Uk272K2JEmSNE0WkB61tAcB1cHozWH05A7mSpIkSVNlAelRVX0f8o0uZsfQldMAACAASURBVIf6ky7mSpIkSdNkAelZwYc7Gr1bkvt1NFuSJEmaCgtI78YfB37VxeSG5gVdzJUkSZKmxQLSs6r6ReBfOpkNT0hyyy5mS5IkSdNgARlAS/uBjkZvgq/klSRJ0gxLVRcvZdJNaTL6NnC3Dkb/tGh/o6qu6mC2JEmStEE8ARlIwYEdjb4tjPbtaLYkSZK0QTwBGUiSLUPzE+BmHUz/j7aW7z39uZIkSdKG8QRkIFV1SeDjHU2/V5I9u5ktSZIkrT8LyIBa2vd3NTvkJV3NliRJktaXV7AG1mTp36G6uC41Ltqdq+pHHcyWJEmS1osnIAMreE9Ho0cNzV90NFuSJElaL56ADCzJmtCcCWzXwfgrJq/kPbeD2ZIkSdI68wRkYFV1ZaCrZ0E2aWhe2NFsSZIkaZ15AjIDkmwbmrOANR2Mv6Rod6yqSzqYLUmSJK0TT0BmQFWdFziso/FbQrNfR7MlSZKkdeIJyIxIcs/Q/EdH48+dPAtyRUfzJUmSpLXiCciMqKoTIF/paPytoXlmR7MlSZKktWYBmSEFb+tqduAvk2zc1XxJkiRpbVhAZsr4U8BpHQ3fAUbP7Gi2JEmStFYsIDOkqtoiHZ6C1F95CiJJkqQhWUBmzvhg4KcdDd8BRs/oaLYkSZJ0kywgM6aqrix4V1fzQ73aUxBJkiQNxQIyk9r3Ab/oaLinIJIkSRqMBWQGVdUlgfd3NT/U3yTZtKv5kiRJ0g2xgMyolvbtQFcfDrwdNC/oaLYkSZJ0gywgM6qqfho4qKv5k++CbNHVfEmSJOn6WEBmWEv7ZuDKjsbfEpqXdjRbkiRJul4WkBlWVWcHPtLV/MBfJNmuq/mSJEnSdVlAZlxL+7+Bqzoaf/OG5pUdzZYkSZJ+jQVkxlXVWYGDO5sPL0hyh67mS5IkSddmAZkDLe0bgeWOxq9paN7Y0WxJkiTpf7CAzIGqOqPjU5AnJrlfV/MlSZKka6Sqhs6gtZBkx9D8J7Cmow3HF+M9yn8gJEmS1CFPQOZEVZ0ZOLDDDfeD0b7dzZckSZI8AZkrSW4VmjOAm3e04kdFu2tVdfUFdkmSJK1ynoDMkar6eeDdHa74DWhe1OF8SZIkrXKegMyZJFtNTkFu0dGKS4v2zlX1047mS5IkaRXzBGTOVNXFBf/Q4YrNfS2vJEmSuuIJyBxKcvPQ/AC4dUcrqmh/p6q+2tF8SZIkrVKegMyhqvplkb/pcEVC864kow53SJIkaRWygMyt8UHAdzpccA9o9utwviRJklYhr2DNsWTpEaGO6nDFRUV7p6o6v8MdkiRJWkU8AZljVcufhTqmwxW3aGj+d4fzJUmStMp4AjLnkuwWmhPorkxW0T6wqr7S0XxJkiStIp6AzLmqOjlwSIcrEpoPJlnT4Q5JkiStEhaQBdDS/hXwyw5X7ALNyzqcL0mSpFXCArIAquonBZ1+PDDwmiS7dLlDkiRJi89nQBZEko1D823gTt1tqS8X9eDyHxpJkiStJ09AFkRVXVVk/2635EEwemq3OyRJkrTIPAFZME2az0Ie3uGKC4r2rlX1sw53SJIkaUF5ArJginoJcGWHK7YJObDD+ZIkSVpgFpAFU1U/CLy72y15ZLK0b7c7JEmStIi8grWAkmwemtOA23W45vzJVazzOtwhSZKkBeMJyAKqqkuL/HnHa27Z0Lyj4x2SJElaMJ6ALLAeHkinyGOqlj/V5Q5JkiQtDgvIAkuyY2hOBW7W4ZqfF+3dq+rcDndIkiRpQXgFa4FV1ZldfyEduFXI+zveIUmSpAXhCciCm3wh/URg1y73FHlO1fJBXe6QJEnS/LOArAJJHhiaLwPpcM2lRbt7VZ3R4Q5JkiTNOa9grQJVdVyg62tSm4fRIUlGHe+RJEnSHLOArBIt7SuAs7vdUntAs3+3OyRJkjTPvIK1iiRLDw/12Y7XXF20v1tVX+94jyRJkuaQJyCrSNXy0YGPdbxmo9B8NMmWHe+RJEnSHPIEZJVJss3k2yDbdboHDh/X+Ald7pAkSdL88QRklamqC4q8pPM9sG+y9Kyu90iSJGm+eAKySo0yOqxg347XXFa0v11Vp3W8R5IkSXPCArJKJbllaL5Dx1exgJOL9n5VdUXHeyRJkjQHvIK1SlXV+UWe28Oq3Rqad/SwR5IkSXPAArKKVS0fEfhw53tgv2TpmV3vkSRJ0uzzCtYql2SL0JwC7NjxqiuKdo+qOrHjPZIkSZphnoCsclX1i6J9GtB2vGqT0Bzq90EkSZJWNwuIqKqvBPp4TmPnhuYDPeyRJEnSjPIKlgBIsiY0xwO7d72r4M+rxm/veo8kSZJmjwVE/yXJXULzLWCzjlctF81Dq64+tuM9kiRJmjFewdJ/qarTCl7aw6ql0P6fJHfsYZckSZJmiCcg+jWjjA4teEIPq04u2gdU1WU97JIkSdIMsIDo1yS5RWhOAnboflv9S1GPL/9BlCRJWhW8gqVfU1UXFc0zgXH32/JYaF7e/R5JkiTNAguIrlfV1ccWvL6PXYE3JEuP6GOXJEmShuUVLN2gJE3I0ZCH9rDu0qLds6pO6WGXJEmSBmIB0Y1Ksm1oTgBu18O6M4v2vlX1sx52SZIkaQBewdKNqqrzivYpwHIP63YMoyOTdP0dEkmSJA3EAqKbVFXHFfx1T9vuHfKPSdLPPkmSJPXJAqK11L4Z6rP97MrjG5rX9bNLkiRJffIZEK21JFuH5t+BPr5gXkWeXbX8kR52SZIkqScWEK2TJHcPzdeAm/Ww7uqieWTV1Z/rYZckSZJ64BUsrZOqOqXIc3tat1FoP5Hkfj3tkyRJUscsIFpnVcv/HHh7T+s2C81nkuzc0z5JkiR1yCtYWi9JlkI+D/m9nlaeXrR7VNV5Pe2TJElSBywgWm+TjxR+C9i+p43HF+O9quqyfvZJkiRp2ryCpfU2+Ujho4CeCkHdL+TTSdb0s0+SJEnTZgHRBqmqE4s8HejpKC0PCfl4kqV+9kmSJGmaLCDaYFXL/1LQ44cD8+iG5oN+LV2SJGn++AyIpiJJGpqPFTy5t53wznGNX9LXPkmSJG04C4imJsmmYfRlqPv0tbPgVVXjN/a1T5IkSRvGAqKpSnK70HwTuG1fOwteUjV+Z1/7JEmStP58BkRTVVU/Kdp9gF/2tTPw9mT0J33tkyRJ0vrzBESdSJYeEerTQF9vq6oiz61aPqinfZIk9SbJxrD0oIZ276J+E5ptgctDndPCcdAeUVVnDZ1TWhsWEHUmGT0vcECPK9siz6paPrjHnZIkdWbltfOjZ4X6a+D2N/KXtoGPtbSvqaoz+8onrQ8LiDo1yuhNBa/oceW4yDOqlj/W405JkqYuydYhh0L2Woe/7dIiT6laPrKzYNIGsoCoU5PX8/5TwZN6XLtc5GlVy4f2uFOSpKlJsmNovgDsvB5/+7jIk6uWD592LmkaLCDqXJI1YfR5qAf2uHY8uY51SI87JUnaYEnuGJovATtuwJhfFe2eVXXitHJJ02IBUS+SbBGaLwP36HFtFbywavzeHndKkrTektwpNMdw4897rK2Ti/aeVdVOYZY0Nb6GV72oql8U7d7Aj3pcm8C7k9Hze9wpSdJ6SbLr5Id10ygfALvB6LFTmiVNjQVEvamqc4r294Fze1ybwHuT0Z/1uFOSpHWS5C6h+SJwm6nOpX36NOdJ0+AVLPUuyT1DcyywRZ97C15RNX5LnzslSbopSe4Vmn8Ftulg/K+KduuqurKD2dJ68QREvauqE4r2UcAVfe4NvHmU0ZuSpM+9kiTdkCQPnDzz0UX5ANgM2L6j2dJ6sYBoEFX15SJPAZZ73QuvaGgOSDLqc68kSdeVLO0Tms8BW3a8aqrXuqQNZQHRYKqWP1nkWUCvb+co2C/k/yRZ0+deSZKukSw9JdQngE17WPfLHnZIa80CokFVLX+0yPOBnh9GyqNDPpVks373SpJWu2T0olCHABv1tLLPl79IN8kCosFVLX+g4KX9b84fhNHnk2zd/25J0mqUjP4m8E76+z3Y6VV1Tk+7pLViAdFMqBq/veCvBtj8gNB8JcmGfG1WkqQblWQ0yuiAwGt73QtH9LlPWhu+hlczZZTRGwpeNcDqc4t276o6YYDdkqQFlmSzkI9D9ul59dVFe+eqOqPnvdKN8gREM2Vc478K/P0Aq28dmmOTjfYaYLckaUEl2TaMjh2gfBB4t+VDs8gTEM2kUUb/a5grWSwXeUHV8gcH2C1JWiBJ7hiao4E7DbD968X49/wAoWaRJyCaSeMavzowxFfLl0IdmIyGKD+SpAWR5L6hOZ5BygenFePHWD40qzwB0UwbZfT6glcPsTtwaEv7zKrq9YvtkqT5liw9LtTBrHyFvG+nFe1DfPOVZpknIJpp4xq/JvC/hthd8MQwOibJtkPslyTNn2T0klCHMUz5OKloH2j50KzzBERzYcBnQgBOL9p9quq0gfZLkmZckjUNzUEFTx0owb8X44dV1UXD7JfWngVEcyMZvSLwpoHWX1rkyVXLRw20X5I0o5JsE0b/AvXAgRJ8a1I+Lhxmv7RuvIKluVE1fnPBi4AhWvPmoT6VjF48wG5J0oxKcrfQfGvA8nFcMX6w5UPzxBMQzZ1k6amhPgIsDbIfPtbSPreqLh9ivyRpNiRL+4Q6BNhymAR1TFGPrqpfDrNfWj+egGjuVC1/rMjjgUFeL1jw1NB8NcmOQ+yXJA0rSVauBdenGK58fKqovS0fmkeegGhuJUt7hzoc2HSgCOcW7eOr6qsD7Zck9SzJViEfgzxisAzw/pb2T6qqHSqDtCE8AdHcqlo+qmgfBlw8UIRbh+ZLyeh5A+2XJPUoyV1D882By8cbW9oXWD40zzwB0dxL8luh+Rxw28EywD9Ofhr1q6EySJK6kyw9PtSHgZsPFKEKXl41/vuB9ktTYwHRQkhyh0kJ2WXAGKcU7b5V9f0BM0iSpijJxg3NWwpeMmCM5SLPq1r+0IAZpKmxgGhhJNk6jI6A2mPAGJcWeU7V8mEDZpAkTUGS24fRoQP/98plRZ5UtXzkgBmkqfIZEC2MqrqwGD8U6ugBY2we6tBRRu9PsvGAOSRJGyDZ6MGT73sMWT4uKNqHWj60aCwgWihVdVlRjwp8ZNAcsF8YfTnJHYbMIUlaN0lGo4xeH9ovANsNGOX7RXufqvragBmkTngFSwsrGb0m8DogA8a4uMh+VcuHD5hBkrQWktwu5KOQBw2c5PhivE9VnT9sDqkbFhAttGRp31AHA5sMmgMOmbw28bIhc0iSrl+y9KhQBwHbDJukPl3UU3yrohaZV7C00KqWDy/ahwCD/hSp4I9C860kuw+ZQ5L0PyXZZJTRO0J9koHLR+DAoh5v+dCi8wREq0KSO4fmKOCOA0e5ouBl0L63/D8+SRrU5DtS/wzcdeAoVxd5YdXygQPnkHphAdGqkWTbMPoE1J5DZ4H6XFF/XFU/HTqJJK02SQLNnwb+joGv6AIXFc2+VVcfM3AOqTdewdKqUVXnFeOHBGbgQ075g9Ccmiw9begkkrSaJLl1yGcC72L48nF60T7A8qHVxhMQrUrJ0n6h3gMsDZ4FDm9pn19VFw6dRZIW2eTFJO9j8AfNAfLVYvyYqvr50EmkvnkColWpavnAovlD4OLBs8C+oTkp2eghQ2eRpEWUZJtRRoeFOowZKB+B9xfjB1s+tFp5AqJVLckuofkMcKehswAVOKClfUVVXTp0GElaBMnSI0J9ELjN0FmAK4u8qGr5A0MHkYZkAdGql2SrkEMgfzh0lokzi+Z5VVf/69BBJGleJdm6ofmHgmcMnWXip0X7+Kr6+tBBpKF5BUurXlVdXNQjC14JtEPnAXYM7edGGR2WZOuhw0jSvEmW9gnNKbNTPvK1or235UNa4QmIdC2To/qPArcYOsvET4o8v2r5yKGDSNKsS3KbkPdAHjN0lmsE3t/Svriqrho6izQrLCDSdSTZKTSfAHYbOss1Aoe1tH9WVecMnUWSZs3Kdz1Gzwz1VmbnB0hXTD4ueNDQQaRZYwGRrkeSzRqa9xfM0nc6Lil4FbQHVNUsXBWTpMGtvEwk74P83tBZruWHRbtvVZ00dBBpFllApBuRLD198s74zYbOci0nFO3zqupbQweRpKEk2QSaV2bl+b01Q+f5b/Xpop5ZVYO/5l2aVRYQ6SYk2S00hzEbr+q9xnLgbS3t66rqsqHDSFKfko0eFtr3ADsNneVari54ObTvKH9zJd0oC4i0FpJs3tAcUPCUobNcx9lFXla1fNjQQSSpa0lu09C8reCJQ2e5jrOL9om+5UpaO76GV1oLVXXpuMZPLbIfcPnQea5l+1CHNmm+lORuQ4eRpC4k2TgZvTw0/zl75aOOKNp7Wj6ktecJiLSOktw9NB8H7jJ0lutYDrynpX2td48lLYpkae9QbwN2HjrLdVxRsD+07/HKlbRuLCDSepi8JeutBc8fOsv1OK/Iq2D8Yd+WJWleJblTyNsgjxg6y/X4btE+uapOGTqINI8sINIGSJYeGeqDwK2GznI9Tiqal1VdfczQQSRpbSXZsqF5dcGLgY2HznNdkw8L/nlVzdJ1XGmuWECkDZRk25APQfYeOsv1qy8W9dKq+vbQSSTphiTZCEbPCvW3wHZD57kelxR5XtXyoUMHkeadBUSagslXeJ87uac8S98MucZy4EMt7V9X1c+GDiNJ15Ys7TP5ivmsPecxUV8o6tlV9eOhk0iLwAIiTVGS3wrNPwL3GDrLDbik4C2T99T7/RBJg0py/zD6e6g9hs5yAy6bfNvjfT5oLk2PBUSasiQbNTSvKfhLYGnoPDfg3II3QHtgVV01dBhJq0uSu4S8HvJYIEPnuX45vhg/vap+MHQSadFYQKSOTF7XezCw29BZbsRZRd4A44Oqajx0GEmLLcmODc2rCp7N7P6AZjnw1pb2NVV19dBhpEVkAZE6lGSThub1BS9ltj/8eWqRV8P4014zkDRtSW4/ebPVs4GNhs5zI04p2mdW1YlDB5EWmQVE6kGSB4TmIGCXobPchBOL/K1FRNI0JNmuoXnl5JtJmwyd50ZcObmW+iZPPaTuWUCknqy8YrJ5aeBvmcF321/Hd4r8HYw/6scMJa2rJNs2NC8teBGz+WbAa8nxxfg5VXXq0Emk1cICIvVs5U1Zow9C3WfoLGvBIiJprSXZoaH5i4LnApsOnecmXF7wOmj/3mfgpH5ZQKQBJBlB8+eB1zHzPx0EVorIW2D8ca8nSLquJHecXLV6BrN/wgvUMUXtV1VnDJ1EWo0sINKAkuwUcgBkr6GzrKUzC94K7UFV9auhw0gaVpLdG5qXFTyR2X2r1bWdV2R/GB/ic27ScCwg0gyYfAX4PcD2Q2dZS+cXvAfad1XVBUOHkdSvJHuGvAKyNzP7HY//oQIfbWlfWlXnDx1GWu0sINKMSLLF5JW9fwqMhs6zln4Z+HBL+86q+uHQYSR1J8kSjJ4Qan9g96HzrINTivb5VfX1oYNIWmEBkWZMknuE0fug7jt0lnXQQh1ZjN5edfWxQ4eRND1JtobmjwMvBHYYOs86+GXBa6F9R1UtDx1G0n+zgEgzKEkDzXMDbwC2GTrPOjq5yDtg/E9VdeXQYSStnyR3a2heVPA05uNlGdeowGEt7f5VdfbQYST9OguINMOSbN3QvG7yEa95eMDz2s4LfLClPbCqzhw6jKSbtvLDj9E+oX0x5MFD51kPJxXtS6rquKGDSLphFhBpDiS5W8jbIQ8ZOst6aKE+WzQHwPhovycizZ4kt4HmWYHnAL8xdJ71cEHBq6H9gN/0kGafBUSaI5O3Zb0N2GnoLOvpJ5M30by7qn48dBhpNVs57Vh6cEO7X8GjgY2GzrQelgMfamn/yrdbSfPDAiLNmSSbTD5i+Epgi6HzrKerVh5abz4M48/5gKjUnyS3hebZgT8G7jB0nvVXRxe1f1WdOnQSSevGAiLNqSTbNDT7F/wZsGboPBvgnMDh7crHDU8ZOoy0iJKsgdFDG+qP5vi04xqnFnlF1fJRQweRtH4sINKcS7JzyBshj2U+Pgh2I/K1go/A+PCqunjoNNK8S7JHQ/OMgicAWw2dZwOdXeTVMP6oz5JJ880CIi2IJPcPo7+DesDQWabgysmD6x+D8VFVdcXQgaR5keQ3oXlS4OnAzkPnmYJLCt40+Z7H5UOHkbThLCDSgkmWHh3q9cDdhs4yJZcEPtnS/BMsf8k33Ei/Lsn20Dwh5ElQ9x46z5T8KvDelvbNPmAuLRYLiLSAJu/yf1Ko17IYPwG9xrmBT7Q0n4Dl4ywjWs2SbAfN4yelYw+gGTrTlFwV+EBL+4aqOmfoMJKmzwIiLbBJEXlcqDcyv6/uvSEXBo5qyeEw/tequmroQFLXkuwAoz8I7T6QhzHfD5NfV7vyA4b2L6vq9KHDSOqOBURaBZJsDM1zA68Cbjt0ng5cGPhMSz4F4y9W1WVDB5KmJcldoXlM4DHAPYfO04E2cGhL+9qq+v7QYSR1zwIirSKTb4g8J/ByYPuh83TkCqhjixwJ7ZFVddbQgaR1sfLK3KXfaWgfXrAPi3WN8tqWAx+fXLX63tBhJPXHAiKtQisnIqNnhnol8BtD5+nYKYEjW9qjgG/60UPNopWHyEcPD+3DIXsBNx86U4euDhzS0r6xqn44dBhJ/bOASKtYko1g9NRQfwncaeg8PbgE6ktFvgDtF/zNj4aS5GaTU46HFDwM+K2hM/XgysCHJ2+1+n9Dh5E0HAuIJJKMYPSEUPsD9xg6T49+FPhCS74A43+rqp8PHUiLKckScB9o9gp5CNT9gI2HztWTSydvtXpbVf146DCShmcBkfQ/JBvtFcb7Qx46dJaeFfDdwHEtOW5SSHwFqNbLynMc/DY0e4baE/JAYPOhc/XsnIJ3QntAVV08dBhJs8MCIul6Jdm9oXlZwRNYrFd9rosfTArJ/4XxN4D/LP+fpq5Hki1h9ICG2rPI70w+BrjJ0LkGclqRt8L4o1V15dBhJM0eC4ikG5Vkh4bmzwqeDWw5dJ6BXQx1fJFvQL4B4+Or6qKhQ6lfK89OsRs092ngPgX3AXZhcT4EuJ7ybwX/AOMjq6odOo2k2WUBkbRWkmwOzTMCL2TlN1taubb1/cAJLZwEzQmwfFJVnT90ME3HpGzsCqPdGuqeRe4DdQ9W7+nGdV0e+KeW9l1VdfLQYSTNBwuIpHWSJLD0sDB+8eRLzKv8p77X62yoE4ucCPk2jL8DnO4rgGdbklvC0m7Q7tbAbgV3B3Zl9Twsvi7OLngvtB+0cEtaVxYQSestyZ0amhcWPB2vZ92Uq4DvBU5r4VTId2H8XVaKyVVDh1stVgo0O8DSLtDu2sBditwZalfglkPnm305ruDdMP6khVrS+rKASNpgK980GD0xsB/UfYfOM2fGwFlQp4f8sIUfQk6H8Q+BH1bVFUMHnDeTa1M7wNJO0N6xgZ2KuiNkJ2AnFvsjf124MHBwS3tgVZ02dBhJ888CImmqJm/P2q/gqcAWQ+dZAOcBP4Y6O+TMFs6GnA3js4GzgZ+vppKSpAG2A7aH0e2gtm/g9sDtiuwAdXtW/vXSoEEXQo4rOBDGn1hN/4xJ6p4FRFInJqciTw788eSja+rOL4BzID+H9ryQc1r4OXAB5CLgYhhfvPI/uQi4uKp+NWRggCSbAluxcn1vK1jaCmpLqK2BWzUrV6K2LWo7yK2Aa35luNQL7+eBQ1raD1TV94YOI2kxWUAkdS7JnRuaZxQ8jZWfTmt4VwGXTX5dBVwCWYb2EuCqkMsmf12xUlyu7Zp/bwtgdJ0/txmwZuUvqskfN5sDS1BbTf76LYGb4cPds+IqqKOK5h9h/NmqunroQJIWmwVEUm8m12f2aGj+aHJF62ZDZ5JWse8WHAzth6vqvKHDSFo9LCCSBjH5cvS+oX0y5Hf59Z+kS5q+swIfb2kPrqpThw4jaXWygEgaXJJtYPS4wNOh9sA7/tI0XRD4REt7CPDV8r/4JQ3MAiJppiTZHprHhuwL9YCh80hz6qLAkS05HMZH+80OSbPEAiJpZiXZeVJGHgv123gyIt2YcwOfbmk+Cctf8mFySbPKAiJpLiS5FYweHtp9IQ8DNho6kzQD/l/gMy3NEbD8ZU86JM0DC4ikuZPkljB6ZGj3hvw+sPnQmaSetJBvFXUktJ+qqm8PHUiS1pUFRNJcSzIC7t/Q/GGRvaDuNXQmacouDBzTki/C+Miq+unQgSRpQ1hAJC2UJL8Jzd6hHgZ5IH5rRPOnBU4OHN3SHg18varGQ4eSpGmxgEhaWEmWgN2g2SvUXpPvjfjsiGbRGYGvtuQrnnJIWnQWEEmrRpKtYPSghtqr4EHArvhmLQ3j3MCXW3IMjI+pqh8NHUiS+mIBkbRqJdkclu7b0O5VZE+oewNrhs6lhXRO4CuT5zi+CnzXDwJKWq0sIJI0keTmsHS/hvZ3irov5L7AVkPn0ty5CnJSqK9PrlR9parOHTqUJM0KC4gk3Ygkt4XRAxpqzyL38pRE12NyusFXof0P4D+q6vKhQ0nSrLKASNI6SLIpcA9odm9g9yK7Q90N2HTobOrcMvD9wMktnAzNibD8zaq6eOhgkjRPLCCStIEmb9vaBUa7NdTuRe0OuTOw/dDZtN4ugJwa6uSWnALjk4DvVNUVQweTpHlnAZGkjiTZAtgZRneEumsDuxbcFdgFGA0cTysugnw31KktfBeaU2H5jKo6Y+hgkrSoLCCS1LMkmwB3hNFOUDs1sFNRO0F2Au4AbDxswoWyDJwNdXrIGS2cDjkDxmcAP6yqXwwdUJJWGwuIJM2QJCPg9sD2MNoB6vYN3L6oHSG3n/y5bYdNOVPOB34CdXbI2S38BHL2yq/ls4CzqurqoUNKkv6bBUSS5szkBOVWwHYw2m7lj2vbBm4N3KqoW0GzDdRWwJasvEp4Hr4AvwxcAlwMOYT6CAAAAnlJREFUuRjaC0LOA85v4TzIucD5MP458DPgXN82JUnzxwIiSatAkpuxUkQmv5Y2nRSUJWALqDXAZg3cjJUrYFsCzXXGbMb1v4L4cuC6D2dfBVzW/vefuwxyFfALYAy5CJYvBy6e/Lqkqn45jf+skqTZZgGRJEmS1Jvr/nRLkiRJkjpjAZEkSZLUGwuIJEmSpN5YQCRJkiT1xgIiSZIkqTcWEEmSJEm9sYBIkiRJ6o0FRJIkSVJvLCCSJEmSemMBkSRJktQbC4gkSZKk3lhAJEmSJPXGAiJJkiSpNxYQSZIkSb2xgEiSJEnqjQVEkiRJUm8sIJIkSZJ6YwGRJEmS1BsLiCRJkqTeWEAkSZIk9cYCIkmSJKk3FhBJkiRJvbGASJIkSeqNBUSSJElSbywgkiRJknpjAZEkSZLUGwuIJEmSpN5YQCRJkiT1xgIiSZIkqTcWEEmSJEm9sYBIkiRJ6o0FRJIkSVJvLCCSJEmSemMBkSRJktQbC4gkSZKk3lhAJEmSJPXGAiJJkiSpNxYQSZIkSb2xgEiSJEnqjQVEkiRJUm8sIJIkSZJ6YwGRJEmS1BsLiCRJkqTeWEAkSZIk9cYCIkmSJKk3FhBJkiRJvbGASJIkSeqNBUSSJElSbywgkiRJknpjAZEkSZLUGwuIJEmSpN5YQCRJkiT1xgIiSZIkqTcWEEmSJEm9sYBIkiRJ6o0FRJIkSVJvLCCSJEmSemMBkSRJktQbC4gkSZKk3lhAJEmSJPXGAiJJkiSpNxYQSZIkSb2xgEiSJEnqjQVEkiRJUm8sIJIkSZJ6YwGRJEmS1BsLiCRJkqTeWEAkSZIk9cYCIkmSJKk3/x+o37mtqZmNWgAAAABJRU5ErkJggg==;" parent="1" vertex="1">
                    <mxGeometry x="270" y="130" width="100" height="70" as="geometry"/>
                </mxCell>
                <mxCell id="106" value="" style="shape=image;verticalLabelPosition=bottom;labelBackgroundColor=default;verticalAlign=top;imageAspect=0;image=data:image/png,iVBORw0KGgoAAAANSUhEUgAAAyAAAAMgCAYAAADbcAZoAAAACXBIWXMAAA7DAAAOwwHHb6hkAAAAGXRFWHRTb2Z0d2FyZQB3d3cuaW5rc2NhcGUub3Jnm+48GgAAIABJREFUeJzs3XecbWV1//HP2mcuIEVBxQqoYIVY0NjBjpGIDWvsUsQkGk3UaH6xxKhRozHGLioW7P6sKGKNDevProgFY0SUogIq9c7Z6/fHnMHhcsvMvfvZz9nnfN6vFy+5d+6stcTrZb7zrGfvyEwkSZIkqQ9N7QEkSZIkzQ8DiCRJkqTeGEAkSZIk9cYAIkmSJKk3BhBJkiRJvTGASJIkSeqNAUSSJElSbwwgkiRJknpjAJEkSZLUGwOIJEmSpN4YQCRJkiT1xgAiSZIkqTcGEEmSJEm9MYBIkiRJ6o0BRJIkSVJvDCCSJEmSemMAkSRJktQbA4gkSZKk3hhAJEmSJPXGACJJkiSpNwYQSZIkSb0xgEiSJEnqjQFEkiRJUm8MIJIkSZJ6YwCRJEmS1BsDiCRJkqTeGEAkSZIk9cYAIkmSJKk3BhBJkiRJvTGASJIkSeqNAUSSJElSbwwgkiRJknpjAJEkSZLUGwOIJEmSpN4YQCRJkiT1xgAiSZIkqTcGEEmSJEm9MYBIkiRJ6o0BRJIkSVJvDCCSJEmSemMAkSRJktQbA4gkSZKk3hhAJEmSJPXGACJJkiSpNwYQSZIkSb0xgEiSJEnqjQFEkiRJUm8MIJIkSZJ6YwCRJEmS1BsDiCRJkqTeGEAkSZIk9cYAIkmSJKk3BhBJkiRJvTGASJIkSeqNAUSSJElSbwwgkiRJknpjAJEkSZLUGwOIJEmSpN4YQCRJkiT1xgAiSZIkqTcGEEmSJEm9MYBIkiRJ6o0BRJIkSVJvDCCSJEmSemMAkSRJktQbA4gkSZKk3hhAJEmSJPXGACJJkiSpNwYQSZIkSb1ZqD2AJKkfEXEF4ArArkv/ubAT5C7A9sCOkDsC2zewM7Bu8ms3/EbV8sc2NAZ+v5GfPwdYbJc+dhHE+cB5wMUQ58LiBZNfcy5wTmZurIYkaYZEZtaeQZK0RhGxE3BN4Mow2h24KuRVG7gysHuSV4PYjT8Fjt0qjrsWLUth5GzgHMhzgjgdOKuFsyB+DZwJ47OAXwNnZeYFFeeVJK2RAUSSpkxE7ADsDQt7QV4Tcs8G9kjymhB7AnuwFCy05DfAaZC/COLUFk6DOBXGvwB+CfwiM9dXnlGSNGEAkaQKIuKKwHVhtA/kPg3sncQ+kPsA1wCi8oizZBH4BeQpQZzSwikQp8D4FOCUzDyv9oCSNE8MIJJUUETsBuwHo30bcr8k94XYG9i79my6xNkQJwX5gxZOguYHsPi9zDyj9mCSNIsMIJLUgYjYGbgJNDdt4GZJ3AzyRsAutWfTVjsd8gdBfKclvg3jbwM/zMzF2oNJ0pAZQCRpjSLiyjC6FeT+Ddw04WbAPvho83lwEcT3g/xWC9+G9tvAN70IL0mrZwCRpM2IiHUsnWwc0MAtEm4B3AjvaOhPFoEfB3yjhW9A+0XgW5nZ1h5MkqaRAUSSVoiIvWB0YEMekHBbYD98Z5LW7veQXw/iyy3NF2HxS5n5h9pDSdI0MIBImmsRsTeMDmjI2yfcDS+Hq4wx8KOAL7bEp2D82cw8q/ZQklSDAUTSXImIG0Fz1yDvCnEH4Iq1Z9JcSuCHAZ+bBJL/zsyzaw8lSX0wgEiaaRFxVRjdoSHvlnAPYK/aM0kb0UJ8K8hPtTSfgsUvZuaFtYeSpBIMIJJmSkRsDwt3aGj/MuFg4Aa1Z5K2wvmQX0ziBGg/mpk/rj2QJHXFACJp8CLiKjC6R0MeknB34Aq1Z5I69rOAT7XER2D8icy8qPZAkrS1DCCSBiciArhFQ3O/hHsCN609k9SjP0J+Mmk+CuMPe5ld0tAYQCQNQkSMgNs2NIck3B+4bu2ZpCnQQnw5yeOgfX9m/qT2QJK0JQYQSVMrIi4Ho7s35P0SDgGuVHsmaYolxDeSfD+0H8jMk2sPJEkbYwCRNFVWnHQ8IuEhwOVrzyQN1EkJ74X27Z6MSJomBhBJ1UVEA9yuoXngJHRcpfZM0ow5KeGt0B6bmb+qPYyk+WYAkVRNRNyioXlkwoOAq9WeR5oDLeTnkuYdMH5vZp5beyBJ88cAIqlXEXF1aB4U8Chg/9rzSHPsooAPt8SxMP5YZi7WHkjSfDCASCpucpn8PkH7SIi7A6PaMwmA8yZ//RG4EOKCpR+3FwO/D2IMnA9s7J0T5wItsADsspGPXx4YJTn5eLMDcDnInYF1wK7ADsCOHf930tY5LeDYlvYtXl6XVJoBRFIxEXGzhuaxCQ/FlwOWtB74DXAW5K+DOAs4q4UzWPr7cyDOhcVzlv6ec4FzM3N9xZkBiIjtWAojk78WdoXcFXI34MrN0n2g3ZO4BuTuLP34yhVHngPx1YQ3wPhdmfnH2tNImj0GEEmdioidYPSQgMdC3qr2PDPgIuDnkKcF8Uvg1BZOg/gljE8FfpWZZ9YdsV8RsQ7YHdgDRntA7tnAXsAeSewBeS2W7hR50rZtfh/w9pb26Mz8du1hJM0OA4ikTkTETSenHQ/D0461Ohvip0GeAvysJU6B8c+AU4DTMrOtPN/gTELKtWFhH2iv28B1k7wuxHWB6wDb1Z1waOJrCa+D8bsz87za00gaNgOIpK22tD4zemDA4yFvU3ueATgN8odBnNzCSdD8CBZPyszTaw82TybvmrkWjPaF3K+BfZPYF/JGwE6155ty5wa8taV9ZWb+uPYwkobJACJpzSZPsjoq4Ch8fO7GXAjxgyC/1cJ3oP0O8F0feTrdIiKAa0+CyU2D3B/i5iydmETd6aZOC/nxZPRyWPx4+sWEpDUwgEhatYi4TUPzhIQH4ArLsvMhvhnk11rimzD+DnCyjzSdHRFxBWB/aPZvYP+EmwM3AprKo02LHye8gqUnaP2h9jCSpp8BRNJmRcQCjB4Q8A+Qt6w9T2WLwA8Cvt4SX4Px14AfGDbmT0RcHhZuBe2tg7w1xK1ZekLXPPt9wDEt7csy839rDyNpehlAJG3U0tOsmsMC/p6lFZR5dB7kV5P4AjRfhMWv+FhSbUpE7A2j2zTk7RPuCOzLfK5uLQa8p6V9SWZ+q/YwkqaPAUTSpUTEVRqaxyf8DXCl2vP07GzIzyfxeWhPBL7h6Ya2VkTsDqMDG/IOk0ByE+ZubSs/mYxenLn+k7UnkTQ9DCCSAIiIfRqapyQ8Crhc7Xl6cgHkiUl8GtpPA9/MzHHtoTSbImJXGN2hIQ9KOAi4Qe2ZevTtJF48eYyv/x+T5pwBRJpzEXHDhub/JPwVsFB7nsJycmH84y3Np2HxS5l5Ye2hNJ8iYi8YHdSQd0+4C/PxhvefJPECGL8tM9fXHkZSHQYQaU5FxI0bmn9OeCCzvRZy7tIaSHM8jI/PzDNqDyRtKCIa4ObQ3DOIQyBvwWzfH/l5wougfVNmXlR7GEn9MoBIcyYibh7EMyDuy+x+gfPDgONa2o8BX/Qeh4YmIq4Bo3sG7SEQdwN2rD1TIb9MeDG0r8/MC2oPI6kfBhBpTkTEzYJ4LsQ9mb3gkRBfS/KD0H4gM39UeyCpKxGxA4zu0pD3TbgvsHvtmQo4PeHfoD3aExFp9hlApBkXETeYrFo9FBjVnqdDY4ivJPleaN+Xmb+sPZBU2mRV63YNzQMT7g9cs/ZMHTs1iefB+BhPLqXZZQCRZlREXLuheXbCI5id4DGG/FzSvAvG78vM39UeSKplEkZu29DcP+EBwJ61Z+rQT5P4Fxi/MzPb2sNI6pYBRJoxEXH1yYnHkcB2tefpQEJ8Ocl3QfvezDy99kDStJmEkQMbmodOwsgVa8/Uke8n8czMxQ/WHkRSdwwg0oyIiF0amqcm/AOwU+15OvCDhLdC+67M/EXtYaShiIjtYHSPhnxowr2Ziff6xInJ+KmZ+eXak0jadgYQaeAiYgGaIwL+Bbhq7Xm20W8D3tnSviUz/1/tYaShi4hdYHRowGGQBzLsB1Ak5AeS/KfM/HHtYSRtPQOINGAR6+4WtC8Fblx7lm0whvzvpDkaxh/KzItrDyTNoojYE5qHBhwFXKf2PNtgfcCbWtpnu5IpDZMBRBqgiLhVMHrJ5DuaQ/XThNdD++bMPLP2MNK8WLovsnBQQ/vohPsB29eeaSv9IeGF0L40My+sPYyk1TOASAMSEVdraJ6TcATDfHv5xQEfammOhsVPp38ASVVFxK4welCQTwT2rT3PVjo1iWdkLr619iCSVscAIg3A0qXS5okBzwAuX3uerXDKitOOM2oPI+nSJqcidwvGfw1xCLBQe6a1y88k+aTM/F7tSSRtngFEmnIRC38Z5H8C1689yxol5CeT5hUwPt5n+UvDEBF7NDRHTh7lffXa86zRYsDrWtpn+Z4gaXoZQKQpFRHXC+I/Ie5Ze5Y1+mPAW1vaV2TmybWHkbR1Jo/zfXDAEyFvUXueNfpdwj9De7Tf/JCmjwFEmjIRsQM0Tw94OsO6HHpKwiuhfVNmnlt7GEndiYgDgngSxH2BUe15Vi++loz/OjO/WXsSSX9iAJGmSMS6g4L2VcD1as+yevG1hJfA+P2ZOa49jaRyIuLaDc3jJ+tZQ7mPNg54dUv7TL85Ik0HA4g0BSZPt/r3hEfUnmWVEvLTSfPyzMXjag8jqV9LLzhsDgt4KnDN2vOs0ulJPA3Gx/oEPqkuA4hU0dKTZ5q/Dng+cIXa86zCxQFvb2n/IzN/UHsYSXVNVkYfHfAUYJ/a86xOfirJx2XmKbUnkeaVAUSqJCL2DUZvhLxN7VlW4cKAN7S0/56Zp9YeRtJ0iYgRjB4Q5NOA/WvPswrnJzwb2pdl5mLtYaR5YwCRehYRC9A8OeA5TP8l8/MC3jgJHqfVHkbS9ItYd7cgnw95q9qzrMJ3kvaIzPx/tQeR5okBROpRRNwkGB0zgEda/jHgmJb2hZn569rDSBqeSRB5HuSta8+yBYuTS+r/lJnn1x5GmgcGEKkHEbFDQ/OsXLqwOc1vGD4v4BUt7Yt9iZekLiy9TJVnDSCI/ChpD8/ME2sPIs06A4hUWETcJmjeBNyw9iybcdHk7cH/lpln1B5G0uxZCiL5PKb7jkgb8NLJI3svrD2MNKsMIFIhK+56PBdYV3ueTWgD3tfSPj0zf1Z7GEmzLSJicln9ecD1a8+zGT9M2kdl5tdrDyLNIgOIVEBE/FnQHAvcrPYsm5AB725pn5WZP6k9jKT5svQNmtFhQT6L6X2PyGLAC1vaf83M9bWHkWaJAUTq0NKjKJsnB/wrU/uEq/xskk/1qS+SaouIy0Hz+ICnA1esPc8mfHtyGvLd2oNIs8IAInUkIq4djN4Mecfas2zCyUk8K3PxvbUHkaSVImK3huZpCU9iOr95sz7h31g6DWlrDyMNnQFE6kDEwgODPBrYtfYsG/GbhOdB+ypfuCVpmkXEXg3N8xIeDkTteS4rP53ko3wvkrRtDCDSNoiIyzc0r0l4aO1ZNuKCgJe0tC/KzPNqDyNJqxURBwaj/4C8Ze1ZNuI3SRyRufih2oNIQ2UAkbZSRNw6aN4B7F17lsvK9yf5lMz8n9qTSNLWmDwx62FBvgi4Ru15NjR5dPk/+PJCae0MINIaRUQDzdMCnsP0PV73B0nzxMz1n649iCR1ISJ2aWiemfBEYLva82zg5KR9SGZ+p/Yg0pAYQKQ1iIhrBHEsxF1qz7KBsxOeDe1rvOchaRZFxA2CeDnE3WvPsoELknhS5uLRtQeRhsIAIq1SRNwpaN4JXK32LCsFvLelfXxmnll7FkkqLWLhXkH+F3Cd2rNcWr4/ycMy89zak0jTrqk9gDTtIqKJGD0raD7FdIWPHybtncY5fpDhQ9K8yFw8Lmn3C3g+cHHtef4kDg2ar0XETWtPIk07T0CkzYiIK09Wru5Re5YVLkj4d2hfkJkX1R5GkmqJiOsF8RqIu9aeZYULE56eOf6v2oNI08oAIm1CRNwuaN4N7FF7lj/JjyX5+Mz8We1JJGkaTJ6WdfjkaVlT8zb1gLe1tEf5lCzpsgwg0kZEjP4+4EVMz1OufpPE32UuvrP2IJI0jSLiKg3NSxMeVnuWFb6TtIf6TSPp0gwg0goRsWND8/pperFgwLta2r/LzLNqzyJJ0y5i3T2C9nXAXrVnmTg7iYdlLn6s9iDStPASujQREXsGo89OUfg4PYn7j3P8V4YPSVqdzPUnJO2NJqfYbe15gN2C/OgoRi9ceo+UJE9AJCBi3V2C9t3AlWvPAmTAMS3tUzLznNrDSNJQTf5sfz2wd+1ZluRHknyEf7Zr3pnENfeW7nu0H2c6wsdpSXPwOMdH+C8oSdo2mes/k7Q3CXg5U3EaEocEzVci4vq1J5Fq8gREcysidpjc93h47VkAAt7e0j4hM8+uPYskzZqIuEPQvAW4du1ZgHOS5sGZ6z9RexCpBk9ANJeW3u8x+sSUhI9zknjEOMcPN3xIUhmZ+fnJacjRtWcBdg3a4yNGT6s9iFSDJyCaOxFx46A5DrhW7VkgT0jy8Mz8Ve1JJGleRCwcHOQbgatXn2Xp9PuIzLyw9ixSXzwB0VyJWLhX0HyJ+uHjvCSObLM92PAhSf3KXPxY0u4PeVz1WeBhweiTEbF77VmkvhhANDciRk8O8gPAzpVH+VbS3iJz8Q2V55CkuZWZZ7TZ3juJo4DKbyvPAyaX029Ydw6pHwYQzbyIWBjF6JUBLwFGFUfJgJcn7W0z80cV55AkTWQuHp20twC+XXmUvYPmSxFxp8pzSMV5B0QzLSJ2DuK9EPeoPMpZSTwmc/GjleeQJG3E5MmIL0p4AhAVR7k4iSMyF4+tOINUlAFEMysirhE0xwM3rTtJfiLJR2Xm6XXnkCRtScTCfScX1K9YcYxMeHbm+LkVZ5CKMYBoJkXEvkHzMWCvimOME54D7fMzcwpegCVJWo2I2DMYvR3ywKpzwJta2qMyc33NOaSuGUA0cyLitkHzYeq+2fyspHm4L5mSpGGKiBE0zwx4JlXvzOank7xfZv6h3gxStwwgmikRC4cG+TbgchWn+EIyfoiP15Wk4YtYOCTItwK7VZzi68n4npl5Vr0ZpO74FCzNjIjRE4N8L/XCRwa8KBnfxfAhSbMhc/EjSfvnwDcrTnHLoPlCRNR+h5XUCQOIZsIoRs8JeBn1fk+fm8R9xjl+emYuVppBklRAZv4saW8f8PqKY9wgaE6MiBtXnEHqhCtYGrSIaBqa/0p4fMUxfpi0983MH1ecQZLUg4iFxwT5amCHSiOcnbT3ycwvVOovbTMDiAYrItY1NMckPLzeFPmhJB+Zmb+vN4MkqU8RceugeR9wzUojXJDEAzIXj6/UX9omrmBpkCJi+yDeVTF8TO575KGGD0maL5n51aTdH/KzlUa4XJAfiFh4YKX+0jYxgGhwJm83/wjEoZVG+EMS95/c9/D9HpI0hzLzrCQPCnh5pRG2C/KdEQuHVeovbTVXsDQoEbFbMPo45C0rjXBK0t4rM39Yqb8kacpEjI6aBJHtKrTPhCdkjl9Vobe0VQwgGoz64SO+lIzvl5ln1ukvSZpWEXH7oPkAsHuN/gn/kjl+To3e0lq5gqVBiIirBM1na4WPgDcl4zsbPiRJG5OZJybt7YEqT0QM+JdRjP61Rm9prQwgmnoRcdWg+RRwkwrtM+E54xwflpkXV+gvSRqIzPxJ0t4G8jNV+sMzRzH69xq9pbVwBUtTLSKuNgkf+1Vof14SD89c/GCF3pKkgYqIhck7qv6mSn94yTjHT63RW1oNA4imVkRcc2ntiutWaH960h6Smd+o0FuSNAMiRk8JeBEVNk4CXjjO8T/13VdaDQOIplJEXC4Yfa7SnY9TkvYemfnTCr0lSTMkYuHQIN9OhTenB/zHOMdP6buvtCXeAdFUamheUSd8xJeS9taGD0lSFzIX35+09wDO6b03PHkUoxf13VfaEk9ANHUi4s+C5jv0HpDzQ0n+VWZe0G9fSdKsi4h9g+ZjwF6994bnjnP8rL77SpviCYimTkPzZHr+vRnwqiTvb/iQJJWQmScl7e2A7/XeG54ZMXp6332lTfEERFMlIkZB82t6fJFTwjMyx8/vq58kaX5FxBWC+CDEnfrunfDEzPHL++4rbcgTEE2b69Nf+GgT/sbwIUnqS2aem+TBkB/uu3fAyyIWjui7r7QhA4imzMI1emq0mMRhmePX9NRPkiQAMvPCJA8NOKbn1hHk6yIWHtZzX+lSDCCaMtnHYwrPT+I+mYtv6aGXJEmXkZnjlvaIgFf03LoJ8s0RC/ftua90CQOIpsz4jMINzknav8hcPL5wH0mSNiszc5zjv0vo+4L4QpDvjlh3UM99JcBL6JoyEbFr0JwFLBQof1bS3j0zv12gtiRJWy1i9KSAlwLRY9tzk/ZO/ntRffMERFMlM8+BOLFA6TOT9q7+IStJmkaZ45clcRTQ9tj2CkHziYi4QY89JQOIpk/CWzsu+evJd3h6f/a6JEmrlbn4+iSOpN8QsnvQfDQirtZjT805V7A0dSbvAvkusG8H5U6fnHyc1EEtSZKKi1h4SJDHUmYdeVO+l7R3zMyze+ypOeUJiKZOZo6T9nDgom0s9b9Je4DhQ5I0JJmL70ri4cBij21vHMT7I2L7HntqThlANJUy8yuTY+jxVpb46WTt6pQu55IkqQ+Zi+9O4sHA+v66xp0amjdGRJ8X4TWHDCCaWpmLxybNIcA5a/vM+HzS3i4zf15iLkmS+pC5+P4kHkKPJyEJD2tonttXP80nA4imWub6E5L2pgFvZsunIb9M4shkfJfMPKuH8SRJKmoSQh7B1m8ErL0n/HPEwpF99dP88RK6BiMirgnNIQ0ckMSewI7QnhHET1ua42Hxc5l5ce05JUnqWsTCI4J8M/1983gxae6Vuf6EnvppjhhAJEmSBiBi4dFBvpH+QsgfJk/G+lZP/TQnDCCSJEkDETF6XMCr6e+N6acl7a0y81c99dMc8A6IJEnSQGSOX5vwxB5bXjNojouIHXvsqRlnAJEkSRqQzPErAp7fY8ubB/EWH8+rrhhAJEmSBmac42cEvKy/jvEAaJ7RXz/NMu+ASJIkDVBEREPzxoTH9NQyk3ho5uK7euqnGWUAkSRJGqiIGAXxHohDe2p5weTJWF/vqZ9mkAFEkiRpwCLicsHo45AH9tTyF0n75770V1vLOyCSJEkDlpkXJON7Ad/tqeVeQbw7IhZ66qcZYwCRJEkauMw8N2n/Eji1n45x54bmRf300qxxBUuSJGlGRMSfBc0XgF376JfEozMX39JHL80OA4gkSdIMiYg7Bc0JwPY9tLsgaQ/IzG/20EszwhUsSZKkGZKZn03iMKCP7zJfLmjeExG79dBLM8IAIkmSNGMyF9+R8Kye2u0TxFt9U7pWywAiSZI0k9rnBxzbT684BJqn9tNLQ+cdEEmSpBkVEeuC+DjEnXtot5i0d8nML/TQSwNmAJEkSZphEXGloPkycL0e2p2etPtn5uk99NJAuYIlSZI0wzLzt0l7b+DsHtpdLYi3R8Soh14aKAOIJEnSjMvMk5PmQcBi+W5xF2j+qXwfDZUrWJIkSXMiYvSkgP/sodV4ch/k8z300sAYQCRJkubIKEZvSDi8h1a/TNqbZeZve+ilAXEFS5IkaY60tI+H+FoPrfYI4uge+mhgDCCSJElzJDMvTMb3BX5VvlscGrFwRPk+GhJXsCRJkuZQRNw2aP4b2L5wq/OS9s8z8+TCfTQQnoBIkiTNocz8csLf99Bqp6B5R0SUDjoaCAOIJEnSnMocvybg7T202r+heX4PfTQArmBJkiTNsYjYKWi+CuxXuFWbtHfNzM8W7qMpZwCRJEmacxFx/aD5OnD5wq1+nrQ3zczfF+6jKeYKliRJ0pzLzB8ncWQPra7d0PxHD300xQwgkiRJInPxPQEvL94HjohYuGfpPppermBJkiQJgIjYLhh9EfKWhVv9Omlv7FvS55MnIJIkSQIgMy9Oxn8FlL6jcfUgXl+4h6aUAUSSJEmXyMxT+rkPEveLWHhA+T6aNq5gSZIk6TJGMXpzwqMKtzkraffLzLMK99EU8QREkiRJl9HS/i1wcuE2uzc0Ly7cQ1PGExBJkiRtVETcOGi+BuxQsk/SHJy5/oSSPTQ9PAGRJEnSRmXm9xL+uXSfoH1tROxSuo+mgwFEkiRJm9G+DPIzhZtcq6F5QeEemhKuYEmSJGmzImKvoPkOsGvBNm3S3jEzv1iwh6aAJyCSJEnarMz8RRJPKNymCZrXRsS6wn1UmQFEkiRJW5S5+LaAdxdusx80/1C4hypzBUuSJEmrEhG7Bs13gT0Ltjk/af8sM/+nYA9V5AmIJEmSViUzz0nicYXb7BjEfxXuoYoMIJIkSVq1zMXjA95StkvcK2LhfmV7qBZXsCRJkrQmEXGFoPk+sEfBNqcm7b6Z+ceCPVSBJyCSJElak8w8N4m/Ldxmz4bmmYV7qAJPQCRJkrRVRjF6e8JDC7a4OGlvkpk/KthDPTOASJIkaatExJWC5gfAVct1yU+22d69XH31zRUsSZIkbZXM/G35FxTGQRELh5TtoT55AiJJkqRt0kTzYYh7FWxxStLul5kXFeyhnngCIkmSpG2S5OOBkk+r2geavy9YXz0ygEiSJGmbZOYvEp5TskfA/4mIa5TsoX4YQCRJktSB9mXAtwo22KWheW7B+uqJd0AkSZLUiYi4ZdB8GRgVatEm7S0z85uF6qsHnoBIkiSpE5n59YDXFmzRBPGCgvXVA09AJEmS1JmIuHzQ/Ai4WqkeSXNw5voTStVXWZ6ASJIkqTOZ+fsknlGyR9C+NCIWSvZQOQYQSZIkdWz8JoivFmxwIxg9umB9FeQKliRJkjo3uZD+Fcp9w/tXSXv9zDyvUH0V4gmIJEmSOje5kH5MwRbXgOYJBeurEE9AJEmSVEREXGlyIf1KhVqck7R7Z+bZheqrAE9AJEmSVERm/jah5MsDd21onlywvgrwBESSJEnFRMS6oPk+cP1CLc5L2n0y84xC9dXTgI8VAAAgAElEQVQxT0AkSZJUTGauT+JpBVvs1NA8vWB9dcwTEEmSJBXXRPMpiLsWKn/R5IlYvyhUXx3yBESSJEnFJfk0oC1UfvuG5pmFaqtjBhBJkiQVl5nfCHhbsfrwqIi4Tqn66o4BRJIkSb1oaf8ZuKBQ+XXeBRkGA4gkSZJ6kZm/DHhFsfrwmIi4Vqn66oYBRJIkSb1paV8AlHpx4LqG5h8L1VZHDCCSJEnqTWaek/AfxerD4RGxR6n62nYGEEmSJPWsfRlweqHi2zc0Ty1UWx0wgEiSJKlXmXlewvOK1YfHRsTVS9XXtjGASJIkqYL2aOCUQsV3aGieWKi2tpEBRJIkSb3LzPVJPLdYfXhcRFyhVH1tPQOIJEmSKhm/DfhxoeJXgOaoQrW1DQwgkiRJqiIzx0m8oFT9gH+IiB1K1dfWMYBIkiSpovGxlDsFuSqMHl6otraSAUSSJEnVTE5BXliqfpBPjQi/5p0i/o8hSZKkysbHUu6JWNeH0X0L1dZWMIBIkiSpqsxcTKLYe0EC/r5Uba1dZGbtGSRJkjTnImJd0PwEuFaJ+kl7q8z8eonaWhtPQCRJklTd0ntB+M9S9RuaJ5SqrbXxBESSJElTISJ2DJqfA7sXKH9x0l4rM08vUFtr4AmIJEmSpkJmnp/wykLlt4PmcYVqaw08AZEkSdLUiIgrTk5BdilQ/szJKciFBWprlTwBkSRJ0tTIzN8FvL5Q+avA6MGFamuVPAGRJEnSVImIPYLmZ8C6AtW/3ubirbqvq9XyBESSJElTJTN/GfCeQtVvGRG3KFNbq2EAkSRJ0tRpaV9aqnZD89hStbVlrmBJkiRpKjWx8AXIAwqU/mPS7pGZ5xaorS3wBESSJElTKeFlhUrvDM3DC9XWFngCIkmSpKkUEaOg+TGwd4HyJ7U53q9AXW2BJyCSJEmaSpk5TnhVofL7RsTtC9XWZhhAJEmSNMXaNwJ/LFHZy+h1GEAkSZI0tTLz3IB3FKkN94+IEm9c12YYQCRJkjTVWtpXFyq9E4weWKi2NsEAIkmSpKmWmd+B+EqJ2gGPKVFXm2YAkSRJ0tRLeE2hygdExA3L1NbGGEAkSZI0AON3A2eVqNzQPKJEXW2cAUSSJElTLzMvCnhrkdrwqIgYlaityzKASJIkaRBa2tcBJd6ifU1YOKhAXW2EAUSSJEmDkJk/gfhiidoN7UNL1NVlGUAkSZI0GAlvKlT30IjYqURtXZoBRJIkSQMyfg/whwKFd4LRIQXqagMGEEmSJA1GZp4X8J4StcM1rF5EZol7PJIkSVIZEXH7oClxF2R90l49M39boLYmPAGRJEnSoGTmicDJBUqvg9H9C9TVCgYQSZIkDU7CW0rUDXANqzBXsCRJkjQ4EXGtoPkfIDou3SbtHpn5647rasITEEmSJA1OZv4vxIkFSjfQ3K9AXU0YQCRJkjRISb6jRN0gvQdSkCtYkiRJGqSIuGLQ/BrYruPS46S9Rmae2XFd4QmIJEmSBiozfwf5iQKlRzC6d4G6wgAiSZKkAUuaQmtYrWtYhbiCJUmSpMGKiJ2C5gxgp45LX5y0V83MczquO/c8AZEkSdJgZeZ5AccXKL0djA4pUHfuGUAkSZI0aC3xvhJ1G9J7IAW4giVJkqRBi4gdg+YsYMeOS/8+aXfPzIs7rjvXPAGRJEnSoGXm+YWehnV5WDiwQN25ZgCRJEnS4CVNoTWs1nsgHXMFS5IkSYMXEbsEzZnADh2X/lmb4306rjnXPAGRJEnS4GXmHyA/XaD03hFxwwJ155YBRJIkSTMhaT5cpnJzrzJ155MBRJIkSTNi/BGg8/sFQR7cdc15ZgCRJEnSTMjMX0F8s/vKcfuI2Ln7uvPJACJJkqSZkeRHCpTdDkZ3KFB3LhlAJEmSNEPaEgGEhjyoRN15ZACRJEnSLPkGcFrXRRPu3nXNeWUAkSRJ0szIzAz4WIHS+0bEHgXqzh0DiCRJkmZKS5xQpvLINawOGEAkSZI0Y8afBha7ruo9kG4YQCRJkjRTMvMciK93XhfuHBHRdd15YwCRJEnSzAnykwXKXg24foG6c8UAIkmSpJnT0pYIIMDojmXqzg8DiCRJkmbRV4Bzuy7akAaQbWQAkSRJ0szJzEXIz3ZeF+7cdc15YwCRJEnSTEriUwXKXj0irlug7twwgEiSJGlGtZ8rU3d0hzJ154MBRJIkSbPq+8Bvui7qPZBtYwCRJEnSTMrMhPxi53Xhdl3XnCcGEEmSJM2sJEqsYe0TEbsXqDsXDCCSJEmaYUXugQSMbl2g7lwwgEiSJGmWfQc4p+uiDXmbrmvOCwOIJEmSZlZmtpBf6LyuAWSrGUAkSZI005L4cvdV41YRMeq+7uwzgEiSJGnGNV8pUHQXYN8CdWeeAUSSJEkzbvHrwLj7uiPXsLbCQu0BJEmS1L2IWICFuzS0hySxP+RVJh85I8hvtTQfhcXPZOZi3UnLy8w/NjH6PnDTLus25M27rDckEXFdaO4T5J0g9gJ2hvhtkD9viY/D+MOZedZGPzcz+51WkiRJRUUsPDjIfwWuv4Vf+qMknpm5+N4+5qppFKPXJhzVbdX4apuLc3UKEhH7NDTPTXgwm9+mOj/glS3tCzLzUk8hM4BIkiTNiIjYvqF5TcJj1vR58PaW9sjMvKDUbLVFLDw6yDd1XPbCpL18Zq7vuO5Uilg4OMh3AldYw6edkrT3zsyTln/COyCSJEkzICIWgjhureEDIOFhQRwfETuVmG06jEtcRN8BuGGBulMnYnRUkB9hbeEDYJ+gOTEi9lv+CQOIJEnSDGhoXgxx0NZXiDsFo4/OcAj5EXBu92VH+3dfc7oshQ9ew9Znh12D5kMRsRvbUESSJElTIiJukfDEba+UdwxGJ0TELttea7pkZkJ8u+u6DTnTASRi4YiAVwOxjaX2aWieDQYQSZKkwQviOWz7F4gTeUAwOm4WT0KC/FbXNZOY2SdhTdaujqajzJDwuIjY0wAiSZI0YBFxRYh7dFs17ziL61gt0XkAgbxZRHQU/qbHirWrLv+7bQ/NAwwgkiRJgzY6CBh1X3cWQ8j4mwWKXh7Ys0DdagqFj6Xa5MEGEEmSpEHL6xWsvXwnZOdyPXr1Q+D87suO9tvyrxmGiIXDO7rzsakO1zOASJIkDVgDVy7bIQ8IYibuhGTmGOL7BSrPRACJWHhskK+n7D3xqxlAJEmShu288i3iTkF8ZBZCSImL6A38Wdc1+zYJH6+l2MnHJf5oAJEkSRqwFn7VT6fZCCEtdH4CksSgT0B6DB8ApxlAJEmSBq39Qn+94k7DvxPS/KD7mrlvRAzy6+qlOx9Z5ML5RvvB5wf5D0qSJElLMvO7wM977DjwOyGLBQIIOwLXLlC3qIiFI3u483EpLc1xBhBJkqSBS/j3fjsOdx0rM88EftN95dG+3dcsZxI+XkdPJx+Trt+AxU8ZQCRJkgavfQNwUr89hxtCIEqsYRV8HHK3JuGjrzsfy9ok/jEz0wAiSZI0cJm5PmnvB5zTb+dh3gkJsvOw1sB1u65ZQsTCYZPw0WsOSHhm5vrP0HdjSZIklZGZP06aQynyor3Ndh7cnZAyT8LK63dds2sRC0f0fecDIOCN0L5g+ccGEEmSpBmRuf6/k+Ze9B5ChraO1Zzcfc2Y6hOQSfh4HRXCR0v72MzM5Z8zgEiSJM2QzPWfSdp7AH/st/OQ1rEWf1qg6F4RsUOButtssnZVI3wcMwkf7cqfN4BIkiTNmMz8QtL+Jb2HkDwgGH1sACHkl8AFHddsgOt0XHObTcJHjbWrY1raIzcMH/Q9iCRJkvphCNm0yRfF/9N95dFUPQlrGsMHfQ8jSZKk/iyFkOY+1LuYvmO/fdciC6xh5dTcA5m84bzKhfPNhQ/6HkiSJEn9qnwn5OPTehISROcBpIG9uq65NSYnH0czJXc+NmQAkSRJmnGuY11WC6d0XTPJa3Vdc62mde1qJQOIJEnSHHAda0PNT7qvGVVPQKZ57WolA4gkSdKccB1rpcWfFyhaLYBM+9rVpT5nxTtBJEmSNAci4sCgOR7oORDEF5PxwZnZcwDayCQR2wfNBUB0WTdpd87M87qsuSVDWLtayRMQSZKkOeOdEMjMi4AzC5Tes0DNTYpYeMyQwgcYQCRJkuZS5RBy/DSEEIhTu6+50NtF9En4eAMDCh9gAJEkSZpbFS+mHxjEh+tfTG9/0X3N7OUeyGTtanDhAwwgRUTEKCL+vPYckiRJW1LxYvqdg9EJNU9CgigRQK7Wfc1LG+La1UoGkI5FxKihOSZoToxYuG/teSRJkrak4jrWgTXXsVrofAWrgaIBZKhrVysZQDq0HD4SHglsF+S7DSGSJGkI5nMdq/sTkCx4AjIL4QMMIJ3ZIHwsM4RIkqTBmL91rPHp3ddsigSQWQkfYADpxCbCx7LlEHKf3geTJElaozlbxzqj+5Ldn4BUDB9v6jp8gAFkm20hfCzbLsj3GEIkSdIQzFEIKRBAuHqXxSIWHl0xfBzRdfgAA8g2WWX4WGYIkSRJgzEPISQzfw9c0HHZy0XE5bsoNAkfb2SGwgcYQLbaGsPHMkOIJEkajDm5mF7iFGSb17Aqho9jSoYPMIBsla0MH8sMIZIkaTBm/2J6nFmg6JW25ZMrn3x0fudjQwaQNYqIZhvCxzJDiCRJGozZXsdqC5yAjK64tZ85q2tXKxlA1qCj8LHMECJJkgaj8jrWh0qtY0WZE5DdtuaTIhYeNatrVysZQFZpRfh4VIdlDSGSJGkwKq5j3aXgOtbvui+Zaz4BiVh4yCyvXa1kAFmFQuFjmSFEkiQNxqytY7VwTpf1JtYUQCbh423AqMAsm+7b49rVSgaQLSgcPpYZQiRJ0mDMWAg5u8NaADRrWMGat/ABBpDN6il8LDOESJKkwZidEBKdBxBWGUDmMXyAAWSTeg4fywwhkiRpMGbjYnp0voKVq7gDErHwyCDfzpyFDzCAbFSl8LHMECJJkgZj+BfTFwucgDS7bO6jk5OPY5jhR+1ujgFkA5XDxzJDiCRJGoyBr2OVWMHaaVMfmNe1q5UMICtMSfhYZgiRJEmDMeB1rHM7HQeA3GggmqxdzXX4AAPIJaYsfCwzhEiSpMEY6DrWBZ2Ps5ETkBXv+Zjr8AEGEGBqw8cyQ4gkSRqMAa5jlTixuVQAmYSPY4GFAr02aRrDBxhApj18LFsOIfeuPYgkSdKWDCmEZOYicHHHg1zS3/BxWXMdQAYSPpZtF+R7DSGSJGkIhhRC6P4UZF1EbBex8GDDx2XNbQAZWPhYZgiRJEmDMaAQUmANqzl8cuHc8LGByMzaM/RuoOFjpYuTeGDm4odrDyJJkrQlEevuErTHAR28OHAt8tNJ3jszNxswmhj9GLheT0MVM4TwAXN4AjID4QM8CZEkSQNS8elYd13l07FKPAmrV0MJHzBnASQioqF59cDDxzJDiCRJGozK7wn54ObfExIX9jdP9wLePJTwAXMUQCbh4zUJR9WepUOGEEmSNBhTfBKy2Os4HZqEj8OHEj5gTgLIjIaPZYYQSZI0GFN6MX3c7yzdGGL4gDkIIDMePpYZQiRJ0mBUDiEfvWwIaQd3AjLU8AEzHkDmJHwsM4RIkqTBqBhC7rCREDKoADLk8AEzHEDmLHwsM4RIkqTBmKIQMpgAMvTwATMaQOY0fCwzhEiSpMGYkhAyiAAyC+EDZvBFhHMePlbyZYWSJGkwIuLAoDkeWO3by7vq/HloL4I4qN++azMr4QNmLICseM/H42rPMiUMIZIkaTDqvTF9us1S+IAZCiCTN5y/PuGw2rNMmYuSuH/m4kdrDyJJkrQl9U5CptOshQ+YkTsgk5OPV01/+IgTA97Zc9Ptg3y/d0IkSdIQ1LsTMn1mMXzADASQoa1dtbSPCHhXz229mC5JkgbDEDK74QMGHkCGFj6AUWaOW9qHG0IkSZI2bZ5DyCyHDxhwABlg+ABYADCESJIkbdk8hpBZDx8w0AAy0PAB5OiSvzOESJIkbdE8hZB5CB8wwAAy3PABwGjlDwwhkiRJWzYPIWRewgcMLIAMPHzABgEELgkhj4T8QM+zGEIkSdJgzHIICXhXS3vEPIQPGFAAWfGej6GGD5jcAdlQZq5P8sGVQsh7Ihb+sue+kiRJazaLIWQSPh6emePas/RlEAFkxXs+Dq89yzbaflMfqBhCtg/yA56ESJKkIZilEDKP4QMGEEAqnnyUeEX8jptt+KcQ8sECvTfHkxBJkjQYsxBC5jV8wJQHkMnJxysrnHyMEx5foO5mAwhcEkIeVCGELJ+E3KvnvpIkSWs25BAyz+EDIDJLfKN/261Yu/rrnluPk3gMjN8eNItAdFi7TdqFXMU/9IhYF8R7IO7bYf/VuDiJB2QuHtdzX0mSpDWLiAOD5nhg59qzrMa8hw+Y0hOQ2uEjc/HYyVMILuy4fsNm7oGsVPEkZLsg/68nIZIkaQiGdBJi+FgydQFkGsLHip8r8Rt5i2tYywwhkiRJWzaEEGL4+JOpCiCVw8dhG4QPgPMK9Fp1AAFDiCRJ0mpMcwgxfFza1ASQydOujq4UPh6dufjWjXysRADZaa2fsOLpWB8uMM/mLL+s8OCe+0qSJK3ZNIYQw8dlTUUAWfG0qyN6br188vG2jX84SgSQy2/NJ2XmxUk+oNLTsT7oSYgkSRqCaQohho+Nqx5ApmDtamMnHxNtgQCysNvWfqbrWJIkSVs2DSHE8LFpVQPIlK5drfT77lvnrtv02XXXsd7jOpYkSRqCmiHE8LF51QLI9K5d/UkQZxfov00BBC5Zx3pghZOQHVzHkiRJQ1EjhBg+tqxKAJnutatL+V33I+RWr2BdqspSCHkw5Ie6qLcGrmNJkqTB6DOEGD5Wp/cAMqDwQQudn4A0cIWuak1CyIMMIZIkSZvWRwgxfKxerwFkxdrV1IePiRIrWJ2cgCwzhEiSJG1ZyRBi+Fib3gLIJHy8LuFv+uo5sfyG87WGDyAKrGB1G0DgUiHkuK5rb8HkYvq6e/TcV5Ikac1KhBDDx9r1EkBWnHwc2Ue/FTb1hvNV6v4SepJX6bomXOo9IX2fhOwQtB/yJESSJA1BlyHE8LF1igeQFeGjxsnH1qxdrbBY4AQkrtp9zSWuY0mSJG1ZFyHE8LH1igaQYa5dXcpvO5nm0ooFELjU07E+UrLPRriOJUmSBmNbQojhY9sUCyDDXbu6lNM7qLGhK0bEdgXqXiIzL0ry/hVeVug6liRJGoytCSGGj21XJIBUXLtqt33t6k8y8zy6f1JCALt3XPMyVryssMYb013HkiRJg7CWEDIJH48wfGybzgPIrISPFc7ouB4UXsNaZgiRJEnastWEkBXhY7HH0WZSpwFkCsLHW7ovHQXWsEa9BBAwhEiSJK3G5kKI4aNbnQWQSfh4bcUL5wXCB0Bb4h7I1QvU3KQVT8f6aJ998WK6JEkakI2FEMNH9zoJICtOPh7bRb01aJM4vMDa1SWiyAlI7tl9zS10XLqYfqgX0yVJkjZtZQgxfJSxzQFkNteuVjQpcAekgd4DCLiOJUmStBqTEHK7ydOuDB8d26YAMgkfr6kUPgquXa0Uv+66YpJ7dV1z1b3/tI51fM+tl9ex/qLnvpIkSWuWmd/zaVdlbHUAWXHycVSXA61CqaddbUKcWqBmlROQZZN1rPtVWsf6cMTCIT33lSRJ0pTYqgAy62tXl7b4iwJFq52ALFuxjnVcz623C/J9hhBJkqT5tOYAMl/hA4D/LVBzx4i4UoG6azIJIQ8whEiSJKkvawogcxg+yMzzgd8WKF39FAQMIZIkSerXqgNI5QvnVcLHCgVOQUbX7r7m1llxMf1jPbfeLsj3ejFdkiRpfqwqgEzCxysqXjivGT6ALHAPJK/bfc2tl5kXJnnfCichXkyXJEmaI1sMICvCx9/2MdAKUxI+IIjOT0Aa2KfrmtvKdSxJkiSVttkAMgkfr57n8AHQFljBSvJ6Xdfswop1rBN6bu06liRJ0hzYZABZcfLxuD4HYsrCx5I4pUDNqTsBWTZZx7oP5Ed6bu06liRJ0ozbaABx7WpD458WKLpnROxQoG4nJich968QQrYL8v8aQiRJkmbTZQKI4WOjTgHGHddsgOt0XLNTFUPI9oYQSZKk2XSpADIJH6+qFD4On9LwQWZeBJzafeXRVN4DWWnFG9M/3nPr7Sd3Qu7ec19JkiQV1Fz6B82rEv665xmWw8ebe+67RllgDStv1H3N7q14RG/fIWSHoP1QxLqDeu4rSZKkQi4JIBGjf6oUPg6b/vABQXQeQBoYRACBS0LIvStdTH9fROzXc19JkiQV0ABErLtLwPN67j3Va1cbauEnXddMhvVF9Yp1rE/03HqXoHlfRGzfc19JkiR1rImICNoXs8q3ondkIGtXK0XnAQTyRhHR5z/3bbbiEb19h5AbQHNkzz0lSZLUsQYW/gK4eY89Bxg+AMYnFSi6E3CtAnWLWnEnpNcQEvCPERF99pQkSVK3mob2Pj32y4S/GV74AOB/gPO6Lzvat/ua5WXmBZM7IR/tse2ewM167CdJkqSONQkH9tRrcvIxfl1P/TqVmS3EyQUqD+oeyEqZedHkTsgn++va9PX7VZIkSQU0wNV76NMmcUTm4pt66FVMkD/oumYDN+66Zp8mJyH36SuENHCNPvpIkiSpjAbYuXCPmQgfAC10HkAS9u+6Zt96DiGlf79KkiSpoAY4s2D95Tsfgw8fS6LzAALcMCJ2LFC3V5MQcq/Sd0JaOL1kfUmSJJXVQBZ4vCww8DsfGzf+foGiI+AmBer2rp87Id2/EFKSJEn9aZI4vkDdmVm72sAvgD90X7YZ/BrWshXrWJ8qUH4M4x4vvEuSJKlrDbTvBS7usOashg8yMyG+3XXdZgbugay04hG9HYeQPCEzf9ttTUmSJPWpyf/f3p2HXVfX9R5/f9a+4QGUQVBwAkxCFE1wyAHJTElTwhnnnFLUcigTNdPSPB6HMmdFFDXQEjjmAIipiHEc0IxJEVPBA6ggMorIdO/1PX/cmyJkeIa91tp73+/XdT1XKPD9fryifD7377fWqjozcOCU5lXBny5i+bhGqBOmPbNInx+C7EUHJaSK+tspzZIkSdJAGoCW9m+A0zdw1uTkY3zAhseaXS05cfpT625JNp7+3GFNs4QE3lFV35xGLkmSJA2nAaiqC2vli+iXrOec8eTa1YemF21Wjad+AgKsYUEeRL+ua5WQDXh2o45pafefXipJkiQNpbnmD6rq1KL9bWBdv/b9iyKPWeRrV9dxGnD59Mc295v+zNkwKSGPCLx5Xf/ewMeK2qeqlrvIJkmSpH411/4XVfWDor1/4C3Ar27i720DBxft3auWj+gu4mxZ+Y1wvj3tuQ3cd9ozZ0lVLY9r/MoijwLW5nXG3yuy77jGT6uqDgqfJEmShpCquv4/kdwSRvs01EOL7Ai1LeQiaH9c5Fhoj6iqH/WcdyaMMjqg4HlTHvvDtsY7T3nmTErSwNLvNrR7F3UvyHZAID8LdUJLcxQsf7mqxkNnlSRJ0nTdYAHRDUuWnhtqWm8Ou0YV7bZVdf6U50qSJEkzo7npv0S/bvyNDoYGRgt9DUuSJEmygKyf7wC/mPbQhrKASJIkaaFZQNZDVbVQ35r6XGqPac+UJEmSZokFZD2FfL2DqfdfxA8SSpIkSdewgKynlhzfwdjNgHt3MFeSJEmaCRaQ9Tb+OtDBK8Sa353+TEmSJGk2WEDWU1VdAJw+7bmhLCCSJElaWBaQDRD4WgdT90iyNP25kiRJ0vAsIBugJf+3g7GbA/fsYK4kSZI0OAvIBhn/WzdzfQ5EkiRJi8kCsgGq6gfAT6c9N9Re054pSZIkzQILyAYKHNfB1Acm2XT6cyVJkqRhWUA2UAtdXMPaBJb27GCuJEmSNCgLyAZrOzgBgYb297uYK0mSJA3JArLhTgPOm/bQAguIJEmSFo4FZANVVQWO7WD0bkm262CuJEmSNBgLyBS05IsdjA2MfBuWJEmSFooFZCrGn+tiakM9vIu5kiRJ0lBSVUNnWAhNRt8Ddpny2AuLdruqWp7yXEmSJGkQnoBMSeDzHYzdGtijg7mSJEnSICwgU9KSL3Qxt6H5wy7mSpIkSUPwCtaUJLlZaC4A1kx59GltjXed8kxJkiRpEJ6ATElVXQY5voPRd0myUwdzJUmSpN5ZQKaoqKO7mdzs081cSZIkqV8WkKlqj+hiaqhHdjFXkiRJ6pvPgExZk9EPgN+c8thx0d62qs6b8lxJkiSpV56ATFngsx2MHcHoUR3MlSRJknplAZmyluaoLuaG9nFdzJUkSZL65BWsKUuycWjOBzaf8uiri/bWVXXhlOdKkiRJvfEEZMqq6iqoLr6KvhGMfBhdkiRJc80C0oGi6ehtWF7DkiRJ0nzzClYHkmwdmnOBjaY8+sqi3a6qLpnyXEmSJKkXnoB0YOU5jTq2g9FrYPTYDuZKkiRJvbCAdKRoPtHF3NA+pYu5kiRJUh+8gtWRJLcMzTnA0pRHt0W7Q1X9ZMpzJUmSpM55AtKRqjof6isdjG6g2beDuZIkSVLnLCAdKtLRNax4DUuSJElzyStYHUpyu9CcRQdFr2h3qarvT3uuJEmS1CVPQDq08pxGuriGRUPz1C7mSpIkSV2ygHSsqI93M5dnJPF/f5IkSZor/ga2c+2hwFUdDN4Rln6vg7mSJElSZywgHZt8lPALXcxuaJ/VxVxJkiSpKxaQHhTNP3czl8cluUUXsyVJkqQuWEB6Mf4U8MsOBm8CzRM7mCtJkiR1wgLSg6q6LHBEF7NDvIYlSZKkuWEB6UlLPtrN5LpPkt/qZrYkSZI0XRaQ3ow/D/y0i8kNzfO6mCtJkiRNmwWkJ1W1HOjkFKTg6Uk272K2JEmSNE0WkB61tAcB1cHozWH05A7mSpIkSVNlAelRVX0f8o0uZsfQldMAACAASURBVIf6ky7mSpIkSdNkAelZwYc7Gr1bkvt1NFuSJEmaCgtI78YfB37VxeSG5gVdzJUkSZKmxQLSs6r6ReBfOpkNT0hyyy5mS5IkSdNgARlAS/uBjkZvgq/klSRJ0gxLVRcvZdJNaTL6NnC3Dkb/tGh/o6qu6mC2JEmStEE8ARlIwYEdjb4tjPbtaLYkSZK0QTwBGUiSLUPzE+BmHUz/j7aW7z39uZIkSdKG8QRkIFV1SeDjHU2/V5I9u5ktSZIkrT8LyIBa2vd3NTvkJV3NliRJktaXV7AG1mTp36G6uC41Ltqdq+pHHcyWJEmS1osnIAMreE9Ho0cNzV90NFuSJElaL56ADCzJmtCcCWzXwfgrJq/kPbeD2ZIkSdI68wRkYFV1ZaCrZ0E2aWhe2NFsSZIkaZ15AjIDkmwbmrOANR2Mv6Rod6yqSzqYLUmSJK0TT0BmQFWdFziso/FbQrNfR7MlSZKkdeIJyIxIcs/Q/EdH48+dPAtyRUfzJUmSpLXiCciMqKoTIF/paPytoXlmR7MlSZKktWYBmSEFb+tqduAvk2zc1XxJkiRpbVhAZsr4U8BpHQ3fAUbP7Gi2JEmStFYsIDOkqtoiHZ6C1F95CiJJkqQhWUBmzvhg4KcdDd8BRs/oaLYkSZJ0kywgM6aqrix4V1fzQ73aUxBJkiQNxQIyk9r3Ab/oaLinIJIkSRqMBWQGVdUlgfd3NT/U3yTZtKv5kiRJ0g2xgMyolvbtQFcfDrwdNC/oaLYkSZJ0gywgM6qqfho4qKv5k++CbNHVfEmSJOn6WEBmWEv7ZuDKjsbfEpqXdjRbkiRJul4WkBlWVWcHPtLV/MBfJNmuq/mSJEnSdVlAZlxL+7+Bqzoaf/OG5pUdzZYkSZJ+jQVkxlXVWYGDO5sPL0hyh67mS5IkSddmAZkDLe0bgeWOxq9paN7Y0WxJkiTpf7CAzIGqOqPjU5AnJrlfV/MlSZKka6Sqhs6gtZBkx9D8J7Cmow3HF+M9yn8gJEmS1CFPQOZEVZ0ZOLDDDfeD0b7dzZckSZI8AZkrSW4VmjOAm3e04kdFu2tVdfUFdkmSJK1ynoDMkar6eeDdHa74DWhe1OF8SZIkrXKegMyZJFtNTkFu0dGKS4v2zlX1047mS5IkaRXzBGTOVNXFBf/Q4YrNfS2vJEmSuuIJyBxKcvPQ/AC4dUcrqmh/p6q+2tF8SZIkrVKegMyhqvplkb/pcEVC864kow53SJIkaRWygMyt8UHAdzpccA9o9utwviRJklYhr2DNsWTpEaGO6nDFRUV7p6o6v8MdkiRJWkU8AZljVcufhTqmwxW3aGj+d4fzJUmStMp4AjLnkuwWmhPorkxW0T6wqr7S0XxJkiStIp6AzLmqOjlwSIcrEpoPJlnT4Q5JkiStEhaQBdDS/hXwyw5X7ALNyzqcL0mSpFXCArIAquonBZ1+PDDwmiS7dLlDkiRJi89nQBZEko1D823gTt1tqS8X9eDyHxpJkiStJ09AFkRVXVVk/2635EEwemq3OyRJkrTIPAFZME2az0Ie3uGKC4r2rlX1sw53SJIkaUF5ArJginoJcGWHK7YJObDD+ZIkSVpgFpAFU1U/CLy72y15ZLK0b7c7JEmStIi8grWAkmwemtOA23W45vzJVazzOtwhSZKkBeMJyAKqqkuL/HnHa27Z0Lyj4x2SJElaMJ6ALLAeHkinyGOqlj/V5Q5JkiQtDgvIAkuyY2hOBW7W4ZqfF+3dq+rcDndIkiRpQXgFa4FV1ZldfyEduFXI+zveIUmSpAXhCciCm3wh/URg1y73FHlO1fJBXe6QJEnS/LOArAJJHhiaLwPpcM2lRbt7VZ3R4Q5JkiTNOa9grQJVdVyg62tSm4fRIUlGHe+RJEnSHLOArBIt7SuAs7vdUntAs3+3OyRJkjTPvIK1iiRLDw/12Y7XXF20v1tVX+94jyRJkuaQJyCrSNXy0YGPdbxmo9B8NMmWHe+RJEnSHPIEZJVJss3k2yDbdboHDh/X+Ald7pAkSdL88QRklamqC4q8pPM9sG+y9Kyu90iSJGm+eAKySo0yOqxg347XXFa0v11Vp3W8R5IkSXPCArJKJbllaL5Dx1exgJOL9n5VdUXHeyRJkjQHvIK1SlXV+UWe28Oq3Rqad/SwR5IkSXPAArKKVS0fEfhw53tgv2TpmV3vkSRJ0uzzCtYql2SL0JwC7NjxqiuKdo+qOrHjPZIkSZphnoCsclX1i6J9GtB2vGqT0Bzq90EkSZJWNwuIqKqvBPp4TmPnhuYDPeyRJEnSjPIKlgBIsiY0xwO7d72r4M+rxm/veo8kSZJmjwVE/yXJXULzLWCzjlctF81Dq64+tuM9kiRJmjFewdJ/qarTCl7aw6ql0P6fJHfsYZckSZJmiCcg+jWjjA4teEIPq04u2gdU1WU97JIkSdIMsIDo1yS5RWhOAnboflv9S1GPL/9BlCRJWhW8gqVfU1UXFc0zgXH32/JYaF7e/R5JkiTNAguIrlfV1ccWvL6PXYE3JEuP6GOXJEmShuUVLN2gJE3I0ZCH9rDu0qLds6pO6WGXJEmSBmIB0Y1Ksm1oTgBu18O6M4v2vlX1sx52SZIkaQBewdKNqqrzivYpwHIP63YMoyOTdP0dEkmSJA3EAqKbVFXHFfx1T9vuHfKPSdLPPkmSJPXJAqK11L4Z6rP97MrjG5rX9bNLkiRJffIZEK21JFuH5t+BPr5gXkWeXbX8kR52SZIkqScWEK2TJHcPzdeAm/Ww7uqieWTV1Z/rYZckSZJ64BUsrZOqOqXIc3tat1FoP5Hkfj3tkyRJUscsIFpnVcv/HHh7T+s2C81nkuzc0z5JkiR1yCtYWi9JlkI+D/m9nlaeXrR7VNV5Pe2TJElSBywgWm+TjxR+C9i+p43HF+O9quqyfvZJkiRp2ryCpfU2+Ujho4CeCkHdL+TTSdb0s0+SJEnTZgHRBqmqE4s8HejpKC0PCfl4kqV+9kmSJGmaLCDaYFXL/1LQ44cD8+iG5oN+LV2SJGn++AyIpiJJGpqPFTy5t53wznGNX9LXPkmSJG04C4imJsmmYfRlqPv0tbPgVVXjN/a1T5IkSRvGAqKpSnK70HwTuG1fOwteUjV+Z1/7JEmStP58BkRTVVU/Kdp9gF/2tTPw9mT0J33tkyRJ0vrzBESdSJYeEerTQF9vq6oiz61aPqinfZIk9SbJxrD0oIZ276J+E5ptgctDndPCcdAeUVVnDZ1TWhsWEHUmGT0vcECPK9siz6paPrjHnZIkdWbltfOjZ4X6a+D2N/KXtoGPtbSvqaoz+8onrQ8LiDo1yuhNBa/oceW4yDOqlj/W405JkqYuydYhh0L2Woe/7dIiT6laPrKzYNIGsoCoU5PX8/5TwZN6XLtc5GlVy4f2uFOSpKlJsmNovgDsvB5/+7jIk6uWD592LmkaLCDqXJI1YfR5qAf2uHY8uY51SI87JUnaYEnuGJovATtuwJhfFe2eVXXitHJJ02IBUS+SbBGaLwP36HFtFbywavzeHndKkrTektwpNMdw4897rK2Ti/aeVdVOYZY0Nb6GV72oql8U7d7Aj3pcm8C7k9Hze9wpSdJ6SbLr5Id10ygfALvB6LFTmiVNjQVEvamqc4r294Fze1ybwHuT0Z/1uFOSpHWS5C6h+SJwm6nOpX36NOdJ0+AVLPUuyT1DcyywRZ97C15RNX5LnzslSbopSe4Vmn8Ftulg/K+KduuqurKD2dJ68QREvauqE4r2UcAVfe4NvHmU0ZuSpM+9kiTdkCQPnDzz0UX5ANgM2L6j2dJ6sYBoEFX15SJPAZZ73QuvaGgOSDLqc68kSdeVLO0Tms8BW3a8aqrXuqQNZQHRYKqWP1nkWUCvb+co2C/k/yRZ0+deSZKukSw9JdQngE17WPfLHnZIa80CokFVLX+0yPOBnh9GyqNDPpVks373SpJWu2T0olCHABv1tLLPl79IN8kCosFVLX+g4KX9b84fhNHnk2zd/25J0mqUjP4m8E76+z3Y6VV1Tk+7pLViAdFMqBq/veCvBtj8gNB8JcmGfG1WkqQblWQ0yuiAwGt73QtH9LlPWhu+hlczZZTRGwpeNcDqc4t276o6YYDdkqQFlmSzkI9D9ul59dVFe+eqOqPnvdKN8gREM2Vc478K/P0Aq28dmmOTjfYaYLckaUEl2TaMjh2gfBB4t+VDs8gTEM2kUUb/a5grWSwXeUHV8gcH2C1JWiBJ7hiao4E7DbD968X49/wAoWaRJyCaSeMavzowxFfLl0IdmIyGKD+SpAWR5L6hOZ5BygenFePHWD40qzwB0UwbZfT6glcPsTtwaEv7zKrq9YvtkqT5liw9LtTBrHyFvG+nFe1DfPOVZpknIJpp4xq/JvC/hthd8MQwOibJtkPslyTNn2T0klCHMUz5OKloH2j50KzzBERzYcBnQgBOL9p9quq0gfZLkmZckjUNzUEFTx0owb8X44dV1UXD7JfWngVEcyMZvSLwpoHWX1rkyVXLRw20X5I0o5JsE0b/AvXAgRJ8a1I+Lhxmv7RuvIKluVE1fnPBi4AhWvPmoT6VjF48wG5J0oxKcrfQfGvA8nFcMX6w5UPzxBMQzZ1k6amhPgIsDbIfPtbSPreqLh9ivyRpNiRL+4Q6BNhymAR1TFGPrqpfDrNfWj+egGjuVC1/rMjjgUFeL1jw1NB8NcmOQ+yXJA0rSVauBdenGK58fKqovS0fmkeegGhuJUt7hzoc2HSgCOcW7eOr6qsD7Zck9SzJViEfgzxisAzw/pb2T6qqHSqDtCE8AdHcqlo+qmgfBlw8UIRbh+ZLyeh5A+2XJPUoyV1D882By8cbW9oXWD40zzwB0dxL8luh+Rxw28EywD9Ofhr1q6EySJK6kyw9PtSHgZsPFKEKXl41/vuB9ktTYwHRQkhyh0kJ2WXAGKcU7b5V9f0BM0iSpijJxg3NWwpeMmCM5SLPq1r+0IAZpKmxgGhhJNk6jI6A2mPAGJcWeU7V8mEDZpAkTUGS24fRoQP/98plRZ5UtXzkgBmkqfIZEC2MqrqwGD8U6ugBY2we6tBRRu9PsvGAOSRJGyDZ6MGT73sMWT4uKNqHWj60aCwgWihVdVlRjwp8ZNAcsF8YfTnJHYbMIUlaN0lGo4xeH9ovANsNGOX7RXufqvragBmkTngFSwsrGb0m8DogA8a4uMh+VcuHD5hBkrQWktwu5KOQBw2c5PhivE9VnT9sDqkbFhAttGRp31AHA5sMmgMOmbw28bIhc0iSrl+y9KhQBwHbDJukPl3UU3yrohaZV7C00KqWDy/ahwCD/hSp4I9C860kuw+ZQ5L0PyXZZJTRO0J9koHLR+DAoh5v+dCi8wREq0KSO4fmKOCOA0e5ouBl0L63/D8+SRrU5DtS/wzcdeAoVxd5YdXygQPnkHphAdGqkWTbMPoE1J5DZ4H6XFF/XFU/HTqJJK02SQLNnwb+joGv6AIXFc2+VVcfM3AOqTdewdKqUVXnFeOHBGbgQ075g9Ccmiw9begkkrSaJLl1yGcC72L48nF60T7A8qHVxhMQrUrJ0n6h3gMsDZ4FDm9pn19VFw6dRZIW2eTFJO9j8AfNAfLVYvyYqvr50EmkvnkColWpavnAovlD4OLBs8C+oTkp2eghQ2eRpEWUZJtRRoeFOowZKB+B9xfjB1s+tFp5AqJVLckuofkMcKehswAVOKClfUVVXTp0GElaBMnSI0J9ELjN0FmAK4u8qGr5A0MHkYZkAdGql2SrkEMgfzh0lokzi+Z5VVf/69BBJGleJdm6ofmHgmcMnWXip0X7+Kr6+tBBpKF5BUurXlVdXNQjC14JtEPnAXYM7edGGR2WZOuhw0jSvEmW9gnNKbNTPvK1or235UNa4QmIdC2To/qPArcYOsvET4o8v2r5yKGDSNKsS3KbkPdAHjN0lmsE3t/Svriqrho6izQrLCDSdSTZKTSfAHYbOss1Aoe1tH9WVecMnUWSZs3Kdz1Gzwz1VmbnB0hXTD4ueNDQQaRZYwGRrkeSzRqa9xfM0nc6Lil4FbQHVNUsXBWTpMGtvEwk74P83tBZruWHRbtvVZ00dBBpFllApBuRLD198s74zYbOci0nFO3zqupbQweRpKEk2QSaV2bl+b01Q+f5b/Xpop5ZVYO/5l2aVRYQ6SYk2S00hzEbr+q9xnLgbS3t66rqsqHDSFKfko0eFtr3ADsNneVari54ObTvKH9zJd0oC4i0FpJs3tAcUPCUobNcx9lFXla1fNjQQSSpa0lu09C8reCJQ2e5jrOL9om+5UpaO76GV1oLVXXpuMZPLbIfcPnQea5l+1CHNmm+lORuQ4eRpC4k2TgZvTw0/zl75aOOKNp7Wj6ktecJiLSOktw9NB8H7jJ0lutYDrynpX2td48lLYpkae9QbwN2HjrLdVxRsD+07/HKlbRuLCDSepi8JeutBc8fOsv1OK/Iq2D8Yd+WJWleJblTyNsgjxg6y/X4btE+uapOGTqINI8sINIGSJYeGeqDwK2GznI9Tiqal1VdfczQQSRpbSXZsqF5dcGLgY2HznNdkw8L/nlVzdJ1XGmuWECkDZRk25APQfYeOsv1qy8W9dKq+vbQSSTphiTZCEbPCvW3wHZD57kelxR5XtXyoUMHkeadBUSagslXeJ87uac8S98MucZy4EMt7V9X1c+GDiNJ15Ys7TP5ivmsPecxUV8o6tlV9eOhk0iLwAIiTVGS3wrNPwL3GDrLDbik4C2T99T7/RBJg0py/zD6e6g9hs5yAy6bfNvjfT5oLk2PBUSasiQbNTSvKfhLYGnoPDfg3II3QHtgVV01dBhJq0uSu4S8HvJYIEPnuX45vhg/vap+MHQSadFYQKSOTF7XezCw29BZbsRZRd4A44Oqajx0GEmLLcmODc2rCp7N7P6AZjnw1pb2NVV19dBhpEVkAZE6lGSThub1BS9ltj/8eWqRV8P4014zkDRtSW4/ebPVs4GNhs5zI04p2mdW1YlDB5EWmQVE6kGSB4TmIGCXobPchBOL/K1FRNI0JNmuoXnl5JtJmwyd50ZcObmW+iZPPaTuWUCknqy8YrJ5aeBvmcF321/Hd4r8HYw/6scMJa2rJNs2NC8teBGz+WbAa8nxxfg5VXXq0Emk1cICIvVs5U1Zow9C3WfoLGvBIiJprSXZoaH5i4LnApsOnecmXF7wOmj/3mfgpH5ZQKQBJBlB8+eB1zHzPx0EVorIW2D8ca8nSLquJHecXLV6BrN/wgvUMUXtV1VnDJ1EWo0sINKAkuwUcgBkr6GzrKUzC94K7UFV9auhw0gaVpLdG5qXFTyR2X2r1bWdV2R/GB/ic27ScCwg0gyYfAX4PcD2Q2dZS+cXvAfad1XVBUOHkdSvJHuGvAKyNzP7HY//oQIfbWlfWlXnDx1GWu0sINKMSLLF5JW9fwqMhs6zln4Z+HBL+86q+uHQYSR1J8kSjJ4Qan9g96HzrINTivb5VfX1oYNIWmEBkWZMknuE0fug7jt0lnXQQh1ZjN5edfWxQ4eRND1JtobmjwMvBHYYOs86+GXBa6F9R1UtDx1G0n+zgEgzKEkDzXMDbwC2GTrPOjq5yDtg/E9VdeXQYSStnyR3a2heVPA05uNlGdeowGEt7f5VdfbQYST9OguINMOSbN3QvG7yEa95eMDz2s4LfLClPbCqzhw6jKSbtvLDj9E+oX0x5MFD51kPJxXtS6rquKGDSLphFhBpDiS5W8jbIQ8ZOst6aKE+WzQHwPhovycizZ4kt4HmWYHnAL8xdJ71cEHBq6H9gN/0kGafBUSaI5O3Zb0N2GnoLOvpJ5M30by7qn48dBhpNVs57Vh6cEO7X8GjgY2GzrQelgMfamn/yrdbSfPDAiLNmSSbTD5i+Epgi6HzrKerVh5abz4M48/5gKjUnyS3hebZgT8G7jB0nvVXRxe1f1WdOnQSSevGAiLNqSTbNDT7F/wZsGboPBvgnMDh7crHDU8ZOoy0iJKsgdFDG+qP5vi04xqnFnlF1fJRQweRtH4sINKcS7JzyBshj2U+Pgh2I/K1go/A+PCqunjoNNK8S7JHQ/OMgicAWw2dZwOdXeTVMP6oz5JJ880CIi2IJPcPo7+DesDQWabgysmD6x+D8VFVdcXQgaR5keQ3oXlS4OnAzkPnmYJLCt40+Z7H5UOHkbThLCDSgkmWHh3q9cDdhs4yJZcEPtnS/BMsf8k33Ei/Lsn20Dwh5ElQ9x46z5T8KvDelvbNPmAuLRYLiLSAJu/yf1Ko17IYPwG9xrmBT7Q0n4Dl4ywjWs2SbAfN4yelYw+gGTrTlFwV+EBL+4aqOmfoMJKmzwIiLbBJEXlcqDcyv6/uvSEXBo5qyeEw/tequmroQFLXkuwAoz8I7T6QhzHfD5NfV7vyA4b2L6vq9KHDSOqOBURaBZJsDM1zA68Cbjt0ng5cGPhMSz4F4y9W1WVDB5KmJcldoXlM4DHAPYfO04E2cGhL+9qq+v7QYSR1zwIirSKTb4g8J/ByYPuh83TkCqhjixwJ7ZFVddbQgaR1sfLK3KXfaWgfXrAPi3WN8tqWAx+fXLX63tBhJPXHAiKtQisnIqNnhnol8BtD5+nYKYEjW9qjgG/60UPNopWHyEcPD+3DIXsBNx86U4euDhzS0r6xqn44dBhJ/bOASKtYko1g9NRQfwncaeg8PbgE6ktFvgDtF/zNj4aS5GaTU46HFDwM+K2hM/XgysCHJ2+1+n9Dh5E0HAuIJJKMYPSEUPsD9xg6T49+FPhCS74A43+rqp8PHUiLKckScB9o9gp5CNT9gI2HztWTSydvtXpbVf146DCShmcBkfQ/JBvtFcb7Qx46dJaeFfDdwHEtOW5SSHwFqNbLynMc/DY0e4baE/JAYPOhc/XsnIJ3QntAVV08dBhJs8MCIul6Jdm9oXlZwRNYrFd9rosfTArJ/4XxN4D/LP+fpq5Hki1h9ICG2rPI70w+BrjJ0LkGclqRt8L4o1V15dBhJM0eC4ikG5Vkh4bmzwqeDWw5dJ6BXQx1fJFvQL4B4+Or6qKhQ6lfK89OsRs092ngPgX3AXZhcT4EuJ7ybwX/AOMjq6odOo2k2WUBkbRWkmwOzTMCL2TlN1taubb1/cAJLZwEzQmwfFJVnT90ME3HpGzsCqPdGuqeRe4DdQ9W7+nGdV0e+KeW9l1VdfLQYSTNBwuIpHWSJLD0sDB+8eRLzKv8p77X62yoE4ucCPk2jL8DnO4rgGdbklvC0m7Q7tbAbgV3B3Zl9Twsvi7OLngvtB+0cEtaVxYQSestyZ0amhcWPB2vZ92Uq4DvBU5r4VTId2H8XVaKyVVDh1stVgo0O8DSLtDu2sBditwZalfglkPnm305ruDdMP6khVrS+rKASNpgK980GD0xsB/UfYfOM2fGwFlQp4f8sIUfQk6H8Q+BH1bVFUMHnDeTa1M7wNJO0N6xgZ2KuiNkJ2AnFvsjf124MHBwS3tgVZ02dBhJ888CImmqJm/P2q/gqcAWQ+dZAOcBP4Y6O+TMFs6GnA3js4GzgZ+vppKSpAG2A7aH0e2gtm/g9sDtiuwAdXtW/vXSoEEXQo4rOBDGn1hN/4xJ6p4FRFInJqciTw788eSja+rOL4BzID+H9ryQc1r4OXAB5CLgYhhfvPI/uQi4uKp+NWRggCSbAluxcn1vK1jaCmpLqK2BWzUrV6K2LWo7yK2Aa35luNQL7+eBQ1raD1TV94YOI2kxWUAkdS7JnRuaZxQ8jZWfTmt4VwGXTX5dBVwCWYb2EuCqkMsmf12xUlyu7Zp/bwtgdJ0/txmwZuUvqskfN5sDS1BbTf76LYGb4cPds+IqqKOK5h9h/NmqunroQJIWmwVEUm8m12f2aGj+aHJF62ZDZ5JWse8WHAzth6vqvKHDSFo9LCCSBjH5cvS+oX0y5Hf59Z+kS5q+swIfb2kPrqpThw4jaXWygEgaXJJtYPS4wNOh9sA7/tI0XRD4REt7CPDV8r/4JQ3MAiJppiTZHprHhuwL9YCh80hz6qLAkS05HMZH+80OSbPEAiJpZiXZeVJGHgv123gyIt2YcwOfbmk+Cctf8mFySbPKAiJpLiS5FYweHtp9IQ8DNho6kzQD/l/gMy3NEbD8ZU86JM0DC4ikuZPkljB6ZGj3hvw+sPnQmaSetJBvFXUktJ+qqm8PHUiS1pUFRNJcSzIC7t/Q/GGRvaDuNXQmacouDBzTki/C+Miq+unQgSRpQ1hAJC2UJL8Jzd6hHgZ5IH5rRPOnBU4OHN3SHg18varGQ4eSpGmxgEhaWEmWgN2g2SvUXpPvjfjsiGbRGYGvtuQrnnJIWnQWEEmrRpKtYPSghtqr4EHArvhmLQ3j3MCXW3IMjI+pqh8NHUiS+mIBkbRqJdkclu7b0O5VZE+oewNrhs6lhXRO4CuT5zi+CnzXDwJKWq0sIJI0keTmsHS/hvZ3irov5L7AVkPn0ty5CnJSqK9PrlR9parOHTqUJM0KC4gk3Ygkt4XRAxpqzyL38pRE12NyusFXof0P4D+q6vKhQ0nSrLKASNI6SLIpcA9odm9g9yK7Q90N2HTobOrcMvD9wMktnAzNibD8zaq6eOhgkjRPLCCStIEmb9vaBUa7NdTuRe0OuTOw/dDZtN4ugJwa6uSWnALjk4DvVNUVQweTpHlnAZGkjiTZAtgZRneEumsDuxbcFdgFGA0cTysugnw31KktfBeaU2H5jKo6Y+hgkrSoLCCS1LMkmwB3hNFOUDs1sFNRO0F2Au4AbDxswoWyDJwNdXrIGS2cDjkDxmcAP6yqXwwdUJJWGwuIJM2QJCPg9sD2MNoB6vYN3L6oHSG3n/y5bYdNOVPOB34CdXbI2S38BHL2yq/ls4CzqurqoUNKkv6bBUSS5szkBOVWwHYw2m7lj2vbBm4N3KqoW0GzDdRWwJasvEp4Hr4AvwxcAlwMOYT6CAAAAnlJREFUuRjaC0LOA85v4TzIucD5MP458DPgXN82JUnzxwIiSatAkpuxUkQmv5Y2nRSUJWALqDXAZg3cjJUrYFsCzXXGbMb1v4L4cuC6D2dfBVzW/vefuwxyFfALYAy5CJYvBy6e/Lqkqn45jf+skqTZZgGRJEmS1Jvr/nRLkiRJkjpjAZEkSZLUGwuIJEmSpN5YQCRJkiT1xgIiSZIkqTcWEEmSJEm9sYBIkiRJ6o0FRJIkSVJvLCCSJEmSemMBkSRJktQbC4gkSZKk3lhAJEmSJPXGAiJJkiSpNxYQSZIkSb2xgEiSJEnqjQVEkiRJUm8sIJIkSZJ6YwGRJEmS1BsLiCRJkqTeWEAkSZIk9cYCIkmSJKk3FhBJkiRJvbGASJIkSeqNBUSSJElSbywgkiRJknpjAZEkSZLUGwuIJEmSpN5YQCRJkiT1xgIiSZIkqTcWEEmSJEm9sYBIkiRJ6o0FRJIkSVJvLCCSJEmSemMBkSRJktQbC4gkSZKk3lhAJEmSJPXGAiJJkiSpNxYQSZIkSb2xgEiSJEnqjQVEkiRJUm8sIJIkSZJ6YwGRJEmS1BsLiCRJkqTeWEAkSZIk9cYCIkmSJKk3FhBJkiRJvbGASJIkSeqNBUSSJElSbywgkiRJknpjAZEkSZLUGwuIJEmSpN5YQCRJkiT1xgIiSZIkqTcWEEmSJEm9sYBIkiRJ6o0FRJIkSVJvLCCSJEmSemMBkSRJktQbC4gkSZKk3lhAJEmSJPXGAiJJkiSpNxYQSZIkSb2xgEiSJEnqjQVEkiRJUm8sIJIkSZJ6YwGRJEmS1BsLiCRJkqTeWEAkSZIk9cYCIkmSJKk3/x+o37mtqZmNWgAAAABJRU5ErkJggg==;" parent="1" vertex="1">
                    <mxGeometry x="390" y="130" width="100" height="70" as="geometry"/>
                </mxCell>
            </root>
        </mxGraphModel>
    </diagram>
</mxfile>